<mxfile host="app.diagrams.net" agent="Mozilla/5.0 (Windows NT 10.0; Win64; x64) AppleWebKit/537.36 (KHTML, like Gecko) Chrome/131.0.0.0 Safari/537.36" version="24.7.17">
  <diagram name="Page-1" id="F3lcTNIoD_wRlSsvimtm">
    <mxGraphModel dx="636" dy="342" grid="1" gridSize="10" guides="1" tooltips="1" connect="1" arrows="1" fold="1" page="1" pageScale="1" pageWidth="850" pageHeight="1100" math="0" shadow="0">
      <root>
        <mxCell id="0" />
        <mxCell id="1" parent="0" />
        <mxCell id="h7ScecsNdmBpTV7By8Kl-1" value="&lt;b&gt;Windows&lt;/b&gt;" style="rounded=1;whiteSpace=wrap;html=1;align=center;verticalAlign=top;strokeWidth=2;horizontal=1;labelPosition=center;verticalLabelPosition=middle;" vertex="1" parent="1">
          <mxGeometry x="230" y="230" width="160" height="180" as="geometry" />
        </mxCell>
        <mxCell id="h7ScecsNdmBpTV7By8Kl-14" style="edgeStyle=orthogonalEdgeStyle;rounded=0;orthogonalLoop=1;jettySize=auto;html=1;exitX=0.5;exitY=1;exitDx=0;exitDy=0;entryX=0.5;entryY=0;entryDx=0;entryDy=0;endArrow=none;endFill=0;startArrow=classic;startFill=1;dashed=1;" edge="1" parent="1" source="h7ScecsNdmBpTV7By8Kl-3" target="h7ScecsNdmBpTV7By8Kl-4">
          <mxGeometry relative="1" as="geometry" />
        </mxCell>
        <mxCell id="h7ScecsNdmBpTV7By8Kl-3" value="Unity&lt;div&gt;2022.3&lt;/div&gt;" style="rounded=0;whiteSpace=wrap;html=1;labelBackgroundColor=none;fillColor=#fff2cc;strokeColor=#d6b656;" vertex="1" parent="1">
          <mxGeometry x="275" y="270" width="70" height="40" as="geometry" />
        </mxCell>
        <mxCell id="h7ScecsNdmBpTV7By8Kl-19" style="edgeStyle=orthogonalEdgeStyle;rounded=0;orthogonalLoop=1;jettySize=auto;html=1;exitX=0.5;exitY=1;exitDx=0;exitDy=0;entryX=0.5;entryY=0;entryDx=0;entryDy=0;fillColor=#dae8fc;strokeColor=#6c8ebf;endArrow=none;endFill=0;strokeWidth=2;dashed=1;" edge="1" parent="1" source="h7ScecsNdmBpTV7By8Kl-4" target="h7ScecsNdmBpTV7By8Kl-6">
          <mxGeometry relative="1" as="geometry" />
        </mxCell>
        <mxCell id="h7ScecsNdmBpTV7By8Kl-4" value="Motive 3" style="rounded=0;whiteSpace=wrap;html=1;labelBackgroundColor=none;fillColor=#fff2cc;strokeColor=#d6b656;" vertex="1" parent="1">
          <mxGeometry x="275" y="340" width="70" height="40" as="geometry" />
        </mxCell>
        <mxCell id="h7ScecsNdmBpTV7By8Kl-5" value="&lt;b&gt;Linux&lt;/b&gt;" style="rounded=1;whiteSpace=wrap;html=1;align=center;verticalAlign=top;strokeWidth=2;" vertex="1" parent="1">
          <mxGeometry x="410" y="230" width="180" height="220" as="geometry" />
        </mxCell>
        <mxCell id="h7ScecsNdmBpTV7By8Kl-6" value="&lt;b&gt;OptiTrack System&lt;/b&gt;" style="rounded=1;whiteSpace=wrap;html=1;dashed=1;strokeWidth=2;" vertex="1" parent="1">
          <mxGeometry x="230" y="420" width="160" height="30" as="geometry" />
        </mxCell>
        <mxCell id="h7ScecsNdmBpTV7By8Kl-17" style="edgeStyle=orthogonalEdgeStyle;rounded=0;orthogonalLoop=1;jettySize=auto;html=1;entryX=0;entryY=0.5;entryDx=0;entryDy=0;dashed=1;fillColor=#fff2cc;strokeColor=#d6b656;strokeWidth=2;endArrow=none;endFill=0;" edge="1" parent="1" source="h7ScecsNdmBpTV7By8Kl-3" target="h7ScecsNdmBpTV7By8Kl-8">
          <mxGeometry relative="1" as="geometry">
            <Array as="points">
              <mxPoint x="420" y="290" />
              <mxPoint x="420" y="290" />
            </Array>
          </mxGeometry>
        </mxCell>
        <mxCell id="h7ScecsNdmBpTV7By8Kl-21" style="edgeStyle=orthogonalEdgeStyle;rounded=0;orthogonalLoop=1;jettySize=auto;html=1;exitX=0.5;exitY=1;exitDx=0;exitDy=0;entryX=0.25;entryY=0;entryDx=0;entryDy=0;dashed=1;strokeWidth=1;" edge="1" parent="1" source="h7ScecsNdmBpTV7By8Kl-8" target="h7ScecsNdmBpTV7By8Kl-10">
          <mxGeometry relative="1" as="geometry">
            <Array as="points">
              <mxPoint x="455" y="340" />
              <mxPoint x="478" y="340" />
            </Array>
          </mxGeometry>
        </mxCell>
        <mxCell id="h7ScecsNdmBpTV7By8Kl-8" value="ROS TCP Endpoint" style="rounded=0;whiteSpace=wrap;html=1;labelBackgroundColor=none;fillColor=#d5e8d4;strokeColor=#82b366;" vertex="1" parent="1">
          <mxGeometry x="420" y="270" width="70" height="40" as="geometry" />
        </mxCell>
        <mxCell id="h7ScecsNdmBpTV7By8Kl-20" style="edgeStyle=orthogonalEdgeStyle;rounded=0;orthogonalLoop=1;jettySize=auto;html=1;exitX=0;exitY=0.5;exitDx=0;exitDy=0;entryX=1;entryY=0.5;entryDx=0;entryDy=0;dashed=1;" edge="1" parent="1" source="h7ScecsNdmBpTV7By8Kl-9" target="h7ScecsNdmBpTV7By8Kl-8">
          <mxGeometry relative="1" as="geometry" />
        </mxCell>
        <mxCell id="h7ScecsNdmBpTV7By8Kl-9" value="Joint Position" style="rounded=0;whiteSpace=wrap;html=1;labelBackgroundColor=none;fillColor=#d5e8d4;strokeColor=#82b366;" vertex="1" parent="1">
          <mxGeometry x="510" y="270" width="70" height="40" as="geometry" />
        </mxCell>
        <mxCell id="h7ScecsNdmBpTV7By8Kl-22" style="edgeStyle=orthogonalEdgeStyle;rounded=0;orthogonalLoop=1;jettySize=auto;html=1;dashed=1;entryX=0.5;entryY=1;entryDx=0;entryDy=0;exitX=0.75;exitY=0;exitDx=0;exitDy=0;" edge="1" parent="1" source="h7ScecsNdmBpTV7By8Kl-10" target="h7ScecsNdmBpTV7By8Kl-9">
          <mxGeometry relative="1" as="geometry">
            <mxPoint x="550" y="310" as="targetPoint" />
            <Array as="points">
              <mxPoint x="522" y="350" />
              <mxPoint x="522" y="340" />
              <mxPoint x="545" y="340" />
            </Array>
          </mxGeometry>
        </mxCell>
        <mxCell id="h7ScecsNdmBpTV7By8Kl-10" value="Franka Control Interface" style="rounded=0;whiteSpace=wrap;html=1;labelBackgroundColor=none;fillColor=#d5e8d4;strokeColor=#82b366;" vertex="1" parent="1">
          <mxGeometry x="455" y="380" width="90" height="40" as="geometry" />
        </mxCell>
        <mxCell id="h7ScecsNdmBpTV7By8Kl-11" value="&lt;b&gt;Franka Research 3&lt;/b&gt;" style="rounded=1;whiteSpace=wrap;html=1;dashed=1;strokeWidth=2;verticalAlign=top;" vertex="1" parent="1">
          <mxGeometry x="610" y="230" width="170" height="220" as="geometry" />
        </mxCell>
        <mxCell id="h7ScecsNdmBpTV7By8Kl-12" value="" style="shape=image;verticalLabelPosition=bottom;labelBackgroundColor=default;verticalAlign=top;aspect=fixed;imageAspect=0;image=data:image/png,iVBORw0KGgoAAAANSUhEUgAAAaAAAAJYCAYAAAAkHzKwAAAAAXNSR0IArs4c6QAAIABJREFUeF7svQmUXFd17n9vTT0PanWruyW1xpZkSx4UCxvb2HiUJ3AgD3ASwpAVMjEkayUrw8tEXsIL4f2TrOSRgeQBIcAjZjK2sY0B22AbPMvGGMtC89RSz+p5qq6q++d33V9nc96t7tZgWyXdWqtWDXc6Z59z9ne+vffZx/fiVyyBWAKxBGIJxBJ4DSTgvwbPjB8ZSyCWQCyBWAKxBLwYgOJOEEsglkAsgVgCr4kEYgB6TcQePzSWQCyBWAKxBGIAivtALIFYArEEYgm8JhKIAeg1EXv80FgCsQRiCcQSiAEo7gOxBGIJxBKIJfCaSCAGoNdE7PFDYwnEEoglEEsgBqBT1AeCIEh4npf0PI9P3rwCz5uNNCx4npf3fT93ih4Z3yaWQCyBWAIlLYEYgI6j+WZAJjUDNJne3t6KsbGx+mw22zg6OrpofHy8OpvNlk1PT6eDIPB93w+mp6e9srKyoKysbNrzvMm6urqBlpaW3c3NzZ2+708ex+PjU2MJxBKIJXBGSSAGoCLNGQQBbCYzOjpaPTgxWDfU09/SPzi0bHJisiqbzWZGRodqBwcGG7s7e5dPTEysGB0dXTw6OloxOTmZyuVySd/3E4lEAvDxmpqaCo2NjYXa2trcihUrBtavX//9lpaWBxOJxKN1dXXHzqgeFVcmlkAsgVgCC5RADEBGUEEQlPf09NR1dXWt7unpWZ/NZhd3dne2DAwOtPb0dK8YGhxum5ycKMvlcgnP98oSfqI8yHtlVVVVydraWq+6utqrrKz0ampqvPr6+vBz0aJFXkVFhVdVVRV+wobS6fRoMpnc4Xne7ZlM5u7y8vKDvu9jootfsQRiCcQSOGskcNYCUBAEqYGBgapMJlMxNDRU19fXt/rAgQMbDh48uKqzs/OCoaGhNWNjY9WT2YkKz/PKU6lUsry8PASYuro6WE0ILksam2cBBwDKZDKezuN7EAReoVDwfN8P37lczpucnOQTf9AB3/e/kkgk/qOmpmZ3DEJnzbiLKxpLIJaAcZCfNcKA5ezdu3f5rl27tuzevfucysrKpuHh4Zbu7u5VXV1drYCR7/uVtbW1PoDStnJ5CDZLliwJGQ5vgAcQwrxWnqnwMLUlk8kQYOwL8NErn8972Ww2BCAAiXf+5deRsrKyL1RWVn6qvLx831nTEHFFYwnEEjjrJXBWMCACAgYHB+s6Ojo2Pv/88xdv3759S3d39+ZsNtuK36a8vLy8oaEhsWTJEr+hoSEEmJaWFq+xsdFbtLg+BBvMaQANL38msK0QFLykT0yCFzId3mI6fAd0+OQ6AZDYEMEJU1NTHM8nEokD6XT6MxUVFf9eVVXVedb3ylgAsQRiCZwVEjijAWgmaq1+27ZtW5566qnrduzYcUlPT097Pp9vqK+vr2hsbEysXr3aa21t9ZYtWxb6bfDVADj4awCTwIt2zQReEAJRUPBmgUlAFF43Y3rjP8BHzEf/2/9yOJUSiV2VlZWfrK+v/0/f93vOit4XVzKWQCyBs1oCZywAYWrbuXPnlkceeeQtO3fufMOuXbs2pNPp2s2bN6cvuugib+nSpSHINDc3hz4bAY5AJGQ6jknteHoKTEdgo0/9Z8EHFgRD8n0/6/v+jkwm88lFixZ9yff9vuN5XnxuLIFYArEESk0CZxwAEVwwPDy86pvf/OYtL7744lt37dp1YTqdrlm1alX6iiuu8DZv3hya0/DZ4MOBmQAAMq8JJARA+v94G3ahAIQpjnN5JRKJbFlZ2UtlZWWfraqqusPzvCNxYMLxSj4+P5ZALIFSkcAZBUBBEKQPHz68+fbbb3//9u3brx4aGlrW3t6eue6667zLL788DCAAcFKpVAhA9uX6cKw57UQaUwBk2Y+CD2YCEELTHG9AiPPS6TRlyyaTyX2ZTObOTCbz1XQ6vcP3/YkTKUN8TSyBWAKxBE5nCZwxABQEQdkzzzxzxRe/+MU/2L9//2U1NTVVW7duTVx55ZVhMAEmNqLQMKvBfFD4mL8wvyla7WRMbm4juwCkgAQTATfrGwIUeQGMgJDnefzR63nes5lM5o5kMvmtysrK7pgNnc5DKS5bLIFYAscrgTMCgDC77dy58/X/8A//8D97enou27RpU9mtt97qrVu3bpbtwHh4KyItKmzaZUQywx2vUDk/CoCsWQ5A4vdMJNxstNwMC4KpFbLZLGxof3l5+R2VlZVfyWQyO33fnzqR8sTXxBKIJRBL4HSTQMkDEClzDh48eMEXv/jFjw0PD199/fXXZ84///yQ2WDaglXwXYtAUfCAD6yH4ywWtS/jjzmptlooAMHKKItYEOzMMjQWClVUVPRVVFQ8lslkPpdMJh/xfX/wpAoXXxxLIJZALIHTQAJnAgBV33vvvX+4dOnSD7a1tS2SzwV/D98FNvouwAGQYEN2saja41SY4uYDIJniAEHAB0bEcwFIyuiAJOl7ppPJ5HbP8z4bBMHXy8vLD/m+nz8N+lBchFgCsQRiCZyQBEoagFhgOjw8vDadTn96cHDwyrKyMl+sB3BBmdsIN5Q6/wmk3EAE1wSnRaQnItnjBSDOV3AEQCR/kIBzZm1RgTVCyWTygUQi8dlUKvWU7/ujJ1K+U3UNDHTfvn3V/f39FSMjI2UTExPJVCqVmJ6e9guFQlBfX58nE3hNTc34xo0bR3zfJyt4/IolEEsglsDsXjUlKYogCDLDw8M/PzU19fe5XG4xlZCvR/4eAZD9rWwFp4LpFBPcXABkI+MATN4wIIEm4MN7Zn3QbHYFU+6c7/s/8n3/s+l0+j7P88gp94ruMwTYI95Dhw7VHD58eMmePXsaDx8+fF5nZ+cluVxuKYt78/l8NZGIRJQXCgWfLA+e500TxYfZsLKysqOlpWXb2rVrX1y/fv3RlpaW3hUrVozM7JP0X3mLSrI3xoWOJRBL4HglUNIMaHx8fPno6Oi/5XK5W1D4yslmAw6iAEiK/XiFdTznzwdAiorD/CYzHOUS+AiA5gAhgKkvkUg86Hne55PJ5OOe5w2fykg5gU5fX1/Frl271j700EOX7t69e6vv++sSiUQzeyFVV1dnbF0lIxvWrjrMmB2ngyAYTCQS7Ie0e+nSpd+97rrrHjvvvPN2tba2ZmMwOp5eFp8bS6C0JVCyADRjfrt5eHj400EQtNAMljkIeGANUazolWQ/Ur761LofmxlBUXAcEwCprKqHWJv8VSqz/Q3L8H3/xUQicXsikbjb87y9J2vmmgGe9I4dO1qfeeYZ8uf93KFDhy4rKytbU1FRUUk2b16kLRofHw+/i51pONgFva48dD5tNDY2NpFKpXbX19c/tnnz5ruvuOKKnZs3byYfHpkhYlZU2volLn0sgTklUMoAlOnu7v4fU1NTf/hyEoGX2YP160hRy/fj+oSkCE91H5kLgGwuODcQQSZElwXNA0BS/r2+7z/E1g6e523zPG/wRIIUMGsePHhw2aOPPvoz3/72t9+dz+dfn0wmm0MBO0Bjt5qwsrRAa/PiWbkIoAi4mJiYoO0KhULhaDKZfPqSSy750k033fTseeedd5gURae6feL7xRKIJXB6SKBkAWhsbKy1v7+fiDBMQrMsB7G66XQAHkKxUXYodzGJkwkymKv5LPNx88C5AKS8cArDFpBqPVAxE5z+534CKM/zpoIg+EEymfy653n4hvZ6nof/Zd7N7lhL1dfX1/TQQw9tfuCBB97Z19d3VUNDw9Lp6emkQtPNc2z6oFlRKKLQRhbK1GjZm5UJ4MMeS6yHmlkknB8YGOiqqan53qWXXvr5n/3Zn31+w4YNgGscvHB66Iy4FLEETpkEShaARkdHN3d3d381lUqtFQChlK25S2YhbRIHCKHYLQCdKlOcG84dlYrHNcnJDAf4WAASY7OBCC4QWT+WE1QB2HT+BJgfSyQSANEznucdApyiTFozGcMrv//972968MEHf3737t03T09Pr0kmkxnKQbm0dkp1suY2/hPLUf0sU+KYQFb1teXlOyCkNlRIOnnxWITb3Nz8wDXXXPPVq6++entra+vAibC6UzZa4hvFEoglcEolULIA1N/f//b+/v5PZTKZOgUfCIDsYlIUmxgQCzwtAzqVkiwGQDb7gQUguzGdlK71jVgznBS2EqPOFZgwUyd8J/hQ2ODuCc/z7vI87yWAaQaI8jN+nkxHR8eKRx999LLvfe977+jt7b0qmUzWaA0S96IclI+yCxBVV62jsoBu2RL/K/2RztEEQeZHtZmCMfhNO/ECmIIgGCsvL//hueeee8+NN954zzXXXMPOsbFZ7lR23vhesQReIwmUJAChPPv6+v6sr6/vwxUVFUkb/SbzjkxZKD4UJyxIPiDLel4JBhTl63AZkbMz6uzmdQIbF4CKMSAXnNSPZuoVoMBngOipfD7/4Mxi1s6BgYHq3t7eTbfffvtbduzYsXVkZGQ5EW1cD1MRUMvEVyx1kWVD1vejcnAvXtbsZkEK0xttIxZIPcWUlMEim83ms9ls19KlS++/4YYb/u+VV175w1WrVp3SiL/XaPzFj40lcFZLoFQBqHzfvn2fDILgXTawQJFvAiTrG7LrgBSoIOV6KnuA6//h3prtWxCSkrU+IOvPoYxRUX1iSYrs0/OQA/fif30qNH3m92QQBAfGx8efHBkZ2fH000+3fv3rX7+8t7f3XN/3a2zUoGsic01qOm6fzXeZEVVnsRsLTC4QiU1pLRR1FgjquZQfVjQ5OTmUz+cfv/rqq7/2zne+8zvr1q0jG8Qruv7pVPaN+F6xBGIJ/LQEShWAGvbt23d3EARXRAGQDV+OCsF+NQFoviAEQEKzfxeABEIWWKPMb5yHAkdJwyj4FPgQJj08POyNjr6cMKG/v3/64Ycfntq2bVtmeno6Y585h18pajFseD/rd1N5Ba60jXLdCaysv4vzMbPJL6etKagLL8BI4M1vGFE+n5+cmprau2nTprvf8pa3fGXr1q1sVxEnaI01WyyBEpRASQLQxMTEqiNHjnybBZF2waYU9WsNQK65DeWraDALSPpPs3+BgWVuMoW5mR3U1wSwYg0z2zl4AwMD3rFjx2AN4VodPru6urznnnvO+/GPf6zQ55AxKbptoczHmt1UVpWHOmiTPQEQoGg3/hPo8sk2GZRNviKXAXEO/8mUNxO0kE8kEt1NTU33v/nNb/7Stddeu23FihWEncfrhkpQCcVFPnslUJIANDQ0dElvb+89vu8v0ezZBiK4jMHNjPBKM6CoCDjN5F0TlGVA6oYCBJVb65vEUKy5jGPK6i0lvX//fm9wcDBU6ih4/t+9e7f39NNPex0dHbNBBYpec4HH/p4rDFymNsqp+gkAARXKBfjYF8fVZqo75wpo5AMSi6IOeqmNBeie5w1VVFQ8uXnz5jt/9md/9luXXnop64biBK1nrz6La15iEihJAOrr63vrwMDAF5LJZKUYwukGQDb6zYKPAEgKVr4TRZrJ72HZnJS2+pYFJK7DNIWih/EcPHgwdPgDImQq4AXr4f2Thbsh85GJS2auYgAUBXg26EEh1gJ0RenJ7Ad41NbWeqtXr/bWrFnj1dfXh+ZBrcni+SMjI2RDCM2EnZ2d3r59+7y+vr5ZE5x8RNyT7wJU6sD38fHxyVQqtWfdunV3v/Wtb/3Pm2++eVfsFyoxLRQX96yVQEkCUFdX12+NjIz8fTKZJPPy7BoSl/lYJf5qBSG4Ydc2ACEqCMEFIGuGUySfXUBrzXNiSjAIwAUFjmJubm4OFT3K/YUXXvC+//3ve729vaG5DWbEM2pqakLTl+QXxXps2LdkKb+PfnMvMRqABNMfwLNs2TJv/fr13pYtW7yVK1d6bW1tIWBYXxDnca1AkbLt2bPH27lzp7dr1y7v0KFDs8xKclJAAuUAlFjEmslkcoODg5jk7r7ttts+e8kll/xw3bp1sV/orFVrccVLRQIlB0Cs2O/o6PjI5OTkH6ZSKV8+DNdH4kbEna4AJDOUGJFrhhP7Ufnl6Oc8+VV27NgRKmPObWpqCkFoaGgoVOKAD+fBjgAkyQuFDrBpIanLbHSeQM4CkEBQDImyE+QAAAEI55xzjnfVVVd5F198sce+TJyveloA07O5jhflp+yU88CBAyEQPfnkk97Ro0dD4KK8gBTnwO7EwGaAKEgmk8cSicR3r7jiiq+87W1ve3DTpk3HSmUgxuWMJXA2SqAUAajy0KFD/5LNZt9zugJQMR+QDdG2yUi1EFXrY2xkmtiPAEi/uQYG89JLL4WKG3ahvGr83r59u/fQQw/NKnQAgmvc8G0LNBaEbCCHDWu3ACLTG+YzgGHx4sXe1q1bvRtvvNFbunTpbCSe5KHzZW7UGiwFICATTIkKROCegCssDv8Vv6kn51AfpSviPoDSTF3G8vn8S5s2bfrSzTff/MVbb731yNk4sOM6xxIoBQmUIgDV79279wtBENwsAIoyvbnMyDIgzepPdQNZgJHSdaPf3LBsjmstkPUVWZ8WrIIXx+vq6sJPGA0sRw58TG5iBEeOHPHuv//+0BwmRsF5Ah+ex7koegt2xQDI9bMJKHkm/hoAobGx0XvHO94RMh/+VwScNgCUb0syl6wUUOAGaUgunN/f3+9t27bN+973vhea5XSNMnEDStqIcOY+xHEfaW5uvufqq6/+7NatW1+MTXKnurfH94slcPISKDkAGh0dbenq6rozCILXnwkAZKPgpHRRsAIglD9Oe/4TEKFsUfwwCZSwgEQ+ngceeCBU1LxgDfKxCITl2HfNbAIgC9awKhgK5VEqI/l9uDfPJ9DgPe95j3fZZZeFDEWReWIytpsq8k4AJGB1gVqyQD6Y6AAywsgBVsxyACr/8XzKR5kpqzIrJBKJAgtXM5nMUxs3brzj7W9/+13XXHPNy9EN8SuWQCyB00ICJQdAg4ODa3t7e8lttmk+AHL9QDZ8WQ72U9kKJ8KALADJFGcBCKXKCyUvnwnBBkrlIzaj7AewhKeeeipUygAXSlvswvXjuOt/ijFJrlcqIwEGCh+mBSP7pV/6pdD0xvP04hrJWIAnkxvnuABkzZaWFal+2jkW5vfEE094jzzySBhSLpMc8uD+AkyeQRnT6fTU1NTUwaampvsuuuiiL7373e9+oa2tbeJUtnt8r1gCsQROTAIlB0ADAwM/09fX99WfbEe9OplM+tY8VAxw3BDtV9IE55qSXH+Qa4ITAGlTOvlHZC6Tf0fKFaXPubAa+YPwweDs37t3r3ffffeF4IPiVji0G2at4AG6jBv9ZiMH+U55ARYbEce9Mf9R9ptuusl7//vfHz4P9gFLU3TaXF3SApBkYs1ykhvl00JWgQz1wyT34IMPhlFzyIhjlInn28AKylJeXp5Pp9PDiUTihfr6+ntuuOGGr77vfe9jR9Y4qemJ6Y34qlgCp0QCJQdAvb29Vx87dux2NkkrBkBREXGvlg/Ihl27ilVK1QUpze6jGBBmL4CGmT7RYAAPDngUrRaaAkCAxFe/+tVwHZCySR8+fDjsJKq7FLN+i4m4633ciMGZPGyhaY3nKOz79a9/vfehD33IW7JkyU/tD2TZT7FeasGm2HeuRTaKuqO+gBHlQwaA8b333hsGYmCmE2BSPsrM+QAz8kmn00E+n5/OZDIDZWVl22BEb3rTm75622239Z6SkRTfJJZALIHjlkDJAVB3d/fPDQ4OfiaZTNYpJNkNFS4lAFIAghiQouPE2pjdS4kyw8f3I3OcAggAKJTwN7/5zdmQZ5QwQQiW7Vnfj13HEyU/GwUnhgH4AC74flhHBPhccsklISgCkDLPiS0BqFF+IGuCmwuIOE/7EYkFcT++y9eDifFb3/pWyIgI3+Z8G0mHHCir9hwqLy8PxsbGsolEorehoeH7jY2N91x66aWPXn311b1xoMJx64/4glgCJyWBkgOgjo6OXx4bG/uXZDJZcSYAUJQJzjIVrdVhxt/T0xOyIV6KLlP6nbvuuitciKpIOMDHOvZlbtOnAM7+jlq4y3GUvpK+wiZQ6oRa/8Zv/EZoouOYIuOsWW8uALKmSQGS+5/YG2Y0RfnxfMqJHJAJn4Dy448/HkbJ4RfiXJ4NKwI0xRQVMTiTOaKQyWSm8/l8f3l5+faWlpbvbtq06dtbtmzZec0117ycuTV+xRKIJfCKSqDkAOjw4cMfGhsb+9t0Ol2mTAGlzIBsEIJlQaqTzF9kMtCsH+BVCh5AhtxvsAD5hZSAlN/KKC1lrig0mbVs6HUUAAlcxIJk/vvgBz/oXX755WHnFBOzPXUuM5xlPZYNRQGQwFhRcQpkEOApvJzPF1980bvnnntCIOY48hLDVD0FkHpWIpEIiJjzfX+yUCgcSKVS21auXPmNyy+//OkrrriiM2ZFr6j+iW9+lkugpACIjeiOHj36+2NjY3/peV4Zs1/Xae7+tuBkzUpSZDYy62T6gutAt34e18zk+okUNCBHPp82RQ7rYDB7UV+VF2DiPGbzsB98PwpHlp+I427AgWUo84EQ1wp48DkBPrzPPfdc78Mf/nBoCpRZT7KbT55RwQcWhHQ/e99iQQoCVcpEWQFl2NAXv/jFEIyQDSwIILJ+JDEzbVshFml2fB3xPG9vIpF4cdGiRU+0t7c/cdVVVx1qbW0d2bhxI/sPBXHm7ZMZLfG1sQRelkCpAVDyyJEjfzE+Pv77noc+PnMBSMDBzF5reezKf2UVgBl95zvfCRWv2AJKV4s0LTBY0LXMx4K0FLXAWgwIZY0PCjB429ve5t12222R/p2FApAAxg2/Fhip3FE+IgtYSkqKnMSSqD9ZIIiSE7jzHJkkqRv3FTDZSECBnSYy09PTk77vHyHhaVVV1QvNzc2PbNq06eAFF1zQt2HDhuHW1lZyzsGg4q0gYq0aS+A4JVBqAFR26NChv5mamvpN3CACoLmCDk5XBmT9M1KSzMz1XUoW8EGhokC1tTh10m9S1PzgBz8IlamiwPCT2N9iPfbTRr5JRvp05amQcEAOh/6f//mfhyxIgGf73FwAZNmNvot9uEBjAYjv1sfkghTyIVCDT4AS8KX+5MIjMIPoQWRCPXgeYMVLfjTLEl1A1LGZegWFQmE4n893ptPpw5lM5oUtW7bct3Hjxq729vbe5cuXTzQ3NwNI+RiQjlMTxaeflRIoNQAiD9y/TU5O/kIikUihQKLAx677ebUBSArMAkzU+hYXgBSCbWfsMikpzYzqJR8Q9ScMmcSdMkdxjRJ2KhrteAFIz7HmPuoF22Jrhb/+67/2Fi1aFJq1rKnseMDHMiDXBOea36zZzgUmZGFNbAIaRcsRJffwww+HUXIAD2XkfOWO09YUNkLQbopn28kurJ2RUZDL5Xp93z/g+/7++vr6F84555wnL7nkku4NGzZ019TUjLe2tpIWCEAqnJUaJq50LIE5JFBqAFRz4MCB/5vNZm+ZD4CsEo3yC71SPqCFAJDrA7LBB/quzdxY+a/ZuoBEqXe4zx133BGa32RG4joASP6fKPCxJqcoJiR5CbyVXQBfy9VXX+194AMfmN1raL7RFQUmLuAU+70QYFJd5NeR/0y+H8LDKTe7wJIZnAzb1lQpc5xMdDxTMqHsYpVRkwgx0ZkIvWB6ejoHICUSiYOLFi16saGh4ekLL7zwQFtbW9/q1at7ly5dOtTU1ARDysUMab6eEx8/GyRQagC06ODBg1+empq6hr2AFBocBTZSovbzlQxCsKabhQYg6BobhMB3lCmBBChRlKec45Sfa2R6hJGQ+YBzZKZSlgIbmWYjwARILggVM8kpGILy8Pr1X/917/rrrw/LEBX95g6aYmzGZTVRkXFRAOQGKagMlF/h1lqUShn5rmsITX/++edDNkSkHLKCMVkTpIBIIAWgK9rSMiC1ncx6ytJgog7zZWVl46Ojo/2e53XW19dvP/fcc585//zz9y9btqxn8eLF/a2trYNNTU34mAhsiF+xBM46CZQUAA0PDy/u6+v72vT09BtKAYCkxGwUl2U/+o6SU7gwSpQ3oMLCSrvdtqK2BEBEej322GOzO5zKCU+wgGbuFnyighA043cByJou5bBH2eL/Of/882f9KQqGKDZyogBDytua09zouKhjxe6FX0pADeCQn04BEwJt+ZAACOT67LPPhjnlACXOFYi79eF8yVXmODdowWVJOk87184wpVw2mx2ZmprqTSaT3UuXLn1p1apVz1522WX7Gxoautra2noqKytHW1tbszEgnXV6+KytcEkB0MjIyJK+vr47s9nspclkMnG6MCDXgW5BRn4SKd35AEir/JmZoxi5XiYw5TnTDqQsvASE9JIfKQqArH/GKlAXgCwbsOcpQ8PHPvYxb8OGDeEj5/L5WABZKJNxWVAxgLL/o/yRGdcC0BbsVT4BguTDNbQD15FBAhn+8Ic/nDVlClD0HBe4+V+gJHYk5iTGKHnxTC0mlpkQkMtmswDSUC6X6160aNHB5cuXP7dy5co9a9eu7Wxra+tsb28/2trayk59AFL+rNVQccXPaAmUFACxFUN3d/ddQRBcHARBQlkB7PoYmatQGtbk5vo1pGhPRevOBUDuzF4KUkAkRQbT0Up9ZT2wmQRUF83QqQ8RXvv27QvrKbalNUAuyBQDIHteMd8QZaR8bDgHAJH7TeUQK3HBKIqtuECk33MBlD1m28q9/1wMzG0fyVwyw8/GWiqyKWjrCT1Xu7Tym++0UUNDQ8iYuI/WR+Fr4n5cT3/kmORpt7NQpJ5SDMl0FwQBWbuHstlsX21t7aENGzY8vn79+oNr1qzpqq+v71q6dGnX2rVrsbVisosDGk7FwI3v8ZpLoKQAaGxsbGlXV9fdQRBcVOoApBmylCGKSACEiai7uzv0BQlQNbNW6DDKjlX/JOSUIx2FJ99RMdObndVbEHaByIYfo8ApC6auv/3bvw0ByIYuu73Y9fu4IBJlbnNBoljwQhSzmmsUFZty1xAAAAAgAElEQVQAuAyFUPYvfelLs/K0a4XY3VWJUAEQgYcAiRBwAj/q6+tnI+yUDFXtJvbFb44pEk8+I02YqAvnFgoF2M+xQqFwrKGh4dCqVat+uG7duoOrV6/uaG5uPrJ8+fLuRCIxHvuQXnMdGhfgJCRQUgA0Pj7edvToUfYC2lxqAORGUbkAxG+ljsGERvgwighlpXU4tLNYH8e+9rWvhfnhLABxD5RkVOCBCz4u6HDcZUG6RsEPf/d3fxdut82rmP9nIf4cl/1EsSALNhaQirGiqHHgBjvoWhsoQj1gNAR0fOMb35hNaQTIwvpuvfXW0K9E4MJzzz0XBi7QRviPACGZ2LQoVslZ5dcDZGgvsSiOc28yNcj/R3lkzhMIcWwmEwXrj8aTyeRgVVVVT3Nz84HW1tYfNzQ0dG7YsKFjzZo1B1atWtVVWVkJaBH2DUNiYSyfLJKNGdNJKMn40ldOAiUFQBMTEys7OjoAoAt83w99QFLKMgEtxATn+jlOVrwLMcHpHGt6sxFXWoTKJ4pNAISJR7No+TlQVCgntl8gEk4ApDUxLMSUPBQl5prIokxvLgDZa3Sfj370o94555wTmpuiAKgYu4liQS4ILRS4XBa0kPZT+S0A8Z/ABxMa5sxPfOITYUJTZAyAwPr+7M/+LDyGrAGitWvXemx1QTQdb9pCqZF0T13P8wAa63+S7JW7T9F1OifKfMp/YqK5XC4fBAFhiSN1dXV9K1as2L9y5cq9ixYt6m1qaiKQYaytrW2wpaWlK5VKDUxNTQFKZi5RyFVUVOBXYj8kkJHvYYqhOd6h6OI0RAvpbfE5C5VASQHQzG6od7IbKgAkxbxQH5AFHmtiWqiwip13vABkfRACIf7DzIMywycBAMnHIFDVDJp6cC4ARJ44ARDn8X8UANmyF1NwOsfKySp7yvo7v/M73lVXXRUCUJQZbj7fjwUdvis6zQKUvYcUr8tkXEZUrG1c4HWfI5YCAMFs7rzzzjCyEBYJQJx33nkeiVcBIFL7vPnNbw5ZyY9+9COP/ZA+8pGPhAzorW99a7jOiOwLzc3NIVgJMOQP4hk2rFus1/ZFaxZFNvIRCaQ0SdA1tHcQBPnp6ekpEqpWV1dPNTY2Ti5dupQQ795Vq1YNL168eKqlpSVYvHixz4Qml8tNZbPZycnJSRjTBBvzJZNJrg+ZE8lZaZogCAplZWWAEywqFwTBZCqVGkskEqP5fH40kUgMp1Kp8Xw+P1VVVQWYCdBY5xSHlp+sYjkLri8pABoaGlrX3d19p+/755Y6ANloOJSMGBAKRQCEAmP2rBxw9Ef5DDgPExznWgBCwQmAigUIWKbjfndZkH4rig9z1Hve857ZJLDFFLxV9BZ0FgpQC/UBzTdG7dode64ATX42fgM4pO359Kc/7e3evTs8/dprrw13fSVKjqzjgC+siBBu8uEByDfffLN3yy23hBnJAbB3vOMd3o4dO8JQ77a2ttCfR3vh47P1QnaAEv/ZKEk7odEkSzJ0oymt/FVX+gDn0W/q6uqC6urqfGNjY9Dc3Oy3trb6bW1t+eXLl+cXL148PTU1BbDkC4VCYXp6msW0XBskk0nelC0EpEQikU8kEgAVQRDjvu+PBkEwkEqlSNw6nkgkxpLJZPjJXkue53WnUqm+RCJxrLy8PAyemDEPxuA0X6c9i46XFAANDw+v7+zs/FoikShpALKmN81yGfhaAwSooLR4AUAoIaWHkWkHJYXPwgYhyNegRKTW7BRlkrPKy/0uliSTkkKZCcH+kz/5k1BxqkzueLFK1mU4C2FA7jnF/Di2fsXGrBtSHQVCnKM0PRwnmzZgQnv8zM/8jNfU1BTuNUS74APDz4Ycvv3tb4dpfpAHC1xbW1u9j3/8497f/M3fhAD05S9/OQQw2BCMChAjgzjtw38Em4i9q42Ru0BmJlx7NuWR6ivTpyYxyoxhAyuoh9aNqS25rqqqKqxPS0tLmE5p1apVoZ8Lvx6/ZcYFjKm/ADDCegBLCsFLJrwZ1oO5b9T3/SHf94/5vt/v+/4A5sJEIjGUSqVIXXQkmUx2+L7fN+O3wpwYZ4c4i4BHVS0pAIIBdXV13Xk8AKSBY80cNiQ7agZ/vP3geE1w7logbcmNYhMDIriAsmEy4VMsRwqV2e0DDzwQppaxDIgZvQtAUXWUUprtCP5PdwXJi7opFJnvzP5RwvhCpODmkpcAyGU0uibKBFcMgKSAXRPdXM93gVeMTvdAaVM/FK42r9u7d6/3+c9/PmRByBawlUKGAbL1BSmJMJPSPoAM1yCT//N//o/3e7/3e2G7EKiAUidCDgVPzj6ecf/994cAhHmPe2H6U8YG21Y8WyAvlmQZqUx7ysbAb5lrZea17WzvocAWQsobGxtDprZs2bLQfMhvQAmwEpsSuGk82ewckr9jFlUQBCA1XSgU+MTMB3saTCaTPb7vd/m+3+N53qFMJrMrlUodLCsrI/cUpsE43Px4FVEJnl9SADTjA7qrUChsTKVSCQ0ilKXWyQhc3HU/Uqju5ysJQK5pxZpRpCAAHMrAb4ADRYfCIr8bZVUUHMCC8tKsGKX51FNPhYsoUV42NY62JrAmuLkYjo5FfVIGnm2d8uSCYytuyVL+IMomJqEw5LnMbzrmmuWiril2bjFwLTYW3fNVZssqaAvYChFxmN2IkKOOkj/3hsnAJAjI2L59ewg01113XRjAsGbNmtBHxLYVBCnQnpjxCFz4z//8z9B8B4C9853v9L773e+GZjvkxj1pR74DSsrCoKS7YifIC3CAQWkdkgIdVD+uoV9YALNMUsCkYBLai3sSUg4ALV++PASjTZs2hWH3vOib2plWEXrIiuuYPAmw+E/jT2utBJwz7Qg4EUiRBZRgR57n9RUKhU5Md4lEogdASiaTL1RWVh6FUc34qmK/UgmCzJwTxFKqz+Dg4Oqenh6i4M4DgCzwRAGQZT+vNADJbCLQcX9bliSzmzXFaSEqA5koOGbIvGTqEhOhngACn5h5UGYoIrER6qncclEKRyzCBRurIFywQqFom2vOY8b/m7/5m6HSUTYKXW8Zh4DLnSG7bGguE1uxay24RvXhYhML93+ZFpVFgTqhtJkMABgwUcKvASLMnUwMOMY5tI18SChnouMAJBQ2i1rf9773heDDdW95y1tCoALUMNfhR0PJE7QAk6W9+U3AA2XkuV/5yldC4MMvpdDtmSCCn3ouoKEkthoTlJF1Scrh5wDArC+K+uuYxgggCBjypo4A0ubNm0PGxvM1yZB5mLZQNgrKQpkVkq7wc5dx2zabaRPcUDlcUYVCAaY0HARBRy6XO1pWVtY7OTm5r66u7nsTExNHFy9ePITfKQ4vLyXtHV3WkmJA/f39bceOHWMh6oViQJbxuCDk2q2j2E+UIl5Is9pZuwsu84GQjXzjWfL9aHGifECUjQFt1wHJ3s89UFL4IbRbKs8VYxHIqS7HY4Zzz+W+WuuCQsOc9Ad/8AfhTF/PVJ0UGm9nyMfDgizgRJntXLY0H4OdjyGJ2cmMKUUqVgq4o0SpN6wEoABQMJ0hf+0SS7nFWGEC+PDYMwm/0IoVK0IFDUvifK4HnAA1FPy//uu/huAEq/y1X/u1cIExgMgzfuM3fsP7p3/6pxCEALhDhw6F91aQAf0BQHCBCTnJNGflb5mP2s7KdGYR7OzeU5hceQbtionusssuC8FIGxRSV66nnyIr6qPnarzZyclcbNuy3JkJXC6RSEzn83lAaXxiYqKjuroaRnS0UChsT6fTT6dSqcOVlZUAEtF88aaAC1Fep9E5JQVAY2NjrUeOHLnb87wtLgNyTW8WbOwxDUA7OIrN/t2BG6UcBT7FGJCNWtL9LABp9igQQnETWi0fEApAACSlQx20Mp8ZtRajSglqVo/Sk2mJaxwbfdHFqi4DUrkV5o3yISO2WJBMcFJonC+TIeVcCAOysraKyI6VKFPdXAAbMcuene3rmJQldZC5ShnJ6SMK7JB/TmHbmLd4w4gACkABn5HC4rkOhkCZ+eR6TFpbtmwJzVoAGT6iK664wvvnf/7nkM2i3AEm7ol/iXBw/En4owCr97///aH/CL+NctfBzgBG2IraWNkyKJ8mBNYcbNmIfHBR/4ltcy1sSiZIgBUTYnt7e8gGkRdl4jwFLshvKJnq/vY5fBfwW2bujk3uyXn9/f35qqoqfElE442xMWChUOhIpVIH0un0tkQi8WwQBOzDNExo+WmkZ+OiFJFASQHQ8PBwY3d3992FQuFS6wNSRy7m/7GmOHcgFJuRWaUZxQgs65mLAVlgsmBlQcgNQhAAUR8c29aermgpZuSUi+24UU6yu9tZLzNjftvyWxByzSJRbFDnKP0McuFZmJlQjmxQJwUhdsYz5CDXPV3wiDLDzQdU7vGoPj0XI4qqn5iCBUDqyv9KmaMFohZgFUgCsCBn2gNA4Q3D2bNnTwhMMB6eK9nAFMS6uA4/EACCuY3w7a1bt3qf+tSnQsVO2/+3//bfwjbkN6YwAAgAwIy3cuXKELjkh3rkkUdmy015AAU+rX/L+mSos/qnlaUNDKFtYVcKcKD8vGC/mGIBU5ncmCyp7cWa1M5W9nYMast3e57tly6TY2wgB9hOPp8v5PP5EJBmdqo9EgTB0WQyif/o+xUVFS+Ul5f3zZjrYnZ0GsJgSQHQwMBAfV9f3x2FQuGqVCrFjgyzylm2bxds5vL9RIFPFNhEKXANGBdgLOORknLByvp+tAYIEFKkFT4gWA3XYbbRLFZ1UQ4yysVMGGXEbNcyJbEky+7c/hfFdFxGYZWuFAPPYsaNyQifBTNjGyUlRqRFl/MBi+Tjsh2Xsbksaa7xFAVEUQDEPQQO8leo3QT8YpRcLwUrJQ1IYXpSnfWde8FiaEui38RqtMeTTGbyIwFcr3vd68I1RbQvZljYDeZORaphaoVlrVu3znvooYe8t7/97SHAYZ5jUTJg8Uu/9EvholmOUxbqID+d5GzrYQHAtoNkr0AIRcMJWAAi+iYLcC+88MLZBbYKK6f+1M1loRqfagvL0KPGmVio+jHjQj4qTXxmyh0CEjsC4kcKgoAQ8P2FQuGFdDr9aDqdfqGmpqZrJkQ8Tk10moBRSQHQ0aNHK0dHRz8dBMHbUy8j0E8BUBQDktKU8rYDwFXAUYzAnam7StCyGpfhuMcsOMnWrlxgzKRRJvxmRozyYoARaaVQbJSFwoYFYgzIRx99NDTpqG6cI/OJO+MtZrJyFbbLXKSIuJ5yoVwoD2a4Sy+9NFTi/D+Tu2x2wWwx5jMXA5KMTwaAXMVngbhYXdV/OC5Tm6uU3Zk8gAIAWyYhRsszFZFI29KugArMCNYKoCj7hULBaTdkyzodQqFR9MgWNnTRRRd5zzzzjHf55Zd7d999t/dbv/VbIeP6whe+EEbSvetd7/Le/e53ezAhsnvTJ5SJW/KQQqdemiBETQAEUjpHyl5BCMgHAMIvxCLcjRs3ho/gOhuRqcmTZT2unG00q6sX1X9lCuU3Y4Owccqt4xrfGhcsqi0UCvlkMgkmDefzefxGP06lUg9VVFQ8VVVVddjzPEx1MRi9hmBUUgAUBIH/E9PG//hJSpD/nkqlMjIvzeX/QbbFgg+KMaAoFhQFPBqkUSzIKiTNqPWflBufiliD/cjhjbJCUWF2QRFh2qAO8iVoQzqBF4smcU7rZQMALACpvFIU+h3FFuw5Aj2lheH5MgFiBvrt3/7tcKbOs1CY2pGUMhdjP/OZ5KLYThQgLXTsuMDhArHKKrajmblMm2I+1mQnoLftyn04h+fRDlK8AJGSzfIdWQIQMB1C6fEhAUhKJMt95JeSUsdHxD3f8IY3hEAE8BOpx7n0gZ//+Z+fDYSAEcGOBY4yK9J2/MdLrMYFfNs23JvzNNYou1iVziMoATZGH9C52p5CctXkyPXHWtOxnfRozPIMWKaAnvNhlPjT6GvuJM+2swCKbA688vk8oDSB7ygIgu2+799fX1///Uwmc9j3fULB49erLIGSAiBkc/DgwdtGR0f/raKioi6ZTIbll/nNzqzUEbWS2zIgy3TsAIlSxFZpu0rTKlcLQtb0FmWS4z/5FRhQKHMGNoDD/wARfgRmzEQZ4W/B7i0lIiZE2biWtSdkReBlTSBShgvpU8VYgWUO7n24BsVAeppf/uVfDmfDKFEUhkDK+q9kztMaKClZPUPKRArcBS/7fMnVzqzt8WJtaZUcz7HrZCzo6v6SoYBc19t2tWUwSm82z52tl47retodpU2bA0jM7ml72hR/B7LSNh3qqyh3+gSmOfoHjIh+gC+I+8OWCGxgnZhC9qknYd5cg8kOk6Ddt0iTC57FS/4vGyQQNWkQo6IMpCYCFLiHUgy5k0QBkT5t0IJkrfa3oKX/qAegzTOYnFlwtJM+TRh4vp0AOpPBKcAokUhgpvtcVVXVD8rKyoiyIww89hktRHGc5DklB0A/yQV34bFjx+5MpVKrMpnMLAAJhGwHt981EKyycJWXy4hc2UYBkDsDcxWMy35kIpAJTjnCGFAoc37zyYwYQOJ8lA3hvLz4rS0ZeBbXofSffPLJcGYoEOJ/ZWier48UU9aaGVvFrHtJdpSHcl555ZWhQ12zYPkWLEvQfaQo1CYCJKt4LMDYctiyRAGsq+xdgBEgynyLAtPLmnNkFuK42jQKEF2wVFnVV6xStWWzAMY1yEDpmNQXkCsZFWA5gJKyJXA+bEoLQ1H2b3zjG0MWTDj37/7u74bBCbAinkNbELhwww03hCHhANALL7wQ7gYrUy+siAmP1hSpnwr0XLnaPjWTcy70P61fvz68h4JWrPXBtUTw2war2AmkO2GkPAI7wBrTo1i3HYMa82ozTSDd8uu3rAhBEJBYdV8qlfpWOp2+P5lM7q2oqGAx3nRspptPg5z48ZIDILblJh1PLpe7rLKy0tes2vqDokDIpf4LAZ8oxWxBKEqhzAVAAiPXBIci0U6mABCKh1mewIgQWGavcvaL5YhJYbJj9kxINmW2s3XL4Ip1k7nYj1Ww9jwLQKoXmQBY/Y/fSqYsAYAAVwpNCkUAoPvZ4xaQBL4CK9VFIcf2elfpqD9YcNC9XUASGKi8Fuyj5BfFCixgWgByn69Zuupm76U+op1XARzamJQ/TDSUS45+Q/+A0fBCHsgfUMKMy30IEsBcR/46fDg8h/vhPwSoiKTUglVkBRDZett+HjUZUD0IMX/ve98bmoyLjUcXhCRv9Vkl3pUJVAxMUXj8ZlxQNxi3oj5lURBIqZy2L9gJhGTNcWuNIAN4oVDoCoLgx77vf72mpub7hULhUHV1NWuNyFcX+4xOHG/+nytLDoCCICg/cODA/x4dHf3V6urq0MlglYil7fb7QgBoLgakY8VmUgIeF4CkiC0TosNr5sVgsgDE/wAQ0VMaGDwbBoSi4f42rJZjXI9CYbsAKR0N3CgQdRWk2yvmAiQ7sPUdZcWslGei7G688cbQYc7/coJb1kMdxCykkCzAWCZiZ8i2fWwZLaBLGQqoxAAoi0LYKafS29j2sjNwyiPlZBWXnqv2LKaopeCKsSb1I8qke9lr9B9lpW3VFxQtqVB9PvEh8T9MmL4jeSjZKMwH8JE5WmXiPK4H5Fj8SnCEJj2Y9txtPVywdfsNjJvACBKcAkJiQXZCWAyAZAKkjMhU7Nj64jTZoBywPUxwChHXeLJjXm3oAqj6msDP1oNzZ2SNz2gykUjsJaQ7lUo9kEqlfjyzEHbM9327x9IpVMln161KDoBoniNHjryvr6/vn6uqqspsh5svKi7KD+T6gIopbLeTukBkTSpWqUXZnwVA+lQOOPmAxIA4jiJAQWC7Z2YrYLFKmu9aYU9uMRSWgHm++swHNsVYoP5XdBxKQ9tVEybMAkuc0yhBLWAUGEuRKXLOKgSXyej+UqpagIuZiu+YYpAXn7BGlDBvAFHbH6AYMQsB4PjScGAjS5Qk/1N25CznPM+S/OQkF9haU6/1Obiza/WPhZgJ7Wx8romOQvY1q1dgA/Wnvqw9ku+I/2AIrCvC7CaglN+HZ0r+fOd6IucI6aePwbAUIq66RwEQih8Q0KJnAiUwxSn0m2dEmd7sxEPjRTLnGo1ljW+VV0CFWZK2wzxtLQvqY7adohhcsYmkneSIKZIiKJ/P98OK0un0Q5lM5ntlZWV7KioqoJ2xv+gkMLMkAaivr++So0eP3pNOp5eog6vD2U/3u5Sb/YwCpbnk6XZmKaEoBmRntq75TavtxXgUiMAAEgDxnfU2KHaUJSCkWaBMErovZZYvSBmyNQNVfaLAZD4Aol6Sl5WLvQ7lo1BxbQlOOZl1s2Ie8yHKkLrIZKIIMTEW7qc1JpIBMrEgra3KFcaM2QnZWBlYZacZrp0EiEHK1EPZeOMjIdUNgImSRvkqkkvMQWY5y4I0y7afVlFbQImaxFiActmVq5gF1AIg5a0Tm+R8mDMmNJnmaBcUNQCr7ARS5vQzQBfgpt6Azr333hsyaa5ZCAOirQB4wFC+INI0EUIuP5qdJEaxIduX1NcEQGovlVlh4ZgPeSYLYvWSSdpG1s3FQC1Dks/Ltp36vtj0DLjBfvYlk8lHPc97uK6u7sVMJnOEDN6xee74kagkAWh8fHzF/v37H8jn8+sZQHRadVi7psDOgoqZ4OxMzAJTlCijZoCuic1lPwIsdXA7k0ehoUQY6HIqc1x5x+zAVWJIa35DUSqUlsGPgkaJEJDAd2XJjlKSCwEjzXznAiDkz7NQQihqu/IeRQjQkrLl/PPPD5U85hmitLgnMlGSU62dQalwP0xDXM+snt8EZSj6iTbT88Rg1TYWbKPKbScKZoYbXsY9KRuABHjCHDDz8B9vLVi1StQ+1y1DlPKzbEIKDjlYxqrfdvbPd/qGUhvJt6b+h6wov+5D3+Jc+g19Q/K2vhTkqhx/yBHZY9q6/fbbw8WsFhyj+r6eJVDgN+ViPRJRce74iwKfKJOcOw4VySY2zDUwNiYimHwtg9Q4k06QLN220bi0Zbd9J8osqsnSDBOdKhQK3el0+sl0Ov1geXn5s5WVlUQBsbYoztq9QCwqSQAKgqDhxz/+8TcmJiZez8wuCoBcCu/+ViePMsG5MzKrNPRd8lVotMuArLnJzsD5X9FOXCv/j1K6cEypXRhwSsmC+UgvKQaUB/dA8Sj8mYGJkxoQspusCYSsUtZM2g48t99IFjrXDmT+o9woZzERmW10vmalnEd5YUIoeK7hN8qRY5QbgIHVCDytD8G2sdrMAmQxZW8ZSBQg0S/kP5B5U4tDqSsmO0CTEGeFMdMWKHbAV/nebPtbGVoZC3Asi5ZS1THbv6yDnfsIAN2+J8c79VCGcoU3C6yVTZvyyk+kbRR4tsKZATJC+omgU7i/Cz62D8hHpefwfIJRyJCgcPy5gMeOQ51nmYl8QYwbu8CV5xDJx7boFsCt/CiTa/a1/cTKXMAlUOXTMmvbZvrOOePj44ANO7/+MJVKfaesrGxbOp3eUVlZSSaGl23h8auoBEoVgKr37Nnz5dHR0Zu1KFNO5SgmZJmE+93OtqK+F5v5WZ9PlKnNNc1ZE5wASGCj8GsULspBazEoD4qEt1bFcx/NGvVdg47BJn8Q0U0sRJSpy9bNBREN+LmA6HjHkMsMXIDWILZgYstoZ8Z2wLu+A1fBz1eHKKZUrI25lwnTDRUypinCf8WQ8CeJIdlAB12rcHT57ASIUniaTKhfujN4W3cL6lKUtp9F1c1tW1cB6z7yL1Fftvi44447ZlP5WOUbNUGxTI7xp8XJyhtnTeEWcFR3gYzKatvYThAVsME98HkSEYif0b4sGxKIRB2P6p8WvHSNla+Ou2A002ZsZz6Yz+d3ZTIZGNFT5eXlz1dUVLDxXgxERRRIqQJQxe7duz87Ojr6DgGPBSA6tHV+WtCZyxSnAVBMWVtFpU5o2Y0LSlbpChw4RzNVRTTJBCdGZIMI+I9ZKUpOUXBSGvIH2cEixce6EcworAuRD0POdckmyjxhGc/xgs5ciiBKyVvlamVfTGna+1tmM1c5LZstdt5cAGQBkutpG7UPcgSA8J8QpchbDA/nuLYqkOJS/xCbU0ixnq++aeVi+5BVgOoDlpnqOrfO7m97fzvLF5th+/EvfelLIbvmbRWzC3Jum/MsZEA0HP3VTgitv9XWdaEAJIbKtQKgCy644KeS7aqsFujddp+vL1oQc9siqi2teX2GcWGG2x8EwQO+7z9eW1v7eFVVVZ/v+y9Ht8SvWQmUKgCV7dq161Ojo6PvUsimDbG1fiAN1Ch/UBQbckFIknJnTFEMqBgARZngtPePXYAqQFLosgYc/g/ABnOQdqSkXFoPpDJbUMSkhR8FFsQnvxVdJCCS/d8qGBcITnSsRCmqKDCwg90FFatQNVu2/hHLfopdK5/ZfPUopli5r+QlZWrLYNeQUEaCRbQHEKyVNiPijtxl/FauPKVg0kZ4Fgh4pkyXUs7WoS+FJ1blAtNC6urO4vktk692aeU/u6HdfPflOGWizgAQIKxoOGsCtyyIaxYCQDpPn1gN8A+ySV6xCaPbr+cC0iigcceVlbOVn207zpGfd3p6eqRQKOwtLy//elVV1QM1NTU/8H2f7cbj14wEShWAMnv27PnE8PDwr7gApJmVOrz72wUddX79r05nP10QsrNSgY4bjBBlllM0jWVAWnchvwMDXvZ4+QdY24Oiw+/ArJLIJj1XzmjVQ/8ruAGfChmUcdjKAS2/lQUgCw4LYQ3zjaBiCt39X8rDvZ+dpdpzoq6Pah8pC5fBuM8pxqT0P9cr0EN9SYrWKiiVUc5/KUpljcZsBzPgE4CS6U79l3pFPUcKTf3Lln8uuczVPlZ5cp7CsSk7ip1IOHyIMgcXY8Xcxz2myM0PfehDYX1lIrcAxDOj2JDkGWWC0zV8AmoCIJKg2ntFgY6VRTH2417n9rMowNY5FoDsRMlEz8tarmgAACAASURBVB0LgmBbMpn8akVFxQP19fUdcaDCy61SsgC0d+/efxsaGvpla4JzQ7IZHDI/WUCyMyYddztxMSXsznwERq4pzmVDMsEpCEEMqBgAKSRZqXaUD4wZNjNMsSMNLoUV6zfPV5ofQIjsy6ydwHQhRWpNQnbQW4V+omBkmY0LEMXubxWaVe5WgQhQJHcNeKtA5lKYCwEgF4zFeKIAyIIRxzX7Vd+TEqK8HAeQYEKwIiYUhBETaUfEnbbe4FwxK1tfycTKby7mFgVCVgGrLwuAqCeBIP/+7/8ericipNuyrGIM1sqb8zE9fuADH5hdf2QtEhbYLROyvh7bFy3I6rsAiIkV+xEdDwCpn0TJLQqc3PNdIFKEnp0g2HPEnsnMPT09zfYQ92UymTtbWlqe8n3/5cR7Z/GrVAGoYs+ePZ8bHR19uwY6nVJgZP08UYyoGADZQTBXn1AHi2I5UUCk/6SMtJhSwQjWB6TFqAIga6rDF8QLFsQg1ypw/pMJkrqJDWk2znMww+ETggkRZSaFqE8xQJcRnCwAzTe2uL878G37uLN1F4Ds/a0iLMZs5iuPq+SlYATWul5KT+XT/wqVluLWeZYB2IXITCZoT8xVMtkRbYcjX1txcG9NXKTQ9DwXLBdSPxeEpGQpIxMVtgDX9hHW3OjKWpMAyUhloW+ylThmRy1CtiZE277qd8cLQJSP9W6EYbv9ZT4ZFAOaKGBX/7SAZfukPS552E87vrLZbDAxMTEQBMFj1dXV/9bY2PjQ2Q5CpQpA1Xv37r1zdHT0evl2bA4pt1Or89tB4CoGdxY1Xye2DEcdTrMgsR3LjvSflI+yICv3m2uCE6ByD62RYdBhouM/wp1RXrwou9Z6CIz4T6Y2+ZYI1WZmy5vv8jNI6VoQsjPP+WQx30zbPb4QULPnWCXvKoIotuOCggWVYuwoCsj4Dxmqj1lQU3vKBKpnWsbD+fy2/dHO+rm/G6WoxZzaDwglzgJkfos1ab2PWK4rX1dGLqgKcHQd95H/hwg4tnLQUgABULE25Djjyga4AEC/+qu/Gprg6KcKCrLmbgsallnaPkg93D5JOZARkzEiPdnEz+1Puq5Yv3X7U9T1kpGdINn7uUzIytQCENfbyUsulyNabrxQKDwWBME/t7W1EagwcSJj7Ey4plQBaPG+ffseHBsb20zntQEI7uyK3xoAMtHZgeD6ihbaqC4Lmov5WKexAAhmI9CB9SgzAt9RSpbRYe+WYuM74MELP4KYEjNNmaNUJ0Uwca2itwAwTCssOMS3pJBvF4SsY3ihMnEH6EKus8piLjbEfi6FQoHFfwOe5w0FQTBBeGsikSBbcX7Gps5pyXw+n8rlcpkgCKoSiUS97/sNvu9X2b4RpZSjgEqmTgGOCyD8LwXqKiUpIs3u1fb0B9tvraJVO/Mc+gBggxLH9ApTwn/ENuiY7AAm3q7yiwLsYqAvsKKesGPWAD377LOz/cVtkygApw8qGwM+H8yMv/IrvxL6u8SAFABjJ3pWllEMKAqAuIZ7MQYAINYBRfW7+eprWdBcAOSCtZ2EcA9rgrPlkD6QWVZMiP+npqaCycnJ8enpaZjQ/25paYEJnZWh2iUJQBMTE6v379//3Xw+v9ICjFWa6mAMaAYxA0EOUbfjC6AWojB1ju5vgxCsqc0yJO0mqfBdsRiZ2wAVbVImR7TKSJm1VTfP5h6Y0LR5XVvbytkdM1Um2fTp/FG+KGUb4B779++d3QjNMinNfJENClAgJkViyym5iwGq7NZ3IuWuMnGu68fSYNdgTSQSOUwWhUKhJ5PJHFi2bNkPN2zYsGP58uXHampqiCaaKi8vny4vLy/MAFSQSCT8fD6fGBoaKhsZGanevXt3w5EjR1YfPXr0wmw2uyKRSLT4vt/o+34N+0lZALFtqzoocEOMMorRCGi43prmBDS2XpxrWZJMderHmjzYa6ypF1CCYRCWT7vIpwQgYbZjUgJQ0d+1bsY4w2cXbdoxwHmY3h544AFv27ZtIbvgmdp8br5xocXEmggCijAglYM6yUIR5d9xWY4FOXu+vlMf+i4m5Ysvvnh2UzqVMwp8LCu0oCKAtYDkTk7ca91+4l5rJwAaA+5/gNDU1NTosWPHvrV8+fK/bmxsJELurNuDqCQBaHh4+A2HDh1iB7Y6zT7tDMsdMHR+rbpXJ3b9RAwSt2PNN/A47gKQBrtVGjKzAB50RAtEfOdcQEiAJLMPSgTwkqlMDm4UA0qCa1KplxNpKuRVCpVrlPtLDMyC5n8xorHQ8Qwb4lNsS7NvmZ9UTwvyUsp2VmiZlL5L6UpBazDKfIV8eCWTScwTY9lstq+srOxwVVXVi+edd94zzc3NHevXrz+6YsWK3rKyspHly5ezOIU1FUGxQcvuudzywIED7N5eeejQoUVdXV1Nhw4dWtrR0dF++PDh1w0ODq6oqKhoLRQKiwuFQuXMNbOMQjNcAaLqrvJTb2UeQF68ZPYUoBRTfPpfLNVVwvYZ6oduO0p5agIlpkQwgzargzHhKyTggbfCvpE5zyanGuCDP4U0TkryqslEMeXrKnuxFeTAM0nHQzmUMsn6Z6OsFC4zsv3IsiOZtGBAMDYLQCqDHbeWwbmTR3veQhiRqw/0vLkASGCn8aPyzCwwLwwNDfWUlZX9x5IlS/6+pqamZyE650w6pyQBqLOz84P9/f3/4Pt+SjNGl+KrA1sfkRSI/rMgFKVEozpc1OzImt9kqrF+IAY699faD7EHhVzzPzM65flSEk6ARcpFzEcZnhU9Nzg0EoIGiTSxuSvlCgMeQEMudvYl0JT5bzr78vbQXAezUjZp/E2co1BtPqW8OF8DSsc1CN3Zp5iOFKxASyCbz+eHC4UCi/Q6KysrDy5evPiZ9vb2PRdccMHRjRs3dmUymaHm5ubszF4sJzVDxDx34MCBdCKRqOjt7W3o7+9vfPzxx5cNDw+f09fXt2lkZGR1Pp9fnkgkmnzfL5fcxNoElJIpdVDCUusrsTKQWdTtS25/i1Lo9vk6332OfC9qDwuWYphRZmqrGOWPlHKUOc2yj2JKj2co7Q/nIBty/t16660hCIoVFQMgOyG0wGTHmQV+yQHgZNLEHkRu/7YTn2LmtWJjO6qeJ8KAJF/J1AKQJir0n9HR0fz4+PhL5eXlH1uzZs0dZ5spruQACLv+wYMHPzk6OvoLmFCiAMgOHBuA4LIfHbOdvZgiLTYArYlLphiBj52x0hEVTKAV5trxVFsHcD6DGTDgfCVahZlwTwY0Ck9MieOFwA9nsTAimWQUZcdvsS07uMWowlDfHLr9vxbPKShCWxoARDzPsgGUisomH5KAUjNUKUopgFwul8/lcpjN2NhrMJPJ9FZWVu5ra2t7auXKlYfWr1/f3dLS0ldVVTXS3t5OeOorvvmXAMnzvPKxsbHagwcPLtm5c+eaffv2bent7T1/YmJiaRAES4IgWMy6X7Uv8lK/o342ZFp+Rp0rZu3Okl3AiZrYuP3SylSTJ01urCnJKmR9t5/22QJRAYk1OcrcONeMm+vo12KzlOvaa6/1LrnkkpABaYy5JjiX8RRjQJK16qd+TCANfZ4kt7ZuUea3YuWfj93puhMFIPtcF4A0Bhlvx44dGysUCnevWLHiL2pra3edSQxnvrqUHACRCfvIkSN3TU9Pb06lUr5MHVFAw7GowAMNXl1bbPBb4UV1bKtUpHAEOpYVaYAo9xu/Gfjy+0jB8xuw4YWC53yAgPMBJZgOAxlzG28Apqz85R0uxSxY80PItRiOZu/WFq0yhuwk8V8hvjbiS4tlOVfRd5RPoEkZeUYIgoXCrBJgvUMQBGOJRGIgkUgcSyaTx6qrqzsbGhq2NzU17WppaTnW2to60tjYOLx48eLBqqqqsdbWVmxwBBK8prtNAkgEWXV0dFR2dXXVd3R0LDp8+PDigwcPburs7HxdLpc7JwiCtsnJycW5XC6BbGXyFCBJsUhxWtOu7U9WqRVTmtZ8ZAHGZTtSyrYf655iba7vxVWO9p66T5SPzlUoFhjk63nHO94R+qMInCi2Tk+MWM+azwSnfqx6kXCX7zB/lwFFscuFgo3bRrYN3Lq7JjixHvtZDMRkTqd9xsbGgpGRkQNVVVX/sHbt2k+fTdkSSg6Ajh07dmVvb+9XCoUCewHNMiABkOvbsYtT56L7UUjtKgmrKKx5hGtdM5xYkDqjkorKLMb5Co9WwkutvaDMgEFnZ2eOaLXR0VEUo49Jjv+5h5JiXrj5onAxo8xogBIgRKJGmBUMyI3gUucPZ7jefyU3texPgCpzjFVoWr8kO3YikRhLJpMdyWTyUG1t7Y7W1tYfrFix4mBjY+NAU1PTcF1d3WgikZhobm4GaAAZ3kX9N/PNml6N4zP+IMZHorOzMzMwMFC7Y8eOJbt27VrT3d39+pGRkfZcLrd6fHy8bXp6uimXy/3UWBIjVEZy17xkWYirMKXY1K/stcVMSvYedhIkE6n6p6vwxaBkKhMLF+OdT9YqK8/X5Iht2RUkoSg4AZGA2gXEYgAk/48FQ55JGh7WTTERm4sBzQc8VtZRE4STBaCo+/OffMVa5zc8PDw5NTX1jZ9EDv6PlpaWH80n9zPleMkBUHd39+/29/f/VSKRKNegEeioc9tObv0+mnVZkIoyjbhAMxcTck0fGujWFyS2gOIGZPClCIDk9LUb0nHe+Ph41+Tk5ENjY2NHenp6VgwPD69KpVKtyWSyaXJysmJqio0Y/dAEx2pwsjMT9qo9gmbsy2HKeq3pkGNZii1URgaArJKSjDS4LYPiPul0ulBVVTXo+/6zy5cvv3vt2rVPLFmypKuiogJ2gwktBJnTHWiOZyAHQcAW8ImOjo706Oho5a5duxpfeOGFtsHBweuOHTt23vj4+OpcLrd0enp6kY0IjOo/6mOWvdiZvP6XD0kMxQUuxoCNqrMWAa6VT1DtqQmRygcwaELCMxTWr/5ZjJ3ZctDX6He8WRh61VVXheyc33MBkMBF49IFaf1PWTSmpbx37doVhqMr4WsUo3SZ0VxtPRewL9QEF8V8KHuUDNVmJi1X0NfXt6+2tvZ/rV+//nNniy+opAAoCILqI0eOfGpwcPBthDZpsNCRXdCxIKMO4AKVBoA1P7izTat4o2atOm6ptjXHaYM2+QkAIO3jI58QnwqrpmMODAxky8vLv7Fx48a/WrNmzUsjIyMV3d3d9d3d3URxnXv48OHLBgYGNmWz2VWZsormfD6fRBbsWcN22Jg+BETIhWSmMCk+ef5PLa70XjafaWasAa56WdY4M4vFl3OgoqLisZaWlnsvvPDCpzZt2tTFmsqzLYzUsKTk008/XdvZ2dm8f//+9YcPH762r6/vgqmpqZXZbBYfUqUFd9uPpKBcFuQGAFjAspMC+79tQ/Vp9XEX3HSulKbuIxMi1ymMey7FrQWsMrfh/2FCBAAp+lSmOWuN0MTQAm0xAKK/KshI5QOACHaICrKZawJZrC6vFABZ8LJsSOOMT3xZjNcjR46Q6uRT7e3tf11bW8t232f8q6QAaHx8fHlfX9/t2Wz2Muz1dBplhNaAUSfXwMJMxHl0YpmjOCZ/jMJm+VSUGiAgf4c6PvcQq1HWAe4Hm9FA0zojyiKnKyGwvGSSEfuQgp+cmp4ti9YDjY2NjS9atOjzWy7a/JHGxka2+/2pFzPxQ4cO1XV2drY988wzNw0NDV3heR4RXGuz2Wxm2bJl/rnnnuvX1taG7Svz5IzDM4wewkynKDw7K87n8yEapVIp1tQE2Wy2UFZW1p3L5TqmpqY6lyxZ8oPXve51X9m0aVPHkiVLRs/4EXICFaRvPvvss4sOHDjQvHv37o39/f2X9vX1nZfNZtfkcrmWfD5fMT097WezWT+Tyfgyg4nt8Eh9l9JygcROqmwRo5iAOzNfiFlK95RvUZM3AVvIvs2CWu6J3+eWW24JJ0CEfHPczYTgmsijAMiCo5WDzImMTQDI3QuomBwW0oTFAGi+a11ZLvS3zpOu4XNwcDA/MTHxQGNj45+uXLny2fmefSYcLykAGhkZ2Xj48OHbC4XCeZlMJnQC05CwByLBurq6Zrdulv8Dpa7V5PpkUChqh0gdBguf2K0ZPIAGAMK9Oc+aAmS6wA+jraL5zvOUPRjFrvxuAjvrS7FgWV1TN5tqRVtVj4yMjNUvWvT5S153xf9sbKz8fwDI7XgHDx5c1NnZ2drR0fHGffv2XT8xMbGyoqICRbdo+fLlqfr6+kRNTU2CqEEWalKfGQAOhoaGCoAM4aAjIyP5sbExInIGkslkbyqV6mxsbHxh1apV3127du3hurq6wcbGxtGzjemc7EAPgiD94osvNuzZs2fl9u3br+js7Lx0ampqVaFQWNHf31/HcSYVhULBt32ONnKj6KScxZBcBq6yzmc6c0GpWB3FnAQcCvvW/ZmEaVfim266KWThjBnGFC+brd5aKaxJUN+tOdKWX/9rXRsAxNolJSI9GeCx17osdKEymuv5xQCpCAChN3bX19f/1dq1a//T9/2XF8idwa+SAiDs7D/4wQ++3NHRseHw4cOJo0ePzq7a1qxR61UAGzo8gGIDFGQj1+6VDB6bDBIgwsHPcTsTtQMCxUA6GxbuAUL6DpVWtBqApAwGPB9Qoyw8T+DH/YdHxn7qPMCxvLx8ZOO553zmpptu/KvjXZy2f//++sHBwfrOzs6Vw8PDW44ePXpOoVBoSSaTizKZTG0qlapOJBKZsrKybCaTGSkvL2cNTpfv+wfT6fTuysrKQ/X19T0NDQ0DlZWVIw0NDQDOaxqddiaNP8DmyJEjtfiPdu7ceWFXV9dVx44d2zw0NLR+cnKyZnp6Ok0mB/llbHizZQZRijPq+PGwnSg5WxOh9UOJkXGN8hK++c1vDseSfD+yUIj9W3+sNcFZM6/qYMebnoUsYPHa36q9vX2WKZ5oH4kKEtC95pOd+8yo8+cDIGSqaFh0xsjIyLF0Ov2PbW1tf9/Q0MCShTP6VVIAtG3btjf9x3/8x6e7urqWLFmyxCcZJ53d2sTdgamOLBASAOEc5Q0wAAqssSGqhrdWjGsGJFMDv1EMDAKAh5BpTFn6DgDhY1HYssx+DCCeBbDxLJnquF9lVc2sX4ZjvPP5/EhL85LPvP71l3y0ubm5+0R7ID6Kjo6O8vHx8arJycny0dHRslwuVzk0NFSeyWSyFRUVw0uXLh2tq6ubaGpqmoz3KDlRSZ/4df39/bXPPffcyhdffHFrb2/vleQ3nJiYaJyYmKjIZrNJZcqwpi8LNC5TUJ/VmFhIGPhcpRcAWSYk85smaIyZyy+/PMx+TR/nzTk2QbBdKO76Z2VhsEEJ1sQoMyB1YUy99NJLYXJW3lGv4wUO3eNUMKD5QEllswxIpn+sNSMjI5PZbPbza9eu/cjixYsPn3jPKo0rSwqAYEB33XXXnT09PWtRrgwOTF0adBoQNiiBTkVjyy+jAakABmZsDBgBEAwIpgKDch3BPA+FwIwFkGHGAgsCeOzCTTEhG3XGYNTgBIwUljoyOh7ayvnNTJLX+Pj4cOvSpf9+9Ruv+NjJAFBpdMG4lDP9N/XEE08079y58/Kenp7rR0ZGriTycWpqiojHkCXT72QCk9QsE7EmLAsYdny43+eTvhiCFqXST+mv8q0yTlgMSvAB5yr6jXGm/hzFgFwQ0lizgQj6zvVKeUQ5Hn300TAJKePpRMFG9T6VDGg+8LGytwCkZRi078jISGF4ePj+pUuX/tmqVat+MF/7lPrxkgKg3t7eDffee+/Xe3p61uHEVXSMnQXSsNZUgLIXEAh0FJWjfGf4XmBTgBCdWolL5f8RsHFfFAFvARAAiAmONx2IgcJMhuN0LPl7lKVAGQQUFZXOvLyQUwNwJhji2Lr29n+85Zab/s73/ZFS72Rx+Y9PAtu2bWvcsWPHVV1dXb+Wz+evnZqaStPP1PcUVq8M6lJmduJlFexcLMEdO+656psK1mHsKD8hbB3w4c16HCX95R6W/cj64PqALPMpBkA8X6Hm3JO6P/74494b3/jGWd/sQhT/QlrgRBjQfPIrVja1maJjFQRFO/f09Dze2tr6p+3t7d9dSLlL+ZySAqDBwcHVd955593k7dJKdGWaVud2ZzYCHw1OOrHe8hEBCjAhTAkKSlD0mmYt6miKWoHlKAgBm7SiysSOlEtNsz/5gARwMklkp/P/T3bkfD4/2L5u3b/ectMNH/N9/4y3A5fyAHqlyh4EQeqRRx65ZufOnZ8gulHrRpQqST5Ghe8LjOyyAZScNcEVM9fZOlhGwXeeq4XRYkH8zzhZtWpVuB8P+xQx2ZLv1EZ8qp/baFI3Es4NQrAsSACoczB7s7PvBRdcELIfWThOtB3mY0DzBXMcLwNzTXDKC6nMJUxge3p6nmtqavrwunXr7j/T/a8lBUDHjh1bcf/999/Z19eHnTyMgtNsjI4qsLHrDuR3YcAAMpjXlKp+xtwV3oOOodT2cqSK+dj7ch7nY3JjMOgNCAE6sB9rgtNsEADi/lofMZsiKJWZXaimbAajo6OTy9uWf/mG66/7i+bm5n0nOrji60pbAgMDA/Vf/vKX/zEIgncJTAQoyicoVqQtOuh/KDHNrKXwpEitco8yCbkKUotMBYD0W/rw+vXrQ/BRZKnMYQo80CfPKGaCkz/WMiHXBKcyMmmkLAQecQ7+Jl7FogAX2vKufFzm+GoBkDIiAEhdXV0v/MTH/Rfr1q37+pnuly0pABoeHt5w1113fam7u/t8GJAyQytSiE6KGQ0A4ROzGvujADiyTSt0Wx1LMxBMaAAHA0n7mLjnqsPzXJndAB5dixLQtgrMTGUKJOgAc4VCvJXBgYEZeCyu92ZBaIZZFWqqa765deuNf7Jp0/rnFzqY4vPOLAmwnuiOO+747aGhof9FdBx9lYmUNbWhlOWbFBhhxlEgDJ9a06a8cIpAEzhYk7UYhda88SxN7ujHKH7Cn0n/RH8WMNo+bRmOmE+U+U0AZM+3Y4HjYl+aVGJ+g/3wv9YFvZqtPhfjiTrmMjT9lo8OOWuJBu3Eu6+vj7yJf9ne3n7nmR6KXRIAFAQBMdF1AwMD133961///w4ePEjKfB9WwQwMEwADkzeAo31ItG7ANc/Z0FJ1Xvl0ZJaTA9Wl6AqbhPnAguYDIM0EBUBiQLKLWwDiWQDX4OBgUFNb8+0brr/pjzduXPfcqznA4medPhJgbdBDDz10y969e//9J9s3N2nbA/o3fUXBLFJq8isq+tJu4aGs5lqjZtepWTOzDWQQAPAc/KREnZH+hm0/GHs2o4YFmKjv6u+uuc2e67Iz1Uv7YlHnRx55xLvssstmU/wcrwnsZFrXfdZCTIDFTIQCIDFZG+DU39//UkNDw1+uX7/+azEAnUyLneS1rJnwPK/J87wtvIeGhq567LHHLh8aGsrAcBgQ+G2U+FAzKmtacCm07UT2GB1A7EVmuyh6HgVAgJF8QtyDQS4GxADTNsXWBDcLin5yNpJHADQ0NBTU1tZ+86Ybt/7x+vUxAzrJblSylxPp+aMf/ei8Rx999HNVVVWYncO+BUOHAdCfxDws06DCMpnRX5U8VtF0CpJR9nWUIOcoI4OWJ8i8xrIEJnm8ZR2Qf0hK2K7lifLxzBeAYIFJLIjxSfmZtM1EiHkvvviid+mll4Z+3JP1/5xoxzhZ0BP48CkA4ruCmGIGdKItcwqum0n4WJ3NZsmjtTGdTl+cSqXeWCgU1hcKhZrR0dGEMhWo07qP1UzQzuZsp7YApQHEuRqQDDgGt13/o2s4HyWA2Q0GRPCBTHD8ZmYpE4jCqxnIMCALQCo7DMh2yJmM2EFtTc39N9xw/R9v2LDhh6dArPEtSlQCnZ2dTV/72tf+qbKy8h1kSlB0JX2UcSBGrcAaAZHMxZpkWd+OzD6KvFJaKkVtamdVgIjrtLCUZ2gcyK9jw8I13mQilG/HNbW5/8/lA5IZnOeSfoeyEfwgK8ar2azzAc+JmOBcAJrRQS82Njb+RXt7+90xA3qVWhgz28TERMvg4ODGycnJ8xKJxCWJRGJTY2PjsvLy8ppCoUCqkrDjafGpBpcckS6Fn6voUvo6h47OACSlD7M8Zdm1LIlrxIBcHxD+H/mAFKatEFIGsrIgSGHMrt/wk7NbOVCWGQAq1NXWfnPr1pv/6Jxz1rzwKjVB/JjTUAJBEJR9/vOf/0BPT89fNjU1VctUTP9Uv1IuQjfCUyY0O/myY8b6IVCEvGzAgJYQ2CCcqHVHdiy57Id7Rq35cRmTBSX7nfN4PnX9zne+E5rfmNDJ/DcfKLwSTXqyz7QTTjFU6RVYan9//wsAUByE8Eq0nnPPmU3AmvL5/MUjIyPXjo6OXhIEwarKysrFNTU1ZUqJoy2oyehMzjdta4DPBzMc5jgGj0wPihayYahR1REDogPQqQEgzHvMLqMYkGuCUxScAEjrNSgf5/J8rQESA1IC1XCWGrxsZhCIzkTRFWpra+/fev21f3TuueeeNXuDvArdreQewfj4zne+84ZHHnnkk8uXL1+vzAhSygp9VmoprXUDjFDe9D0BiYIPrOlKQQZiFAIGMSiZ5SwoWNO0rrf/ydwmsLNg47KdqBBsna/rtQ4I/48WvL4WDRkFPFFmerdsxa7ThNYuRJ0JcHqusbHxz2fCsPOvRV1frWe+pkEIQRCw9J+ItjcVCoXrfd8/J5lM1vm+n1TjkGmAzaew/ZLFWaluFB6qyBxmRuwPr+ABCbAYLdZxgYyAC4DT1teavdl7RQEQbAgAkglODEjgZtcAKRpv1nEcvJxlW+WcScdRqKmpiQHo1RoFp/lzdu/evfy+++77m1wu9/ZMJpNCwaOoABlMccp/KEe/G5GmiDG7OFRKXpkNNAESW+KTPoly1JIBjRGX1dgJlMtkrFnOftfzLShaC4buw7N4/u7du8OysO+Vnn+yTGQhzR7lBoJGjAAAIABJREFUZ5rvua7VJOo5ijwUA9L6wqmpqWBgYODxpqamP123bt3DCyljKZ/zmgAQi+w8z1vqed6lhULh53zfv9L3/SUsoMZ5z9415HviE0aCYlemAQ0GmQIYfAxGQkNvvfXWcFU259BJNHOyszoXmMRS+KQTCICg/NbcoAHpAhDlggW5JjiARLNKAAhFgdkk3Ea7rGzWgZrL/1fmBjruDAMKfUBbt173R+ecc05sgivlEXYKys5E7e677/6F559//qNNTU0tWuNDf6FPKQOBXfSpcaKUUhaUxFDsp4BAEz937Zt8PTLRSXHaHVc14bLjzbIZ17QWxX4EgLqOcgM8mN/e8IY3hJYJq+BPgXiP6xbzgY9uFuV7s/9Z86dlQFNTU7mhoaFvtLS0/Pnq1avP+CUYryoAzUS1ATRbCoXC1iAILvV9f30+n69+7rnnEmwjDdvBxKbtDRQj73ZMdVCAQiyGVPC///u/P5shV07TuXoYHUFAg3mDoALtZ2KvU8fjWTAcRb7ZXHBiZ1qlTtkpQxQDknNV6y004GcWswY1NTXfuummm/4ojoI7Lv1wRp5MYM6uXbvO/8IXvvDxmpqaN8oHQmXtFiMyuwlsrOnNBSABlN1PK2rmbhWuBRPrx9DkTJ8WaMRWxCSU0oeyardUPYO6aBzwXWHnjKPHHnssTL+jAAfL2F7NRl8oAM2ncyQ/m4qH7/39/WO+739u5cqVfx0nIz0FLTvDdtgcpNnzvM2e512BvyeRSLR7nlc9MDCQvu+++8IOBpvAh6JGFpOxHdyl6cosTcddvny598EPftBbsWJF6Hvh3IV0VAtAAAqzSqXiYSBY1mQBCNYDYNlkpDMmtBCklKvOAhDfNeipJ+xNdJwyK4S7urr629ddd90fbdy4MV4HdAr6YanfYnBwcNG99977a3v37v3vLS0ti+hzAhVYtV1fZgGIMaBFnDbAQGxJoGXZSDFZ2bFnAw80PouBlR1f9G/6O+VlnGmSKGARi6KsjB/G3759+0JgwvwmM6A10b3SbXsqQMedzFqmqY0yqe/AwEBvWVnZ/162bNk/xdsxnEDLzgQVlHueV8V2xIVC4aJUKnVhMplc43lee6FQWJ7L5aoymUwagT/99NPeZz7zmdDUJns0nUvsQQBiO4EGAsVT4lAaEYfsL/zCL4R70ms2N18QgpgVnzwTZqOMBVHVZwCIAQFALETVnkAwH62x4BzO5fkywdkgBDEgyqk0HHwHgFEuNTU1D954442Y4LadQDPEl5xhEmAit2vXrovuueeej1ZVVV2nDAj0GWX6UIZ1CzRRABSVtcAuFLVAYydf7v+uYragZMco/yvkW1m0tQ2KspjwfJms7cSTMfTkk0+GaX8YlwoWEoNbyATzVHaF4wWjKHOhwEfyYswrNH5oaGhfTU3Nx9avX/853/enTmXZT8d7nRIT3EymgkXZbJZFo+dms9lzC4XC6kKh0JZOp9vKysqWJJPJMt/3M4VCIYmwGSywh09+8pPe9773vXBGRGPBCGyjuf4bS+9pQJkglJSUXRnf9ra3zebCmq+D6lnq2PiblJBUg9c2nAUg5YMDMAAuAEj54JQ6X1FwWlvkMiCeq9xdlgHV1tY+gAmuvb39rNia93QcHKdbmcgN9/DDD79r9+7df1pTU9NMH2N8yAek3UctAMnPY0GnGABZ/6oARBMla16z4zPKr2EndVxP/1b0nhZmU2ZZLxgDPFsAJDDiHBKPsvspQUaMd/SGWJLMevOZu051Ox4PCM0HQJRNVh8mrUNDQ88TAbd69ep7z/REpGE/OZnGCYIAprN0cnLyymw2e+309HT79PR0ay6Xq8/n8xl8Ps3NzcmysrIkHVFrDdSZf/SjH3n/8i//Eu6pQ2ekk6qT0dGUaFQU3nVy6lxtucA1W7du9X7xF39xNsHofAxIA0xAAKhoa+4o2XAeLEeBB/rUYlSO8bYAJBMcMzg3CEFZcKkLg5BryYRQU1PzzRtuuOG/x0EIJ9NDz6xr5Qt65JFH/nJycvIWAsSoofwpAiDr+7EAFBUlp//sp53k2UAcjT8BjKtcrV9IxwRAWBf4zy6YVTnRCyqnfLIyyT333HPhVg9Lly4NWYLWAGpiGaXgXXPXqe4FpxKAqJP03sjISH58fPzB1tbWD7e1tT19qst9Ot7vhAFodHQUn84tY2Njb83lchflcrnF2tueFCIzr7DzaGCgbMVoaMSHH37Y+/jHPz4btWZnQjKJ2TUF7loFfjNL0uwJ5f6mN73J+7mf+7kFy9p2Jm33a1PxyESgG1oAUnSeTHAwoWIA5DIgC3x2X5eZLAqFurq6e2+88cY/Xrdu3fYFVyY+8YyXQE9PT/XOnTtvfeaZZz6cTCbPkRJnjGktkJi79f24QGPNdRaw3Mg0a4EQ44gy0WlS6SpnBR24wCIWxnUa15QfhazyMJ6ef/75MPrNmtTdCL1XmwGprgvpbFEAaUOwqYsCEQYGBsaDIPjiqlWr/qKhoeHQQu5f6uecEABNTEysHhsb+/Wpqamfz2azy2ai22bvZZkKa2q0OE6zIM2wHnzwwZAB2ageNa5mO/KjcI2l6PzmmBbaaWHebbfdFrIgazqYq5EUQcf9BEBKm8N1dgaowSIG5AKQ9QG5DMgCkEJjFYQg+zi/KQOhmNXV1fdcffXVf7pp06aXSr2TxeU/tRLYt29f8zPPPPO+rq6u304kEs0ya2miNx8AaTwqUMcyIxeAdI716RRjQC4IcY0ASGNe91MQBMcBQ413y4a2b98eWkRYYiHwo3zSCXyfz8Q+3/FT2zLz300sUSBks5n39fUNVVRUfHLlypUfra+vH5j/bqV/xnEDUBAEiwYGBt4/MjLygYmJiaWZTCbcGhvBik4qqgPxEJFGR1Fmas7lzWB56KGHvC984QshQEnZ6xj2UM5RJJntgJwvANLgEQC9973v9a644orZrAgugEQ1mWYpCsOGAQEYxWYvAJCCDxSOjQluPgBScINs38hMtnF1xBk7cBAEwXNbtmz5x6VLlz4TBEE2lUrl0+l0IZ1O85nP5XL5srKyXDqdnmpubh73fT8o/e4Y12AhEsDCsHv37tVPPPHE74yMjLw3kUjUKB2PFLxMWC7zEfOYjwGJ+cgCYceRxoVlRCq3y4Do60yqBBqKurMBC5ioteU25yoYibU/l19+eagHmGjqHHQE51iTfjG5HY+5bCGyd9nPiZgALQPSdjD4jnt7e0fr6+v/o729/a+qq6u7FlqeUj7vuAFobGzsZ/r6+j6Sz+dv9H0/Jac7glRHsWniyaCrdOrM/BE+59KxYUCf+MQnws5JQyr5IecoDNPahhG0Zm985z7qmFxPDrd3v/vdYbZcdXjbONaG7f7PMUWgwYDwAwn87Lncl/MAIBgQ5jdtzaB1QIAIg0UmR0XBKR8ccqBeAiBFwfEcmBMZH3bt2hUcOXJkJJfLDQI8MyBNWo58MpksJJNJknflysvLx2praztaW1t3rVy5cufy5cuPNTQ0jFVVVWUTiQQ2Ze/RRx9du3fv3nOHhoZqAbLa2trOJUuWHNqwYUPXxRdffHDTpk2dZ3rSw1IepFFlJyrupZdeuujxxx//vdHR0TdXVFSUV1RU+PQlRcXR9owPa8Z2198oc4jMXgIma/KyrMiyn/kAaC7WpGMCCMaITNGME0xvlI39hzThlO6gjpSJcfr/s3cecHJVZf+ftiVbstnspneSTcgmARLphJIGiFLEP1VKQJQiYHgJSEcFRKk2ENFXXsEXBKUooDQF6SAttBASWFI32c3W2TKz0/58b+a378P1zpY0NmT280lm5pZzz3nuOc/v6ac7ANB5C0S9ASWNcWPnj+7XM/Vb+X/wMP7BO5qamqKf8te/7Lbbbt8vLy9fvLHP3Jbu6xUAEWLd2tp6zKpVq65oa2ubJOBggiiqRSGU0nTwAWnjKkt8JtCzzz7ru/nmmzvrrjGx7IRiIclsJ4lJC0jqN4tLLxGwu/jii509gaxGJelN6riV5mSCo30ABQCQCc5Le5IPSEEHRPIpEEE5QNprhfEAyjYMW3sYyUTIeLlPARe0S9VfSo/Qtg2P1cRyL15JVGhB7KBI+CaA4vf7E4FAINjY2FgYCoVyzbtJxWKxSH5+fm0oFFp86KGH3nvGGWc8PHz48PXb0uTd3vtKodJnnnlm36VLly5obW3dr6ioqNDv9zs7HMrMK01IEW7MHb4LpDT/BUAyjUkDEvhYU5zWlhcA2XfiBgcLSPrO81lvrBk9A74Cb2DjOeo8aq3bpE3uZ4w2T889H7wEzt6Az+aYX5YGerZymfgU6MJ7li9fnho8ePCLEydOvHzo0KHPbA9Wjd4CUM66devOqKmpucjv9w9XSRmFRqpqgey9TGZtcy2NRZOWyYaUc8MNNzh5L3bic07h2CpGKsnL1r1i8jJx6QfXjx8/3nfZZZd1Mm1NQPdEFMNWuCcTXH4d+mdL5ui5Ur1ZBFxrt2BQLThVKlYUnBcAqYqxwI32VLiUY5QCevvtt31UhdCitI5guyjEPAwAdZ4W45E51C5inWOsOTk5HZj7Lrvssutnzpz53NChQ8M+nw8Ay5r0NgcH2sJtVFVV5X/wwQd7fvjhhyf5fL7ZeXl5Q0iLCAaDASU828RUN9CoGgFrQSBlhR77XfNQ61v+GC8tJNMxa76DNPAOrWFFuH3wwQeOBQPtB+GVe7SnkW2X59vajz0Bl55c090rs2PoSXtWC2OtagsGaXSA0KpVq5x/U6ZMqRo1atS1w4YN+73f7+/ori/b+vneAlCoqanptPXr11/i9/vJ8XFMTZLmIYb8ObwYJi8ThK2xBUAyPfG5evVqxwdEHhC/mWwwY9qQQ1VRMRbU9Ay9TMCHCXrQQQf58AG5S/AoakbSnFWH6ZfAh7GgoWDKU16S+wXLBCezG58CIGlAfMoE59aABECMVzTBd6Q+suf9okWLnDp4ypeStGgZAGOQRqdPaTiqLSVpV+cVZaRkQGmOAwYM6Ojo6Fg2fvz4f86dO/eZgw8++PWxY8euwyKYBaK+v8Qxx7355puDFy1aNKempuarBQUFu+bm5g6NxWL5BQUFDhAJLPhU8jZziO/uvCCBkQUlq0FZAFJgkNvU5aX9uDV4fmuO0y/mI8Lk888/75s6daqzDiVkMWeV6yeTnOa31xvqDhi6O2/76uYXvQEgey9jkfYjny/HMOMvWbLE4YE77LBD3ZgxY35RXl7+U7/f39T3Z9+m9bC3ABSMRCLH1tbWXhGLxSbyaCt9y34s8xuTigkFsPDJy2DyKNIFRk2c/9133+3Uf5PDUgAiX5DVQjT57TNoD3X9pJNO6tysCgBwV8aWyVDaB9cAXmgdfNJHARBAwfVi6uqDfEXyAQmItBeQathpwfAsW4rHDUAy6WlHSkCZ6B+AyDpZ7aKXFqlXL8CRZqPjGqfszQpXZwxy9Mp3h9+K7YjC4XD1mDFjFh199NEPHXfccc+Vlpauway3adMse/fWoACaz6JFiwZ9/PHH+65Zs+bgeDy+p8/nG5abm1uQn58fJGDImtRkdbC5OcwtGCHHrOZkNSFdI8HIDTayOFiTmx2/Pc78Z51qjsKImfeVlZWdxYTlD7YApHF0R9eeAk137VhAsvyou/v0fLkQ3ABktR+2Oy8tLY0OGjToLwMHDrwqLy/v3e7a39bP9wqAGGw4HN6voaHhh8lkciY+IUW3WWBgwsh0Jgan7YN1vUxCTECiXf797387IMQfE99GvEjalyTvVsMJ9T7kkEOcfAE7+aVhCPh4JpMbeyuaFpMB8AE0AAk0NQEQQQjWdGftt5gMbCKqghHSjkSnbQUWaHtjQJh/0EFSJ+Pg2UxC2qdvABBbT6ABAYrS9kRfgY8Wse5TuKvV8qSFpk1tDm25TpqUAjUY86eOT8cUit/pk08+ibe0tKw88MAD/3DKKafcM2PGjKVZENp2ljrr8u233y776KOPZra1tc1ev379HtFodGxhYWFxv379qEbiZ17x3qXlKIdIQGOrKliNSEKOBYCugEZCUCYAgh8g/LAuWEeU5tp5552d/EHWkPoja4e1AkigUtubG2wyvXEv82JX10pIFx9jDUpohI988sknzjgnTJigbdbfLysru6qoqOiBL7oZrtcA1NraOjwcDl/U0dFxUjweZ+8eRwuS01NSCgSGmTGROU9YM0SWzVmMVeHTXMOE449jKkSoLGE7uawKLOlNdaKUG8R9AIEmuCQsAIfihmgsnOM++kL5HRye/FYlBI1Nk8ua/JR0qmrYPEtRdNYEx73a4lhFTpU8yzlpVDKHAUDYwOknf9IG7SIXMEJP5U9IYrVaqKoJ00foofp0Yi70h+cC3vPnz3fGTt2t++67z/fmm28CjuvmzJlz93nnnferHXbY4aPtoTTItgMz3feUcO1Vq1aVfvTRR1+qqqo6IBwOz0ilUpU+n68MraiwsNBZ/xIY7RzSPLJakr5b05y0Absm7bFMAKRrmMvMR9YOW7CwBkndYP0DkLJaSPiUuV/ClY53T43Nf4XbEuH1BPEQC0KsS4RLPik1BC+i0sOwYcMUVFFbUlJySzAYvKV///5f6MCgXgMQan5tbe3XOjo6zo/H47tQVBRiMiFgcPhDmDQwPUxJkvCRcMSM+a59PeQUtZKVAg1kFpP0rygZ+6J5FowUQOBPjj1eKs/RBOdTwAAAADLqg7QzniPtRCY+mLKkMEkwMG35eHi+NB4WDTSQT0ph3DLtKVJQ/h/a417MedCJ65GIKMwKPdDs+GcXtPogJqBtmQF4gI4xcYw/JjjtAiYIA/zmT6YVJjz/dtllF2fhq00Wxe9+9ztHM21ra6uZO3fur6+44oqff9EXw+ZnUX2nxbq6uv4fffTRqBUrVhxQW1u7R3t7+66JRGIIWlEwGMxhzUmYs9qQUgasmc7tM7KmOH23moqbCm4fCvOVem9o/cxF5rD1Wcl8pXUoYVLryN2+l7C6sW+iJyDTVdvWeqNxwDsUqESwEbTdYYcdnLWeNo9Hc3JyHikqKvpRQUHBm19kP2yvAQhit7S0DF2/fv2J4XB4fnNzc0VbW5sDQjA7aQQwPBgZ2oYisRQtJwYt0LFBAhZsFN6tQASARn4ivUDZo+mXoktoVxIcL3bixInOVg3cj2NTQObk5RT177xWk41xaGsIGLT8NvLTSHsDbFLpqBZrHhSoWi1PmqGS8mhzgyTU1lkpmP5DK57Ps1iYXCfNSRKoHMKa0NKkBFQWsMQQ3OCtRSo/G/SkXZ7FJxE5TzzxhAPszc3NH5955plnHHDAAU9u7ELO3tc3KEDo9ocfflj+4Ycfzqytrd21sbFxl3g8PjEQCAzsRzJRfr5jVtc/ARDrTtYL5hRzRGtMn26gENBwrxIuZRGR1QSqIICRdoAPZOjQoZ0+YgU4WMp5aVr2vPW52PXgdQ3HvDQ0r2szmd0kqFpw1HPVF5ncoBk8A1rAAxcvXuz8rqiocEyOSjFJC9Lv9+/f/5r+/ftjhov0jdmz+XuxUQCEat/Y2DhmzZo1x73++usnrFy5sqK+vj4Hhorm4TDmtE/DDShWJdUEEwCJkeo4k0OTl3MyHfEcVHY+sRsLhMSgeTYvmH/0R/ZWFhNSxtixY30jRoxwJvzoMY7jr1PqshON7zIF0jbPkxmLNmHaEFD5CfRRkX/aeoE+cB0mNcAZKW/58uWOpgazHzSozNHU8D+hhdBHxib/j/I1VHJIoC2wtCYJSVtiBHzSz/SE7qxWoUXDeTlF5atjjHy3QRjRaDTWr1+/20488cQLv8iLYfMvr77bImu4ubm59I033phYV1e3+/r166e0tbVNpXhJKBQamJub24+gBQEPzFGCHRqKElyZQzZYwVo0mKMyEXON1qHCwzU38fuQu4ewqPYUeKD5nYmS3QGI7nMDl4535zfqzsQnwU68QqWF+K01xfqnnxI+Wd9oPgjphJpjfsMiA421R1I8HscG/9NAIPCb/v371/XdmbRpPdsoAEoDRaCpqWlcdXX1qeQgVFdXUxU7ALEhvJzuILukKIUe8tJ4saoUoEkgpupWoW2Ul16sXqYATSDGb86lJXcnp4bIGoBKEj7OPiQtNrgCgDBfwei5V0mjLDA5amVOQDuhXcxmar8lHHa0FgBDk4+xAyZMKgUjcJ77AJ+nn37ayYGCLjk5G/IveD7XA5AAIv3jH8CkCtqa7ApD9ZLgZGvWp2gtoBE42esEoKKlAhrEQOhbc3Pzm4cccsiR48aN+2TTplz27r5GAaraL1u2rHz58uU7rlmzZlp9ff20jo6OKUTQ9evXrxQwoqK9zHQb5m1Op++I4zonIVDCpJJMlY7AetA64RrM9KxvTG/SjgQ+mbSOrjQit/axqQDU3btivAAKf8qLVPSqQEdpDxKMMTcSeIA1BuCVn1dJqYy/sLAwXFBQcF9FRcVNRUVFi7+oZrhNAiCcmT6f78T29vbvEGXT3NwcANUhNISlMgEvR9FnfFdlA/lqJMFIU5LJyE4k2Xw1GcQ8rRSjAAEFMKgcDgwfxzqf+Ff4E+AARKNGj+30mwA+9BuzG0Ag8xfjEbABZGgy/KO92pqaTkCS05+JBfACKPxLV7h2tCfuJ8v79ddfd65JJGKdEiTPo2/cD/ggGQnAJTW6NSAbqq1Fb01z0MWCjxa1aCgNj3YByLQNulNaE41zcnLqx44de+R+++33r+4WZfb8tkkBtKJ169YVrFu3bvDatWt3bGlpmVBdXT2hvb2dwAWi6Abm5eXhzMVn5Ge92Eg6G0EnP5LM0NJkFIiEoEqqAZGv8kFyDCauwAOtO/EC+9kdCPVEw7Htb6yGBT+TBki/xd8UIMSYEEgRQFn/aD7kPcInWe/wEFVBUbIta3+fffaJz5gxY9HUqVOvz83NfZwAZGKWsBqaf1ii8oJpZ1gymUwmEokExYyHDRuG6YOqKH06oXyjAAg7cjQaHdPR0TEzFoud3NbWtnskEsnnRSjUWCo30rN8G9JarBTuJeXYY9BW10tD0kTkNy+YazTBBWy8cKQtHPqEeANATHb6o/IdRNuUlQ/uLEsizQXgBIjKyzcEAKRSPp/fT3TehnI9tMPiYRI1pevBcVx1uAAQNBfARKGijJ3zmASZgOyFNGbMGF8yuaEaMH3CFIf2w734rAAgK22KDgJtmdIEJgJqa4KTM1caos4JlKy5U2BmTSeS2gKBQGzo0KGnz5s3745tk71me90bCrD3UHV1dX5zc/OAmpqacatWrZoQDodHdnR0VHR0dEzKyckZgXYUCAQK8vLyAiox5Y6akx+XZzMXmc+sA0zS+H7wzyKksT5UD45rWYswbOu79OIV1gTndd5tTXEDU0+0rK7AjLULr5Ev1V7LegKI4VFYYYjyIyAI3481s3OvBEzaIwz9iCOOYBO+xoKCgsfy8/PvSSaTH0UikbyWlpZB9fX1w+vr64vC4XBeW1tbQTQaDcViMXh5krDtnJyctvz8/HBeXl7j4MGD16drP9YHg8H2QYMGtVOiqzdzYUte22sASqVSJW1tbftFIpGvxGKxfdhmO5FI5DMRtDe9TESyi0q1tNK3GJ+OyX/RlZTj5WDkudanwf1IErxgReVhhsP3woSXHZu2MJOVDizvDA9H60H6AIAAgYEDSx3w2bB48PVsyFoG1FhAAFDNunWOOQ4A4rnQgAUlvxKgwkRUpCDXvfDCC07UD76owsJ+zj2qP6e9iAAxmeNsaLXoI3oJlKXpuGkhc5oFK6stCmCkvfHu5DtSlYs0uCdHjBhx8Zw5c67v61LVllww22PbaEa4YD/++OP8SCQyqLa2FkAaW19fP7a9vb0iEAiMZtfj3Nzc0pycnOLc3NygBD35beVLYp4hvDEH5f9gnTKPmfto4bZYrywiXj4ca7rXe7H8xK05ddVGpvdqAczLX8SaVxg7bWi98R0hj0AsKjsgcBKQxfpXuLuCm2T5gEbwAvgC1pni4uJkWVlZY11d3burV6+uXrt2bb+2trZBvIO2trZ+kUgkRM5XMpkM8I4ooU+qBMJiKBSKhkIh9hdq7Nev3+qioqLVAwYMqC0vL189cuTID8eOHfvJmDFjGj/vaic9BqD0JBzS1tb2lYaGhhNTqdQu+fn5RTk5OUGpspp01vktCVyAI8ZpAcjt+9Gks0zWShZuqUbMl+MKzYR58o9oNgAIhs9EJ7oL4OEfWk5JCSCzAWWYCPLdyO9iix0y2YhQ0xbcqM8yr6mem3w5aD8yT0j74RymOzQgJiJO14KCDRqZQrVl9gOAADHGY6OMZKrUBLeajfXrbNDcNiS36rulve7TeQVXCHRkNqBNno96369fv6u/8pWv/LAvSVDbIyB83mNGO1q1ahVWkOJoNFre3Nw8vKamZmhjY+PgxsbGSjQkn883NBQKlRYXFxcVFBTkwQfQBFgvMFpMy/xj/rEutKuxghhUFku8hePyxVqtxW2my2RRseDjvr+n9HQDkPiNDVDSTgBoOQiaJJWj/cgvLqESsGX82vqF4zb8HEEXARf+1dDQEK+rq0vG4/EAvri8vDyHb0vrEl3cYJnmsU6B4lQqFUkkEu3BYLCpuLh4+aBBgz4sKyv7aPjw4e9OmDBhyeTJk6l4siFiaSv+9QaABjU0NPy/SCRyWiAQmOL3+/PkbxGztZNEE0MMzkrollActyYlzllzmlfujwUj3e8GLZg+/wAJHJ2Y4GibXVjRcDC/YeIaMGBgZ3gpz2ISKE9JNbPEwGmPRQSzVtUDAEn+JvogDUh5Rkw8zsucQKVrfEAAzZe+9CVfKLTBLKHcJ+7nuZqYMsHZaCABNvRX3zQh3WY5fuuaTO+AdugfQMO40NZUl08aYxqArjv00EMvz1ZF2IordBt4FFI4fqH6+npyBMtqamowEQ1raWkBnEbU19dPbmlpGZ1KpfAhDRg6dGjxwIEDc1k42GsHAAAgAElEQVSPNr+I+cm8Yz7aRFjmu/xLMre7ASWTpuSlJVmS9iSKzgt4LA9SygRARHAB6xvwQeOhv5jTsagQeQvQsMYRfhXhSh8U4o5gyn38w2LDuhQopwXBzmom8AzlGoo/qK/yR+m3tYwkk0kAiT3Ewv369Vs1dOjQ9ydOnPh6ZWXl85WVlVUDBw4Mby0rR48ACLPbp1FQh0ej0bPj8fjOqONiagycSaMwYb0YCywQQVqAHIzWn2MnhJVO3Oq0W9qx93mhP8cADDQgJga/cQIyKaQBqQ1eLkyfCQJAcV4JqhorEw0GjWSCJiMpRVqRJqKqKgDM1tzFBMUO/Je//MW37777OmHgSv6UFqRJCRDa3Avl/rhNbF7ajTQdNyhxXOf0nWuUo8G7FGCqZI+cqexBVFhYeN2BBx6YBaBtABQ+zy6mrSVUzs8Jh8MFqVSqvKGhobympqa8sbFxUHNz87hIJDKpo6NjWDAYLCPsOy8vr39eXl5nQqzmO2sAbYh1aeekBSLOU0GEucuahW/InMWnBGMLYuI/rHsLXlaQFb9RdRUn7QJnsA+f8IZP+BrPhB8g3JK8jYmR9YsQipVjg6WlxAkukrCOACrrBmufsQE6+IhUiNhGu+qZ0nb06fWepRhIQLURwozJBiWxZ1hra2t7v3796svKyt4dPXr0G3vvvfcj06dPf2f48OEbwvu24F+3AETAQWtr6wHt7e0LOzo69uW3lbqlMfCiLUBYJJYPRNEelngKQbQv1Wu8bjCyUr291/pEZIKC6WOC44+JwiRQgVSVqOE+tw+ICaMJyb2MA7AhCAFTHtqVdkYFjBgfACLzGROT5yj8nN9cz0RlUu64444OzWRDlhYkELIZ6dIELYBYKcyCi0xx9lprnrMmS01Iq7GqygPHWATpROBkcXHxtXPnzr0ya4LbgivyC9o0Zju0pNra2pyWlpbCWCxWGo1GS8lFApRWrFgxqaamZlpra+voQCBQlpeXR/h3fmFhYQBmLU0FfsF8FABh0mNNIzSS0MncxkSuHEFFqLkFOIGSl/Br141CxvlkXdMufVCuI2sa0CDSFhCkXUxrWFiIpuU8fmUJmPAeq/VxnPsw2WGqgz+or8oF1FhFA61Vt7kxk4Cp9Q7dFAgmywb0M5pVNBgMNpeUlLwzadKkl6dNm/bwMccc8/qWNM11CUBIMh0dHZObm5vPa29vPwpNyKp6fJezHWK4tR5+86JkDpM5yEoR1q5rmb0mhohuAcjNWL0ASC8DwCBggH8Qm0/5eXix7D4qNZbjTBYmkKLY7EvmBaIB0QaThskiAMJWKw1IAQSqYCBJSWV+MAmiagNASuhzZ5/LlqwaexaANDb6Zs1wFmR0jftTGpSNgrPakDQ25S/pfQcCAQDoqtmzZ1+VBaAvKEps5WGlQSlYXV2d4/f7C5ubm8vSYDRwxYoV49evX7/r2rVrd4jH44MSicTAUChE7Umnorc0c/jPjBkznOrZCHusG/iNSk8hJEqgkv9Ua4Dhymdsh26tDKxP+a1kyVEoOc8hiRYBFz4C32BPMoRLeABaD/cr7UPBFRI4WYMIxmy/smzZsk4NT74dJeFrvBKuxSfd5kMreGo8gJjlpRLKFTHLp3xYsk5FIpGOUCgUHjZs2Ltjx459+utf//pdu+2228dbYnp0B0AFzc3NR7a1tV0ZiUTGB4NB5+VLFYZpojVAKP4sAMkGqdwfMUqu0+A1ATQxrA9Jg7X3Wa3HzVjdkozVwJCQiFxTMiiTlmfKfyOfjyYL0hSTR2HljFcx+srlAXgU/canNCBooVweqdli6gIVHJM8mwrUtC1VXNKaNCFFy3jRRcCoqBtLD01EvRPRza0lqV86bwMaFMQhcMYEV1BQcOXs2bN/lC1KuiWWYrbNtOkOTSlUX1+fF4lEShoaGgYuXrx4+OLFi8dQPmjdunUTmpubhwwcOHDg5MmT+wM++FgQHhXJqRqPMHzWpdan9UdLi7BrxQqyWhO0CV/gOlkkZOnA1/O3v/3N8eei7ZBWAe+Q4Ek/xANoQ4m2HIefAFxYQzDtWV+O1rYEdvVLwCNTog0+sODj5o3it9Y/rLVOW27LFM9JRxJ3FBYWthQUFDx9yCGH3PHtb3/78c3t/+0SgCKRyITGxsZLotHo8clkMk9JZXQO5qiqATpuAUjVXlUHThK3gEkEkLppQchOBDtBMoGONCLdZ7UqzvGC0Tj4h/YilVRJYvSBCaCttMW4ZTqzL0v9tePRC1blBNl7BWwqyQEwAWBUQuDaDUEIoU4/kAAI2trMcreN2rIqqwFZzVAAbKU5L61IUo/ei9qWz07SX05OTjI/P//S2bNn/2RrOSizLDlLgbSWFMKfFIlE+pMk+/zzz49oaWk5oKio6NtDhgwpgblrmxN9yg8ECLH+lAiqgsRQlnXGOcs/rLAnqw5MWnxIeX1//etfHe0HwCGYiQADFQTmU9+tliUrB3yFiveAj7aFsW4JaTYK8bZ8TfzCXm/BR1oSzxCPUnvyDVlgs0KnhGyZ58RD4vF4e15e3uJddtnl7nPOOeeOUaNGbcjo3wx/GQGIXRbb2trmrV+//oZEIjEZ1Vf+ADqtKsyyz6qzBj2dlysmznc5uwUAnLNmNy+bpqQWSSRWmndL9vyWuqoXJGChf0wAhWYTjUYBRDQZbaVgzVNcTxtWVaV/1vmpMVubrMYDrVQ/i2MsBFWfpk+Y37ATc68CEWwSn7QfaZeWTva5boB2q+Fuc6UFIc0fjrknpwAJ6RE65OfnIw1duP/++/9sM8y7bBNZCmwUBQRIS5curfzDH/7wB5/PNwVzOetDmoiqwiuISKAiX7QETfmSrJDmBiDWJOAlrQUeRhktNB9ARwEGWIJU/9FGrsrEzjNUgJjEeP5hmcEao1I+0pDEFwV84g+KDLRuEIGkeIIVni3vEtBofFrfMgfagtHKoZTml0gkUgQr5OTk1AwZMuTec88995ebyyTXFQAVNTQ0nNDU1HRtKpUaIIYuiVvJUwCRmJqQlgEgaQiBOS8AEprbkuSWEVqgkZRifUZu0LHMWAAkIvOb/rlNgwIlmCvRcYAQPhyFS2Mek+3UTk710+2P0pgkfVhfF5MRKUnOSJLM+K08G6noVq0WeNmEXqsFeZnbrMZjaeQFSPZ+TWA3+GryAs7pDcNaBg4ceNaee+5510ZxjuxNWQpsJgoQ9v3II48cdOGFF/526NChw9gNWeYu+aRVY00FflmHWk/MbXgU/6yAZte31huWANao9iXDbHbvvfc6wMNa5nnwGAU2qYakrBkCC/lw8f8SKYePCh5AH+QbhkfSN/l9lRohk7y1NFmeaU12VuiX9cf6jGRdEVDB5zjP+OABPJtPfusa+kEfI5FIkjyi8vLyh4488sgbTjjhhPc39ZVmBKC2trZRra2tl7S2tn4bqcMyV4gJ8VRqRh0VAMHAVVdMjFEApHaUzEnIolu7sYOSNGBVTjtp1J4bHPSbF8q9Up2lrfAJ8eXTUrUGqa5i3NLgpLVZO6oYuQDHgojVlJikvHg+Bdz0213hWsApiUef1jwpGrs1GS/zGjTQRLIgbvvt/m7Hyf3a/bWkpGTN4MGDj9l1112f39RJl70/S4FNoUBtbW3xueee+/s33njjiAkTJvhvvfVWx8f75z//2VnPgBH8yQYTKfpMFhL5PxGUrfbgtsLwmzUAY8Zq8tBDDznfKWTMWlY0rXw88ufKgiHzPr/JRURzgufBC7TfGWuU5ygaTQKz+BbPU7Fka1bjWfBVa7KT60NtkOpBYMSUKVOcACs9Q8I641d1F6o1oN3RJs+Ej9MvWUfStEl9uhdcePTo0X879NBDrz3++OPf3pR36QlAOANjsdhua9euvSmVSu0jJs6DFJaInwOp3h1FwrXSICAMxGXQKkoKYVRRgNBDa4+0QJQJUNzH7f1uMLJmQZ2zxwScXhNQjLkr4rqZvjQhK50IsGS+0zM1AWz77smva6z24/6uZ9rj1gfGIkRa47yCKRRdY2kiULcAK0kIaS2RSLx64IEHHjFo0KDqTZlw2XuzFNgUCsCb7rvvvq9ee+21vy4oKBj2ve99z3fYYYc5iZ+33HJLZ8gzZjl4kSpOsw6UWydtSLwI3gQfk1Cq6t5I/qwZQIbUiwcffNARrGHotAGIwAMFEIyLdmzkqsxoPON///d/HbMb/aBtmdwkFLNuJQDKD0P7Ag2ul+kMQBJw0Uf5bGkLCwsFXqkpR1+VUC9Tu54n6wf3av0TzQcI8Y/vgBP3a2NRpc3E43Gi5B4++uijr/3a17723sb6hTMBUCgajR5UU1NzayKRGO02YUFgAEj+H3tepjVAhj/ZHgUUIjCmLxKuBGAWBLyAyD1prdppGb+7HctQxdCtDdX9fAsCeimZFgzn1Zb7GoGTTSbT2O0E2JjFaPtofWRWyxEgMXmIzmFB2ndgNUELPvqu98b7bGxsJAT7trlz5y7YkjkBG0OL7D3bFwUwv5199tk/e+qpp76D8x+mjvZx3XXX+f70pz85vlWYL+tO0a6sAeY/ICSrjTQVmLo2ibPOeq0VMd+HH37YMdermoF2EAZMbLSqIuUERmoH8KIuHOuVf0o+dfMC8VIbCcu1MhuqaopMZ/RZu0HDkxn/7NmznbB08QYFTrn5Gb8VUKYIYVU4R1sjPPyxxx5z3BOypGizTEA5HA43TZw48c8nnnjidXPmzFm6MSCUCYAKw+HwMQQg+Hy+UgswdFrJlnRWICMJQqVcNFgIxOCUqMpxCPPaa685hLMalBs8ugKiTADkvkcSiPXLWA3F67ttQ5PSXmc1H/d5t1YhkLKaj8bs1v68WIkbEDP1tys2RNFHAh5oi8moskCit8Yjs6MFbaSjtra2ujFjxnyrsrLywe2L3WVH29coUFVVlX/iiSc+vG7durkwwUMOOcRh5sQjkPODX4boUuY8wAQ4ML8RlgEggEPpEDYsmmukCUj4Es+ikgp+H5g7wQaAmEKtramdtaXKCwIg2sVvBADJ/KfgJmk8bv+66kLKHyMeplBt1jHAwfMAB8Y4efJk30EHHeSbPn26c1zA4uZbEtYtf7aVUDgvkOQa/OP33HOPA0ZEEdMnlR5jrG1tbev23nvv/z799NNv2XHHHTf4U3rxlwmAShsaGk6vr68n6z1fKK12IT6qLZ1RhxUhpx1IIZpyXBSfL20B4CFzWIzP3V8vIMrEnGGWbtOVvV9BE27fiSaDJpteTCYNyOsZloHrfnc/lbmtfqof8jW5TZju+73Mcl60yERLSX/KxtbkFMh6AaYASBJSNBpdsvPOO88rKytb2Yu5lb00S4HNToElS5aUH3PMMY90dHTsIX+HzFXSCvbYYw9HCwKgFAwg0xhakXJ15HdRgIAVFsUXMD8DPvzhT+FeGDBABsDRhoBEwUMS9Pgk7QPtCUaudWUTTGlXfFFReYriE08VWAiQuI620UZoC1PbgQce6ICQfFsyA9K+BEvxKD1PioXlgYoU5Jmq+MAzGMMTTzzhPFObCqbdK1Tf/nDOnDk3nnzyyXf3tnxPJgAaXVtbe0U4HD6VskfWXGMDEGQPFOFAUgCI34qxt5qKCI8qSjKmAgO6AiC3X6enM1rg4AYA+0LcbctsZaUGqbFevhcxcX26gVNj1wvWRPfSxjKNywtgda0FD9sX25Zs1ZggWHx6l5p8mpwWwOyxtH152c477/zlkpKSZT2lf/a6LAW2BAVefPHFEWeccQYAtIt8mvJlwFjxtaD9HH744Y51RVvESItQNCprAf6jygl8slYUDSbmj2+JqDVF2sn0JlMYY+Ra1o/M7QI7gOrxxx93alEqQEl+VbQo+cUtH4JHyldlhUS+M15pbQjx/CYR9xvf+IZjZldEnQKr3MKtlzBrrVsoCvxJeVAksPxA+MFuuukmRxPC0iVNLhwOtw8bNuzJBQsW/GjWrFn/7k2i+n8AULr8zpS6urob2tvbD7KTSETG1oh0IdVRzEv+H34zCGkfDFygxCABH2yM1j/S3WTtqVZkwUOIDzDSB+25o77xAt1mKH4r0oSXI9OiBRm35uM+59YYLbDJDyTJRzTqbvzu96Df1gRoaaTJxhhV4448JNFCQoMXAEniEi1isVjt2LFjjxgxYsSLveln9tosBTY3BZ599tlhCxYseLSxsXG6GL+2EFGkLb6hqVOnOpoB60BJ3YoqhQ/IlGaPcS3rBZBi7lNu649//KPD62hT2yVgTVAQgQUeBQkodw+f0f33399p0pIvRhqMgFP8gvOqhi+tSryK4zB9riFyDQCaOXOmb/78+Y5/C0Fblia1K96VyULkddxGK4u+PA+AJtIQEPrNb37jmDvRhhQl7Pf7a6ZPn377ggULbhk3btzanr53LwAKtre371VTU3NLIpHYyS1tM1DMb6o6K+LREdkGxfh1TuDDcYjEdtQMRBpBTzq7sQCkZzPhcCCiQks7U9y9m7kr7FDgIEbsDmiQicpGnVlNxEpmupY2eK7Kg2QCFi+AsW27gdZ9zmqeLBzGziKygoHVery+q8+pVCpaXFyMDyibA9STyZq9ZotRYPHixWWnnHLKIzU1NXtqzqKNsJ5kUQEA8ANhitPaFAhJ8IOHoc2giUg74VrAifao0YafmhptmLa4jvOAEX8wZHie2pfWI98MWgOVDvD/KIpN0cT0BTABVKx1hDaVE6T1LC2DPjFe+dgJqz722GOdcHCerSABuUXgxbTvJZTqmDQv8SmFdMtvpuRU+sBz6TegQ4QcZknMiuKR7e3t7Mb6xje/+c2rTzrppL/1NFjJC4ByqICwdu3aX6dSqZECE3WWAfLyeFH8SYWj80o+tcwQ4qDK8QKVJAUAEQsvNbcrP4fObQoA0V/qRaGaA5wQVi9SRKcv1qEosJFj0jJoq9HQDvfZqgeimT71QmlD8fxIV5Rf18TJtGJ7M273tRaEVIUBWjBp5AtyA4/endVq0/6yK2bMmHHVFuMs2YazFOgBBdauXVt42GGH/aW5uXmOIm21Zw7zGiYJ44VBEzSAtUb+XpmkmPsqGAw/k8+FT9qiTA5MFh6FJkXwAnyAdAZpPIpMs5qKQqM5RrV8tCcJ4bKmiK/I9Ce+Co/QJphag+Iz4qEIkviUEKLPPvtsR8OTtUJjEwBKm7NuDnfAlBViLZ8Vz+Ne+BNt2zI9gD118NhWRnXs0u+gYfr06Xd861vf+um0adN65C/2AiD2Hf/qunXrfu33+8us3ZEXDANX9q8dgGotybTDOatqStXlGMiJesoLttFxXszQPsOahrwYs9cxXjjOQ/bl0GSkDyq2aR1yNirNgqJMcpY5a1KrVI01R1oA4jsvUkUNZXakTaQs7f3B8zgnUGcsbvOfnZheGlAmGy/tsODQgpD6ZCO27Ym26ru0Pkltn24FfMune9QThr1hi9XsX5YCnwMFKBF28MEH311VVXUUc9NaJfiuyDfMZOy5pXBmWVsUlCDgAVy4R/6kF1980QmQAhAAMLbGpg3l0ijk2vpXWCsyv0ES2ibqje0VlEjv5gniVVrntK8dlGUWZ53SXyWsyvR2+umn+7785S937nPUlZDq5glePML2xfJY8XABoPgF/UHDe+CBB5z8KwUusGllbm7uC6eccsoPjz/++Kd7UjXfC4Dym5ubv15bW3ur3+/vLxOWVEVVepad03ZK2zrr5UjS5hoxbD6ViIr2wHc3AdQmnzbPRQBlr7dmMq/zTAbMb7Zqt5ir/CEiuo0W0TOkArufw4uU01PfvSQKzkEPAEghmppY2FSZpJxTXwRAopn7uXqG1W7ck9vyBcaE2QANiEWp+k6a+FoglnZSyeWv4nd7e/v9e+6550l+v3+Lb1L1OfC17CO3EQpQleWoo466dtGiRReKJ0lAlCWC+UrawV577dW527AASOY2BSDId4JA/MYbbzgOdkAJ4NHWLEpMtdUNpE3IYS9NgzVD5Bz5MwjYVuuwzN/yMKv9aO2Jb+g61inC7u677+4EHSBUE3TAenb/WUDqCQCJ34oHWD4oM6OEcyW9co9McVhyGAPnotHo2l122eXmCy644Ddjxoxp6G5aeQFQYVNT0wnr16+/2e/39xOjkjaDFqGtCtQ450BF2QwFQHTaBhqIqJoMUkst4LjRPJMDzTJ7NwGtJiUCStOx7Vum6wYfnbPM2A1wUnMtAKh9CxBSYeXU43plQwNCdgM4qeS0w3cLQF4A5wYod1ABbaD9qB4dbQj06Zei7KwGJBCUdMm5SCTyUmVl5aH9+/ev625SZc9nKbClKAAAfec73znliSee+K14kvJYJFwxbydOnOj4gaQRsf4l+IkPwTRhngRE4dtAw8BKwD/AB6GNe7iOfzLRK5iAMYrxar3TJzSoV155pTPfrisBkbUlE6DMeRI+LchhNeL3ggULnOAD+X3kG+opvb00oEz8U7xMdOa3THGMG0AkPJt/nEtrkdHCwsKHLr300qtmzpz5Xnf98gKgAXV1dWc2NDT8MBAIhCwjhPCY3+SQ0zkFIMh2KMIJvAQ4lqmL0Vrbo7uzXhKD+xq3XdMNMJogXtqNGK0FQLVvGXmmF9QdOHKfkscExgpw0MSxGdHWjOcGYve4bD/dgGGBQ89VyLyAxoK03oU1QbrbaG9v/3jcuHHzhgwZskU2pupuombPZymQXof+H/3oR3P/53/+55FEIpFr5zPuAZXPwT9C6LSc+rJSCEisyRszOFoLzBXQIapMtS7lOpAgbS059Mf6WGiTNvCNUDcuk/Zj+QbXIIyqqLN86m6+BgABqOecc45jRoevKODAa2a4+UdXINgVAAnorCBuE1U/+ugj31133eUAOfw/rXy8c/LJJ19xwgknPNpdMIIXAA2tqam5sLm5eUEgEHBygPiDccqcpQg4EQsJHg3InTMjJJfkYNVOTRyrFVhCuk1MOudF2K6WpgjHfXqpAherbbjbcAOQfUn2uzQrLxAT3eTL0Vh5UZrIMoFJQlOfNGHsb/czLIhY+lg6S6pS4qtV7fVsC0ASKgRAGkMkEqkbPHjwYWPHjs2GYmex4HOjAGkid9xxx+7XXXfd32Kx2EDNYdYYTBwthj8qAlCOBvOZ1h/zXL+l2cDT4F049wEnhGvM9TJtCYBk1dE6tcKita5QmYCCpbRnfbgimPiaPlVHTpFyEtpl+ue3wszPOOMMp8yOTI/WDbKpLySTNYh25R6wAipAzx+faEBPPfWUE9iV5hu1u+666/XnnHPOb7szw30GgNI7Eo79dIvca1pbW4+zhJWDj5fjjoCjE7xEG3SgF+Sl/XhJ+m5g6Uq7sNe6GXQmIBBD95L87T3uF2ElBzfDty8kk8ZiGbqYvyaQkmQ57tYENdG9NB8v4PEag508XuAl85sbXPVb5j0+Y7FYe3Fx8ckVFRV/2tTJnr0/S4FNocCTTz45beHChQ+3traOUbFjafjwIQRkotfw46gigNaqolXhSzBwtAlASxWqVdVaIdHWiiNeYIVFjlkhD5/uP/7xj85ETTevsoIl3+Gl6pOuVTCSAroANRJNKbzKp3iFrCubQksrrNKO24RvzW9cyzPdWhEb81GuB3cC98fj8VhRUdEfL7/88qv32GOPD7vq338AUEdHx461tbU/a29vn2dtkjSCqogJTtKBOo8zjBcvLUMMVeBjtRDasaCUyczm1oC8NB+r1bgZsAZtVVkLGNYE6GboVq3XBLPH3CYrr0mm6zXhLOhwPy9Si0Z9VT9Ev0zg6p40FkBsP217FvQVPSRwdGuCdny6NpFIsCHVOZWVlb/alAmfvTdLgU2lwPvvvz/m1FNP/dv69esrsSYAMqwlZe7jvwF8CERQ4I/Wgvw3AiCZsRQkhOlN+TPwC+v7cQOQBR+uRVP417/+5XvzzTcdYTyTBmQFTu0oYPmRW7vCPHjwwQf7TjrpJIf/ShvT+vWip3iEW5B3X2t5n75bd4WEVAGP6khaEz0mTELOqfhA3+PxeAqf8fnnn3/R4Ycf/nxXRUrdABSIxWLT1q5de1s0Gt3TakAMBABCA7K2RzqNBKGXL+LxKftoJmleQQhe4NLTSeqlIdh7BVJ8Cs2tKc6teVgwEGN3m6h03Drw3ZKNNWFpIvJ8FgTtMeGlAdn+urVDL03QThp3/3XO0kXZympbYJgJhO14dW8qlaLm02WVlZVsyZ3s6fvJXpelwOamwMqVK0eccMIJj61atWoq60wAhFOc9UXKBXl/BBMwl62ZX+4APpXTiOlIuXoEWGlNoZ2IR1lBVutIa16+b9YKW3Wz0zLX0BcbxWt5hNoDgGx7VnCmH6xVNKBzzz3XN2/evM8kr0pT8gIVHesOgCSUi1+4NSCZAtE04f/aQ43rOQbo8vnoo486/7g/HZT2/qmnnnrJKaec0mVSqhcAzVi9evXvUqnUNDFYdZJoKpUzt+CkvSLkqJOpKdPgM2k9lpCZgMENEF7XWfTPxKDdL8itVXgBWybNw90nAZQmXG8kFC/AcQNqV/1wA5CXhOPun1sAsG2ovEcsFkumUqmbp06deonf799QNCr7l6XA50CBl19+ufJ73/vew2vWrNmB9aI8Hhg1oIPmQzCBqhxwjYRgG1TAd64RSABIAjNdb3ma1Vz0XRYHmC6BAgAQpigJ31YAhlTim9yvXCQ33xMP4FMlfzC/EYJttZ6uNCDLk7z4sBe/s+s+EyBpvAIqJQOTD0R1BISAdFj8ik+rc3//5JNPvm/o0KEbHHMef24AUhmeOxKJxAQr4TMIAZANKuDlIUHIHml9P9aE5yZCd5qHZ2f9/s+UlnC/gO40KS9Q8QIoN8O3DNuL+dvz7u9ekojtR3cSihc4ePVHx7wAyJ5z3yttx01vtSMnb0dHB1rP76dOnXp2Nhfoc+C62Uc6FMBP/eCDD+55ww03PFxbW1sGj1FVASRxqp1QcgozHBqMwEefAiCZ1jC5SctRvo/MdNKeBPIg1MwAACAASURBVDYWGCzfUB4SgQePPPKIs+mcAEjP1ToWAElDou9uAOK32mf9wXfPP/9837Rp0z4DQJsyJSwfc3+3QqtbI3IDkHgwOVTsx8Qmdum8xvV77733j775zW/eMW7cuMaeAhAb0R2wZs2a/04mk85GdCIEBLMAxHHOp/eLcb7zUvWyrJ/Hiwl7MTwv5p2JQVstJxNDVh+7elFdgVZPtSArbWQCo0zj6G587rYzgYmbBm4g6uo+e68bkCUddnR0pJLJ5EPTpk07xe/3N23K5M/em6XAxlIAALr55pu/ev/99/+5sbExVyChStA46XETkExqE7/Fj+QakKaD9qRjqhdngwysS8GuVasBpfNfnPI7f//7351CnTKPuQHIgpitqJ0JhAA3kk4xwfFpeXJ3wmtP+J41wXlZS9xakQUgq6BQM48t0SljlK6xGd5xxx1v/O53v3trRUVFbU8BiDpwc6urq3+bSqWGWybPC8QBhsQgJxgdUAg2D7BEt4TOBECSvjNJ+VYS8BqAWx3NdI0XsGU61lUbmcAlE0i4r/eaMF6aYHeg6KWFeUkxXsCc6V43oGtMCkKIxWKpRCLx3NixY7/ev3//9RvLQLL3ZSmwKRQgEfXCCy/8r9dee+26xsZGv3gIVhiSrTG/4VdRySlpOrLaCGzcpXVsxWza1PXiQQIcy5O0dpWcSU4MEXDaaFN9k9bDvW4NyB2I5OZ5rD/2NjrzzDM7a9FZpWBjaGn5iw04cIMNbVsNSPxE/m2do48UlwaA/v3vfztaWjAYbB8xYsStCxcuvKmrjercJrjccDj85XXr1t3m8/mGqkN6aQIgOdBUAQEtSJKICGJtnZkAqDcg4MWoLfG9mLYmQFeM2OsFWqDw0oJ6Ami6rycSS1fPcIOWG0AyaWluacYNkl4quPs9SdpJmxhSsVjsreHDhx9aXl6+emMmfvaeLAU2lQJsyX3aaafdtmLFitMwdSnRnEAotB+CD7RjMzxIAKRQZx0TALG+BD4yvXGNdTNIi/ECH9aIAIjK188995wTlCWNyx1oZcFDz83Eu3gea4+SQqeddpqj2dk1agMjekpXN//w0oC8hFk3ONkgKzRA/G9sPUGR0jRNo+Xl5b/5r//6r+u6KkzqBqC8cDh8SBqABovRCoAgANKFXgTEUQVsXWMByM2o3cw0k4ksEwC4iSwNKJPG4G6nK+a9MaYwLwDsSpsT3TIBjhewedHCgosXsPQUfOy9usdNB0W1JJNJAGjpkCFDDh00aFCXsf09XQzZ67IU6C0Fli5dmnfFFVfcU19f/zV8LjBxlQBT/TbMasqvAVRsMinfASMxf+a7fsv0Jl5mrTiZLDrwQNVyZNtqyvCoOnd3GhAmuEyJ+HZt7rPPPr5TTjnFASDxTGlk3YGQF2/sylpigYY+ZNKQLADxneKkABBbUKTdMbHS0tLfXXLJJddWVlYuz/Se/wOAWlpaDl27du2tPp9vkCWgyvB4AZBQ3sa9ZyJMJonei5l3NTkzgY77nkwM3M24Mz2rqxfoBYheIOLVdndA1VV/3EDqBhL1wes693P1jiUJuZ8rAEqlUsT2ryktLf1/I0eOfLm3jCN7fZYCm4MCtbW1xWedddafWlpaDiI/hvkLAMHMKyoqHNMbPEoFPqXNWBCytd2sBiSthU+5GSQ0WhOcjvFpAYj9g/inLVYyARD3KQjBPicTr9lzzz19J598suPXgg+rvqXa6SldvQTwrsDIApD7OmuG4zo0IExwaIBpPIgNHjz4josuuujayZMnf9JbAPqV3+8vF9rq5WkjOr0A1YATANmoN5ngLIHViUyaiRfzlpbTE4ASkWz73WlTXtpEdyCSCfwyAUN3INgboHVPBE1y22e3FOMej+0/78dt53XTOh1qmWpvb68rKSn5xujRo5/o6aTPXpelwOakQFVV1YDzzz///ra2ttkK+YXhE06NBqRAKdYFWpAFFW3FIK1IGo+i32yOkNZVJk1Dx1Udmk8qAhANpm29LQCJBtYHpCoNXutTPIN2d9ttNweAiO6TyVFRdl78tTte6WUhcZvYrBDrvl78QsIp1yIMoAG99NJLDj8JhUKRkSNH/nrhwoU3VFRUrOoxADU1NX11/fr1v0omk4OkxdABXiZJWthORUTQH3VTLyMT49+UCegFKmrPglMm5p/pZaiv3Wk43WlaFgDsS8s0Znc/3f1wP886ML3utZpLJgnHC2S96JpJK0sXUE11dHQ05ebmzq+oqPjLprzT7L1ZCmwsBZYvX1569tln359IJGaxdQLzHx6EfxoAIhBBZXSk6bi1IAGQmLdMYdb0xlqwEXAWJCxfFBPGFfHuu+86JjgBkNsKZNe6wLA7E5qCvy666CInwVZ12WS66+5+LzpbPuHmHz0BIq6RBsR3+kQOlAAoDZKt06ZNu+mMM8745YQJE2p6DECNjY1frq+vvy2ZTA6xBAOAkC6E2jxYQQjSiPTpZS/N2AH/f9RD/cyl3QGAF5rbBrxMfvaYFwPvjUbiBUBdvXQLnqJXV+CZScPJBKxusLFOxp5IRu6+6z0nEolUPB4PB4PBb1VUVNy3sQwke1+WAptCAQDonHPOuT8ej88iAV6RuJjeACD8JAIgdxi2NcPZXB94mrQfJZ5mAiBritPaoA+EgQuAVJbMrm/3fepLdwDCMxgPiagzZsxw/E20Be+120L0hqZunmn5jwUgC7puYFI1FZXoYT8l6sFRBTzdt4bddtvt2vnz53dZkPQ/ouAaGhrmNjQ03J5MJkfIpCZ1FgDSS6Vzsn8KETOpq70hTneI7QY7L+ZtNSM3w/disD05lmkMPQHIngJaT7Wxrq7z0oLsRLL0yNR3e9yq2/F4vCWRSHx78uTJ92zqO83en6XAxlAAE9x3v/vdP8Xj8bkw/bR27mg+48ePdzQhVRhQtWhpQFbz8QIg+mPDr7vTgFgbAgT68t577zkmKL7rzwKMFXxtpF1XdJCGRR7Q/vvv31lfjjUq82Jv6Ngdf8ikAYmHuLUf6E/Qx+uvv+678847nWAEtMGcnJy1Bx544A+OO+64PwwePLglUx/dABRqamrar7a2ljygcQIgPnHsYWdVOXMaFHGUCcwxvTR12K2BbCyzt6htNayuTGluBO8pEHgx7M0NQLbfXYFYdxpedxPKTpzuaO/VDwFQeqG3xGKxM6ZMmfK/vZn02WuzFNhcFFi6dGn/hQsX3tvR0XGwot+QwnHQA0Da+Vj7AFm/jgUgCzQwUJnjLFNnjYqfWUuEvrNetFUCTHfx4sUOAJGTpPUtE7pbAxIA2eNeNBLIHXnkkb7DDz/cAVjVlORcd/zVq81MPMVLE7L8w4KTjYKDrmzHQEFS/tI14qpOOOGEy0488cQH/H5/pKcAFKirq/tSQ0MDJrgZQm8+McEpusSqfgIhJoFVW9XZnqiYXU1O+7LtdV6mtZ4AjJvJ2t/daTOZXmZ3EgznM/nH7GToqn0vTc8LYDNphFYgyNSWnu/WgDhOhduOjo7GZDJ5amVl5UObi6Fk28lSoDcUWLNmTcG55557TzgcPkwbo8GQtY02pjhVGFCkmdWArD9IvIUim0oIFeDIimJByM0f4H34P7iHgAgSUQEgfFPie27g0ljVbiYNSdfJ1MUOr+yGSokhFVV2h3D3BIy64g9usOG3NeGLV1n/D9dgCmUTvieffLKz2HJLS8s755xzzsWHHXbY436/P95TAPI3NjaO+TTD+AfxePz4VCoVEtggJUiqkHNPHTahur2ZS7261s2ou9N83My0OwZuO2MnmhtAvUCqOw2mJ8DpbsM9vq76n0kL8gIoSxctMi/g0TGjAREFt6pfv35Hjxs3LhuG3avZm714c1Hgvffey73qqqvuamhoOFqWFwtA7GbqTjK1oGMrInAcAEGwtuY6aS0SHC0oac3wydqQ4A0AUYqHIATyk6z5TkzczUv47T7mJVjruiuuuMK34447OmAJ07eFVLviMV68rTtBVefdEbIat0AIelKGhzpwmCDTIewULn76/PPPv/iAAw74d1fv3mtH1MK1a9ceHYlEro7FYsMBHohiI0p4WTYYQZ2yINETNLYMMlMnu9JYupvU9MHthO+JlmOv8RpHpjY2Vpvyas8LgLoCv0wg1BPgctPRrQGl32uqtbX1lSFDhhxdVla2sjvaZ89nKbAlKEAlhJNPPvm22tra0wAeAIT5iWYgExw8S/xJArQ79FoAgbmI8mLwNNqxOUDSXiwAWWFNZar4xPdBKDKh2CtX/t/yUJoD97nbkRbUHXjQBn6lr33ta74jjjjCyXXiN1Ypu92Dm1dZ7SsTCHnxV8vH9d39aU1w2pAOGkDnWCzWNm7cuP8+88wzb5g6deqK3gJQoKGhYWpra+sV7e3thxUVFeXQgNtpZ8OxBSRuAMpEgE2ZmJkYqrtN6yfqiYaQSQvoiulLQuqq/e7G2hUg9gZAuwIge86+k67Aya0BYYVraWn59eTJky/MVsPu7q1mz28pClAL7rTTTvvh2rVrL1UULnOa7RcIU9aGmfLruLUfaUDyvRCxBgBpPyBFp+k8a8StAYnfwYSlRaEBwYCphfbxxx93Cr52DXsBkJeAa4/p+QQ7MLZLL73UqXenLby9fEhdCf89FVS7AyEBEEBI+Z27777bAX1wIRwOr541a9Y18+fPv6urAASHf3pNlFQqVVRXV/f1T9W87/t8vrFIB3ZfDL7b2HnbWamUHEsnJHXmDbnVOVs5IZM2BDG1eyht8p2Jp82R3IlYIrBeTFdh1l4vT33MQJf/OGzHa4FYF3qp1HasKV9gw6Uee7w5Y0kmHMlMCWgKv0wmEhtuC4Q6J7v27uH9MDEy7bjqFhistmUnqEyr6c91hYWF3xw2bNijW4q5ZNvNUqA7CgBA55xzzskrVqy4PRwOh5ivzN8hQ4b4pkyZ4gQhwBvgE5jW7NxmPdjkT9aJNlqDj2ht2S2yvfiL1QbEXwAycmEwRykZlbHYQAEvYLC+okzWFvpA+/QXLegrX/mKE/VH/pOEYD7FT3kmYxA/cPNWN7hY4dvrnICW69A4bWQs4de33367Y3aEtux+GolEXluwYMFl8+bNe6q7zSszAVAgHA5XtLe3L2hrazvO7/eXSJKQPRKkk3nOPUAxdj55qZZJu9E9kwQgRghRmSRqy6rIIoQXk9cx+2wviV8TKFM/LIC5F4fA0U4Cq3lZumSSSuKJ1GcAyF7nfE8D0H8AdFoySySdAIHOycd3BAYmH2Pvqv+0yftR225ayMmaTCZjoVDowdLS0rOLi4szllbvjnlkz2cpsKkUYDuGa665Zt+XX375gVgsVqZ5DvAAQCrFYwMQxFRh4PJjs7b4zf3wFHgZa8HmCgncvPrsBiGZ4WDIr7zyirMlg/UlWR5h2+sOgDivbcf5xMf1ne98xzd58uROAZ/1rtwj7cLK+Lx2ZO0OfKxwyndoRFAFYK7dTzH9wZP5xwZ8bEHBX1pIjg4cOPC+b3/729fMnDlzSXfvO2MWaCqVymlvb9+1urr63Gg0elAymRyQl5fn5wWqeJ+0IHVaNlEGL8ByM32dk3SgDnoxbqvNSNUVADJ4TRr7ct3Psww4E8hYTchtErOTyE46C5BdqbVWy3Pf70zwQGjDJnuZdrlObpDw4vENCWj0R5vEbaCFY3PtpDfhoLwjRcrYCWCfbwFNpgFdC81UYDF93QeFhYXnDxo06LHuJJruJlz2fJYCm0qBP/7xj5PvuOOOPweDwUrVXcOMBgARDQez5J8sMMx7gYsi3pjzaX+FM9cxb0mQE+9ivbktKuq7XfMKxSb8mm0JACCA6D+ESRMNq/stAGUCKcYhkOFZs2bN8s2fP9/R9ugzfFhCuvZk05jdFho3wFg+4MUf9Gy0LejFH8/keWw9ftdddzm+Lwm97e3t1fvuu+8NJ5544u+62oiuk+93NRlSqVR+OBye0dTUdExjY+P+iURiTCAQKMARCOLy4qiSbBl4+uX5Q6FQIBgMOvt1sJEh//FbBLETQA5CrhHAcJ80HIBGaqCchQIgCxBW89K43BKG+xoxajc46bdl5G6Q1Mtw0zCTtmOv0zWxOBuNYkpLa0KukO1YtMOZYLHYBi2Q8XwWXALOIpHmw3uR5COzgnuS2UmomlKKKOIZspOnUqlYe3v78mAw+Ov8/Pzby8rKmjeVeWTvz1JgUynw6quvDr366qvvTCaT8xC++McaYcdQfEGADJqQdmkWM2auWwBSgAD+G0xa1tRkGbmAwWtd07aqXxOZRltURCAijLXoBUJefMCLt2id2kAGngcPOOaYY3wHH3yws9bFJ+WWEGjYde8FNF5gajUkzsssCa+HJvBd6AjQknj69ttvO9F4aSyAmb1yxBFH/HD+/PmY3zKGX/cIgNKdzmlqahpZW1u7a0NDw07RaHRYNBotam5u5niQnTLBjWQyiTMj4Pf7Q4FAINfn8wFU/OMlRJPJZDQQCOR0dHQMqaurG9La2poHwZA8kFa0Na1VnRk8xxsbGzuWLFkSbmxsjGBjBPTy8/MTaeZJoeZOW2sgEBAgOsiXRm2AkN+dn/QVdb6wsDAQCAQEjHw61+gvDYjOec6lmTP3cGEArZA/fqcBlmvUDi/NebRl7NYRmpvnRBmmAKC0JpIKBPypgENKv9MWi0v+GL9/Q6SONMJUasPe8vKLaeEwUewOtRZ47WSX1CcfH7SNx+PxSCTSFIvF3gwGgw8VFhY+UFRUtHZTGUf2/iwFNgcFyAX6/ve/fw3WGfgO/k7m9NSpU509geAZAEpa6O3cwkCmNpvzwzoCNKhzKQlf5jlpQF7gYDUjaR+0AyNG+2FrhtWrV3+mqraAzFpZ3G27QY4+q/q1+gMvYM2feuqpvtmzZzvj5Nna3ZXrAGWNx9K8OxOc25pDOzJLYlZE02SM9957r+/pp592nsNz02AfHjly5F3HHXfc9XvttVfGCtifAeCeTohUKpXX0tLSv62trTiRSOQlEolQLBYL5Obm+uPxOP8chpxMJkPxeDw3Ho/nJZNJNjwHoGI+n6/D7/fnNTQ0THzttdeO+uSTT/ahtA8dx4HIBFBMvSLsGGjatvlKKBR6IBQKrQXxW1paEul9QFLRaBRgCcRiMb/MbclkcoPalUpxzDkvwOFYIpHgd4jJG4lEgmBJenJwvXOt/vGbe7iGz/T9QRQ6nWPcaIUcAzN0L2AMjTCP+ny+/GQyyac9H/D5gxueFUjRiYDf54eOQf+GewpisdigRCIxoKCgIMikKykpdqQ8+d/yNgCYI5mkJ0+qpaUl8mnFgrV+v789FAohlQDKnWNIgzHvhUSvJJJKIBCI5+TkdBQXF7eUlZVVl5WVLSkoKHilX79+bw0YMKChp/Mke12WAluaAuQnXnPNNV9/7rnnfp2Xl1eC6Yu1z5bVJGzio0ADUtUWmcEBG/mA6KOsMPAYvnOfQMIdfOAGBjHq/xMM/U5uDoIgG+W98847zj+3ic0NBl2Z6dRHCYnS9Hg2gMNYjz32WN/ee+/tNIv5HdBhHPTFbVrvTguy4GPHJ5MkYwXsqXrwwAMPdIatC+jb2to+2n///a89/vjj7x41atSGCIlu/rquBNrd3RnOE6mSPvV/dqUNB4LRaHTcI488ct6iRYvOJHaf4nXE7wNCEBhioxkx6LRqi7Zz2/77739NWVkZUjh9hqmq745mY/6pV3Zszvnq6mpHi0kTzOljMOgAgPPHnhZpbahTE9L1ra2tne21tbU559MTxN/e3u785l8kEnE+AUbMkAAzYBeLxQCUEOCXSCQcEOQ6wDsVTDkapD/haGmAmAPifr+/8P33359VVVX19WAwOJTJygIaMWKEM9FYJIC4ijKmAz7QDP89duzY3+Tk5DQlk0knygDQ4RkAMn+ojfxxPjc3Nx4KhTr69esXzc/Pb+3fv39jeXk5Wy+0+P1+hIfsX5YCfYYC8Jd77713l9///vf35ObmToRPwDuwpuAHwlHPutB2DNJ4WD92IzqZ+xkYawifCoxXgU6KYHNrKZZRy+/NMYCM3zjtq6qqnJwgRaplIl7aQuSc7k7TEm+kTQRQwr7Hjh3rO/HEE51tuxFQebaEU8aa3krFad8LYLyO2+uU9CpryqOPPup75JFHOtuVZSeZTLYHAoGHTzjhhGuPOOKIRbCYnkyYLQJAXRA70NTUNPa+++674KWXXjpj1KhRTvkKJg2qs/wQ2BSVfBWPxxPxePzHRx555I3biySOlpUG1LxFixYd+9JLL10ciUQqmOD84WiVUxUaKvEtrS53DB48+Pf77rvvBaWlpUghmggWsO0rcjShNKiDTj2aOD2ZXNlrshTYUhR44403hv/4xz++LRqNHoqlRCHHO++8s7MtN6YilQ5TlQOYpXuLBpmz8GmwrmC+Eu7kQxI4WG3FMmmlhvDJGgTMcMwTjLBmzZpOEuh+a4LrCoDk76FN9RsNBKBRIBLnACFMcV/+8pc7fTY8C37hlYrhBp2uQAiwA5gZB6V2XnzxRV9NTY3Dn6FvOkWGJPVPdtlll+vPOuus3w8fPvz/qrF2MwG2NgD5V69eXfGLX/zi2lWrVh3JBktoQHPnznVePsRFKlF0XbrYYPxTqf0Hhx122C8GDhzYtKUmdF9sF7PeI4/87aTnn3/+ikmTJo3FrjygtNSh1YbAhJhvzOiRzuSQHyw3NzdaWFh481FHHXV5T5yAfXHc2T5lKdAdBVauXNnvD3/4w8kvvvjiNclkcqDMQyRpog0oIVW5QMplpF2Z5izASFMBuBS8o+TUrjQg+VRUlYE2AUPMcPiA2CGU9lQ1W0E/apP7FFglbcU+zyvwwWpL8EsAD5Pjfvvt50TIQQOOKzhBtHRrQNL2dJ09zzH+oU0RVMFW2/AfTH+MQblSaaUhkpub+/cTTjjhqsMPP/zN7t6dPb9VAYgHr1mzZsff/va3P1u9evWBqMqYvYhpR2WWNMDglEyJCehTqfzKQw455NbtDYCg10MPPXzSSy+9eOXIkSN3wIQ4sKzM8ZcxaQHsIYPLneq7gDUTvb29PTpixIifHH744T/Ihkz3Zilkr92WKIAZ7oknnpj+s5/97NehUOhL0oJgmNOnT3eqImDKx5rCn61wAH+x6RHKNZSJCzO3mLF8QZl8QCoFxPW2NA+mMJIzqQ2HdmV9SjLtKZBIQQzS2GizM+E8uSFK1v2n/kiDUz/YEwkQggbyq0sLsu2qP0rhsAEOyg3k2IMPPuj4slAUeBZ9pN/pqDcFOq0aPXr0z88+++zbx48f3yslYasDUE1NzYSHHnro+pqamiOYHDjOJK3IYacghHRV2abCwsIrZ82a9btBgwaFt6VFsjn6+swzzx36yisvX1VYVLQzEzWdbdyZ6Txi+FAHgACjNChFhg0bdvWRRx55zeZ4fraNLAX6KgVWrVpV9pOf/GTBhx9+eF5eXl4hzBQJnYKdbN6mpFQBkARbG4UKU+W4yvrItIQA7DbBSfOwJjRpChyTKY5jrEmEaxg35Xn0TFu7Tc59+BwmO/l28Iejibk1mM9oDumNPAV8NroN4AGIAOF58+Y5IAxPlYnQal/qPzQAsKED/iuAE82HiD6bY0QfrJ8sGo1GCgoKnjz88MOvOuaYY17rrQl/qwPQmjVrxjz77LM/qq6uPl5Aw8D5U+igjkcikUg0Gn21tLT06mnTpj1bUVER7auLYUv167XX3pr14osv/MAf8O+9ISp7Qwi27MPDhg52bLIKuw4EApHi4uKLjj766J9tqT5l281SoC9QgGi4hx9+eJ/bbrvt57m5uTvBTGH6MFzMcBUVFQ4jB0z4h4DGP6UkaB1JQ8BnIi0ITcrtn8lkDhMTF4MXmAGGhC6/8MILTr9UeUFltVjLtMn1lPGhmjY8EBMaka78KbI3kxYk07vGCB8AyHiGEnLxrwPKtAsoE5zB9bqX6+Eh+OMBzBUrVjjBDDbBXeZIHeP+9C7Jq8aPH/+zSy655PaNURC2OgA1NTUNfP31109ft27dpUgtilRBE5IUz4vJz8+vLy8v/9/Bgwf/iVDgjRlcX1gkm9qHV199dcqLL7/y3YA/cHggECgPBnMC0IzFkpeX4+tfXOhM7nRyaioYDDaUlpaefsQRR/x5U5+dvT9Lgb5OgTVr1pT//Oc//86bb755XiAQKFE0Gn7SXXfd1WG6CLjy+yiai3HZ6DgleCt5lDVmK4oItKQFSROQ2U1gITMXJir4GSD0wQcfONoEfeM87conpBpvnAOEMLMDOvjHCaawmk0mELLmM0WlSSPTb5kd1X9Vs6EfAk4+BXgCW64DoBinfPOmT+05OTmPHnnkkVceddRRi3ur/Th92doTjBI/H3/88f7Nzc035+TkTAVJeQkwUdRWqb79+/dfPG3aNCK5/tHVjnpbu/9b+3k4W5cuXToxP79gXnM4/I36+sYpwWCQMkm+/Pxc9GFfKLShOgJJpIlE4pUpU6YcN3369B4lgm3t8WSfl6XA5qQAWtA///nP3W+77bbrmpub90lXY3YsAjvttJNjisPXbLeVEZjAUAUkOiZfEufQnqQF6bwFIu5V5K7aUSoJ7dAHRcRhhiNsmuMqW6OoPGki8EH8RmgjPJv0FEXwWbOfpZ80KD6l1cgfJD+XKjzot84r2s8GUsiy4o4EtD4xxkwKR05OzvJJkyZdf+yxx/52ypQpHRvzXrc6ANHJlpaWITU1Ned0dHScFwwGC2CmaEBS+9JZ/XU77LDD9yZMmPBHv9/fujGD+6Lck86rKluztubkT6qWn9Pe3j56g9QS9UWd0jshlegJFxYWXjxnzpxfZQMQvihvPzuO7ihQU1NT9Oc///mIZ5555ocdHR3jWBv4VDA34YwnQRUQkhlOpi+Z4wQeOo7mAtNGCxJIKanTDUD8toEIKg3EJ2ADXwOE2KJhyZIlnXlB6Zy9zkr/8h8BWgQtAEZUc0ATbca2ywAAIABJREFUUv+86CAflvrBb8Yp8yLHrS/JrVGp0oFyn6RN2esAb2lKKv2TTCbbiouLyfu5+KCDDqrq7h1lOv+5ABDhxdXV1fuEw+HrUqnUHiIQoYuorOkIDbL0H99tt93Qgt7bGPVuY4nSF+9rbk6VhVtrLq6vaziloyMykIIL1dWrfalk3Jms6cKsT0yYMGF+ZWVldV8cQ7ZPWQpsKQpUVVUNveGGG85cuXLlWbm5ueUAEEydHBlqxOEHYY1gjpMmILOUzG8cV3QpQjHgozBuGLMFIY2D4zBnaUo8U/9g7rQj6w55QfA3BSLQHt9t1Wp4IQDEcUxwKqeTSQNSiDfnFRotU5pCsQWsMq8pAk65hNLA7JgEtDZIQyDFGIqKitZMmzbtJ5dffvmtm5Lu8bkAUBrRC9auXXtUXV3dD0Oh0ChqnjEwiK9BR6PR9TvssMNFU6dOvdfv97dsqcnb19slMTUcDu+9evXqH0WjsX2SyXiwoaHJF41uyADnLxgM1vXv3/+0/fbb76G+Pp5s/7IU2BIUeO6553b4/e9/v3DdunXH+Xy+koaGBiqN+CZNmuSY4tAmtPkczFcAJGareogKj8YUhhYCCPHHWpPWJA1G2omYOLzLakFoNJje+EdeEBWk+W79TwIXmdPSJq7P7M7KczIFQfSWlhbMvNrUMfWHMatPaVBL5OTkvPLVr3717JNPPrlXeT/uvn5uAERH2traRlVXV58fi8VO8/l8hUwWHHGorObv+RkzZiwYNmzYW36/f8PmNdvZXyqVGrx69eoL165de4rP53OS7qCTHJ5IIDk5Of+z1157Ldwec6W2s+mQHW4GCmBZefzxx3e+8847/yuZTH61vr6e2pWUvfJVVlY6PiGV6cFXJHOVNCKb86PcIExoqqoghmxDqnWvTFa0qWRUnosGBODA01izhDVLw1HaifUzWW3E5g55AZDMZZt7QlgAkubHmOhbWiOLFBUVPTJ//vxzZs2atUlFij9XAGLCNDY2zqyrq7syGo3uGwqFQgoJVChhLBZrGTx48FV77rnn7X6/v3FzE7uvt5dKpXLXr19/VE1NzaWtra07Uj+OYA0mc3qCJoPB4Otjxoz55k477fROXx9Ptn9ZCmxJCuAv/dvf/jbj7rvvPq+1tfXgSCQyoKamJoAWQ7Vs1YpT0U5AQI5+Rcgp/wfmSxg1fyTK00Y62rQzWIo1qDBszimiTPtpKTeJNQuYEeVGmLOKhYoWXr4lmdAyaT89ASCBSSYTnte7sACk8dn7E4lEc1lZ2Z2XXHLJpRUVFZu0RcvnCkBp9bVwzZo1xzY1NX0vEAhMoFgmNlMCEoS47e3tr37pS1/6zqhRo97c3rQgasAtX74c8DnK7/cX4CCFPkpai8fjawcPHnzZXnvtdWe2cOiWZG3ZtrcVChAZ9+ijj+784IMPnl5dXf3VZDI5uKWlha1jnARNAhMohKyyO3Y3VDnZGasc+fAiAIugBm2NIsCQxmJ9P4qAk9YA8ChZHEAj34dP6+j3AiA3wLjNZb0xyfUWgNzAJV8U2+9EIpHaMWPG3HT77bff7Pf7Nyr6rRN4+8KkamxsHFdfX7+wra3thEAg0B+pASaLTygdxdFWUlLyg2nTpt22PW2KhvZTW1t73Jo1ay5JJpMTFd1D0EHaDNARCoXumjp16pWjRo1a3RfeZbYPWQr0BQqgCT366KOTHnvssROXL19+ZHNz89i2trZcBFzCmwlMwCeEVkPiqsKpFX4sbYh1htAngQ9NSEELShnRvfq0Cakcs9Fw8DSCrfhHuzK/WU1IprmutJMtRWOr/fAMlQ1SiHdra2sylUotnjlz5sLLL7/8sU3tx+euAaW1oFBtbe3curq6ixOJxF6hUCgHFZWYeF4m4ZAtLS0vTZ48+YxJkya9u72EGLe0tAxdvXr1wpaWltP8fn8Jk1cZ1Wy8197e/s7EiRPPnTZt2gubEomyqZMoe3+WAn2VAi+//PKQxx577PBFixYdz4aaTU1N/ROJRBANiOAEbQVDdJw0Dj6V+Q+AoCEh9PEPrQl+ZAt48l3go+8Kq0aY5hj3sn75h0+IAAci9dxajLaI8DKvdRUwsLno7wYggaFAtbW1NVpSUvLkaaed9p3DDjtsxaY+t08AUBqE+q9evfob4XB4Aaa4aDQa4CWhvkKEaDTa1q9fv8tnzpz5PyUlJRsMs1/gPyS4NWvW7FVdXX25z+ebE41GQ5gCZINOpVLUyPvprrvu+vPtgR5f4FedHdoWpsCiRYsKX3311T2effbZw1esWDG7tbV1XDQa7VdQUBCgXA/7axHyTICCQpZVLoeuAUCACFqQasXxqbI0Ah3rC1KFBBsVBy8DfPjEh0swggp/yhyn+nDSPgQAm2J+c5O3K9OdG4DSvNnR1tK5QC1jx46984Ybbrhw6NChm5yf2WcAiIFiiqutrV2YSCSOi8fjpUj72ErT2zIgRfy7vLz8N5WVlW8VFBS0JhIJ9hxvy8vLa/oileoBfMLh8MCVK1f+v0gksiCVSk1CWkJ6wgYdjUY78vLynpgxY8YlI0eOJEfKu2TuFl7Y2eazFNiWKPD000+XP/XUUwctWrToiOrq6l2bm5uHhEKh/CFDhvjxDQFGmNiIkFNhToBIQKPyNqxBrrEJqO6abdKQYOjaMA8tCADiN2sZCw9gJLCxeTryLbn389nSQOQGIJUmop9pc2H9TjvtdN0vfvGLn2yOd9+nAAifR11d3X5Lliy5YuXKlXtHo1F2B+2M16dY3rvvvrumf//+VcXFxXV5eXmRVCq1ety4cc+ceuqpj2yLjJgcn/Xr1xe1t7cXx2Kxovr6+gGRSGRge3v72Nra2oOi0eishoaGEuzU/EMKKSoqWjxx4sSrKysr/7K9V4nYHIsg28b2Q4GlS5fmvfLKKxNfffXV2R988MH+1dXVuzQ0NJQXFhYWjR8/3k/CKps8ShtSuDZCMN/5A3iU0CrQsAEFcvjrmMrz0IYCEmSKQ8BWjg3XK78Ivsd98kW5NSRd6w7V1ptUUIO7tpvXm5YvS2BL2wRj0FdMb0rKpdRXfn7+ijlz5px3wQUXPLg5Zk2fAiAGRLHS55577qpVq1adlEwmiyCO9nGnqN9LL73UaX+FILm5ueHi4uI/3XLLLd/dHCrh5iBqb9pYuXLlwPvvv3/eqlWrpofD4RHNzc2j2tvbByWTydJoNFqaSCTymUQUViSENCcnJzF69Og7pk6dem1JSUnV9l4hoje0zl6bpYAosHbt2sJ//vOf459//vmZS5Ys2am6unqPWCw2wufzlQ4ePDhE9WiAiCAFtCK7ZQM8SbuBuqPFvJI8bWUETFkqzwMI2Xw+aUJqk/usT4jzysuRaUzHvMxsVluyya72HiXdqgqEfFY8W31lR9S0FhcvLS195Ywzzjjt0EMP/WBzzKY+B0CpVKro/vvvv7S6uvp0JgMvGxssIEQtJQBIpSwgQCKRYAvqv91+++3f3NZ8IZja3nzzzR0vvPDC61tbW/fJzc0tzMnJCbmlFtTgvffe2ympHo/H2yZPnvyDfffdd7vMi9ockz7bRpYCokBVVVX+xx9/XPbKK6986fXXX9/93Xff3bupqWlUYWFhcUFBAVpRv7KysgARc4Rh8wezViCCQrUtRd0h1SqNA3NnLcPMCcsm0Ao3A4yec+mIX6cpmeBULsdGxlkQcj/LrQHptxsYramN7zwHDU1bRmAqVLSttnooKipqKyoquuv666//Xm83nss04/oiABU8+uij31u9evVZyWSyHMJhc0UlZK8K6impums6USs6dOjQh3/+859/e8CAAQ3b0tICgBYvXrzL6aef/hufzzdDDkgrVfGdibHPPvs4ABSLxcLTpk27dM899/y93+/fpCSwbYlW2b5mKbClKfDGG28MeuONNyYvW7ZswvLly4etW7duwtKlS3eKRqNDKioqSmbNmlUwduzYgIIO6I87ZFrgoE/5jVQhQdF0gI5ACE1IvhYBj/202o7ViAQ+XYGQW/NxAyXtYdZXaLl8PfjE2NLiX//6l5M8O3r06GR+fn7VrFmzLrjooose2lyWl74IQPn/+Mc/Lnj77bfPCQQCg1S7CQCijhIAJJsqxA0EAq2TJk365S9/+Uu2oG7f0pN0c7YPAL311ls7nXfeeb+KxWJ7oubb/APZeZGgdt99dydsNJlMtlRUVFw2derUO7annKjNSfdsW1kKdEWBVCqV98477xQsW7ZsUFVV1Y5LliwZ39HRsfOECRMOGD58+BhFxGXK4RFIqHipIuJYxwCNNo2D2WsXALQigY4CGCRoK6QboFFBULdGlAmE1Ed7Xv4ky184r4hjtvSeP3++ow2dffbZTrReaWkp5Xfuueaaay6YPHly3eaaQX0RgPIef/zxBU899dSC4uLiocTrQwgYM0EIr776aufe6+xJUVJSsnzhwoXz99prr+e2tSAEAhDee++9UTfeeOMPly5dekJRUVEQbQ/pSGq7wkEppggAhUKh1okTJ145c+bM3/r9/l7tv765Jk22nSwFthcKICQ2NDQUV1VVTV6yZMnZdXV1R/l8vlzWp83VkcZjwccCkDQhwId/ABHrXJvWwfxVykcAoZQLbYXAM2QOc5vQMgEQ78l9TkDHOYWW8x0T42GHHeY7+OCDffh92Mn1pptuApgo9/XqMcccc8Upp5zy5OZ8930SgP7+978veOCBBxaMGDFiKOXUhfpoQOxVrhcTDAYJQlhx4403Hj9+/PiXNpdauDkJ3F1bqVSq8M477zzhrrvuuj4YDBYDQEwKTRpNyj322MMBoFQq1TZx4sQfTps27fZtzeTYHS2y57MU6KsUaG1tHfbUU0+dV1VVhWUmX1sw2C0aBD7KJZKWolwf+Vm06Z0qLKhOHMCk6vaAhMK8ZfGx5j0Bi9sk56afNefb6DyZ9ZS7tNtuu/kOOugg39y5c30rV670PfLIIz420Vu+fHmqf//+b+28887Xn3XWWX/d3IFefRKAnnzyyfMfeuihc0ePHj0EJNb2scuWLXOCEHiB/KUr0Yb32GOPm6+++uqf+P3+tr46gTP1K5VK5ZMgd+211/6KqDdMjUy49J7rzhiRlvbaay/fxIkTGXtk2rRpP9pnn31u8fv9X/iE3G3tfWb7+8WkQFVV1djnn3/+svXr18/PyckJKn/HDUCqlK3jVtuA2dsipQia/JMmpGRPaVYCOVlDLGjItNYTAHKb9vSGBGiElF988cVOHtQbb7zhe/zxx7V5XrJfv36Lpk+ffvPChQv/siVM/n0RgPL//ve/X7hs2bKzg8HgIMCHiBOIVVVV5XvuueccFVbb2gaDweiwYcP++stf/vKMbS0KjolQU1Mz9Nprr124aNGiczs6OnKI+AN8tNWCqtFigqNsiM/ni+y4447XzJgx49ZtcbxfTPaUHdUXmQKY4aqqqnZ98sknf9zW1jaLNQkAuc1gstToU1Ft+nRvVscaB3QQMGlP32Xegw8AUNJS9GlzjrgPq4n4hoIdFEkrf5LeD7yT9rXZHvfDX7GucIxCqWvWrPGVlJQ05OXlvXbooYfevu+++z6xqVWvM82PvghA/R599NELPvroo7NzcnIGwXTRgiDw008/7aCz1NS0mQoAevjGG2/8Vmlp6Ta1XQMTe9GiRZO///3v/6ympmYO0oyq7fId8GUCMWlwDO6yyy5OEMKnZsnvT58+PesD+iJzvezY+gwFSJB/6623vvziiy/eEI1GJ9AxWWEEQtb3Iy3IApR8QDKpy6+joASAQBoR5xSAYMHHXW+ONuENshClo4Ktj/wzW3PTb20VrvQW5TcZk39bKBRaNmXKlAePOuqohysqKj7Y3GY3+2L7IgDlPPnkk99csmTJBX6/f1xlZaUf5xjRcH/84x8dEOIFa7+geDzeesABB9x65ZVXXuH3+yN9Ztb2oCMEIXz44YeTzjvvvF80NzfPBXz4p5BMaT9MsqOOOsoBoUQise5TVfi/Ro4c+eC2FvXXA5JkL8lSoM9RIJVKFT/xxBMnfvjhh9fE4/EBts6b3cTOHf1mw6QZlI2G066prHUAx5rjOGY3gFO0WqZac9YMZ69JRwk70XUCRfqg0kLa6RQTXGtrawth1uPGjXt29uzZj+2+++7/HjduXO2WDuzqiwDkf+aZZyYtW7bs2Hg8vtvuu+8+wA+yRCLhe+65p/y9994ryMvLC0UikWBubm4kGAwu/sY3vvGT448//t/bYhDCqlWryi688MKzli5duiAvL28gQKvSHEq4RfsjOmXq1KnRVCr14rBhwy4fP378K9kK2H2OV2U79AWkQG1t7fB//OMfF9XX15ObGEQglEajtAmBjZdPRpqQBQcFFgA2SlBVZBxgJC1I5LQBBMpDsv4lG1ptw7hV1Vsh3AIzRdT5fL54KpVaWlJS8s8jjjji0d122+3tiRMnrvf7/dGt8Sr7HAClHW2h6urqAfF4vCQUCuUCQMlkMvH+++8XxOPx/Pz8/CDXhUKh2MCBA+sqKyuXb6ubsbF51m9/+9vKp59++vhoNMqOp/0okBgIBHLIc0skEqlJkyY17b///o3l5eWr8/Pzn66oqHh+e9wddmssiOwzshSwFMBKsXz58l2eeeaZn0aj0f0UySaNRhpQJu1HWkiar3X6c7S9gdWElB8EAAFG0lZ0rz5tkqoqMQh0LFDp2fIH2dwh+o0ZLplMrps3b94Nc+bMuW/KlClrN3WDud7Onj4JQAb13f3jt/tYclvUfFyTPLRs2bKC4uLi/GAwGGpubg4lEolQNBr1U4Kof//+hEImYrFYa3FxcRgT9LY+5t5O1Oz1WQp8HhQgKfXVV189ZPHixb+gVpxNghcgeOUASSOyiaAWJNwBCe78IJnhFAFnAxDsd4GKQMYNVraP2mxPeZVoRwQyVVRU/PhrX/vaf48aNWqrR9X2aQD6PCZcX3kmkpe7L1nQ6StvJ9uP7YUC4XB48D//+c/vNTc3E6UaUvCBCoVCB4GNzf+R2U3n+bQA5N49VZqQ1YJ0TJFt8iFZc5vM9PZ50oLSViKnf9J4lMgK+PA9EAgk8/Ly3pw9e/ZVO+200xOjRo3aqtVksgC0vayk7DizFMhSoFcUIEp15cqVX3ryySdvyc/P3w1mD0CgdahQp/J9vGq0uR9mAUh+HPd23gpIUIFSzHGKnJNv2EMw/UxNOgtAFhzVV+5X3Umqeufn5yfj8fhr8+bN++GsWbP+sTWDubIA1Kspmb04S4EsBbYXClCl5IUXXjh23bp1NzQ2Ng4QyGiDTKLIFC5tqxS4v1uzmAUh+XLk67H7Bik6TmHTeqbN61HYtQDHq+QOz7b149Q3aUKMAW0IU38gEHhxzpw5l+66664vbC2fehaAtpfVlB1nlgJZCvSKAnV1daNeeumlG+Px+FGq36YyYEoudZvdbDScKhroodZ0ZoMFpOGo6ChakMryqHICnzLBqbSPNeu5E071TPl9bG4SwGWPE4YN4A0ZMiQRCoX+etBBB10watSoj7eGyT8LQL2aktmLsxTIUmB7oADBB4sWLTrko48++nkwGBwJ05c5DOYNuNjdS71McF5+GVvFQABiqxdIG1KiqoDIBiMIiPQerDnPvhuFWgtwFLAg85sS37kHEELbysvLC5eXl9904IEH/nRrJPZnAej/s/cm4JFc1d13V7daLbX2ZTQjaUYzmn08HpvgAGZznM0J2UhijGOSQEKCIRACWQBjGwgQsMGEOIRsXxJI8gH5QhKSN29IeJOwhc0YvMxmz4zHHs9otIz2Xb3X539bf7+Hw63ulqYltaSj59Gj7uqqW7dOVd+f/uece+5m+DbZNZoFzAJLsgBKZB09evSD6XT6FxYWFjyAgO4rZpxptSPrwulJqFL9sCNUURIgzI6j4iGIODFVZsDRtedSRjwHYSMVkMzaY0UE7I99F0ucPX7FFVe86cUvfvF/rXRatgFoSY+l7WwWMAtsdAv4vh999NFHf/j8+fN/FIlEdmPlUpa8wUAuqxTIJAQJHflaqh6ZIAA7EkIyGYFzhKRrjgpIzgHC8bIqA8EoYUfwuABEhdbY2Ji/PkyCF4VL//OFL3zhm1GKZyVdcQagjf5tsuszC5gFlmSBkZGRztOnT38wlUrdMjs7GwlSL1QNOulAwkdO/tTwkQDSZXaky43p2BI2bEtWPZBwYnuyOrcrY29xMirmGuZdjChMChjlcrm55ubmu7HSwKaqBbekJ8V2NguYBcwCZbTA4mqoN46MjNzj+34X1A+yxDB4U/kw3sNKA6UAiGpD/9UldKQSIlw0gAgitiXBw/Zktp3sn4z/YDtL9cD1RkXFGnHz8/OPHTx48HXPe97zvlBGE39HU6aAVsqy1q5ZwCyw7izQ19d35MKFC8h8+2HAR5a6oWKRsR5XFhz3k7BxpWZzP0JDw4cqhunZutAojtfqTJfiYcYcz68VEa4FEMI5kIqNH7ryFldp/bsf+qEfes1KqSAD0Lr7iliHzQJmgZWwwLlz52rGx8d/a2Zm5q25XK6JbjA5v0ZDRbrhpOuNA72EkU5S4DWIuMt3rf3DPsilGFx132RygnT1lQIg9oP9k/1JpVJDXV1dv/CCF7zg8ythcwPQSljV2jQLmAXWnQX6+/sPnD9//i8mJiZezBRlDuCM5WgAucrvyCwzHQ+SMJMKSMZyCBNmx8ksuaCYj2uOEV1qug8yZRwxIP5wPzlBNpFI+NXV1X917bXX/vamWBF13T211mGzgFlg3VtgbGyscXBw8NeGhobens1mm3SVAw0emYItS9xwPw7yBFQpLjgZvyGEpAKSYNIgCnLHySoJLhci3G8uAFFxpdNpf3Z29sndu3e/8nu/93u/Wu4bbQqo3Ba19swCZoF1ZYGRkZGGmZmZnxkcHLxjbm5uP5e3RlYYJ53qeT3anaYh5AIQISQHfBmzkRCRa4LJ2I9LAfE4DaGgrDvZD62A2AYBhPeTk5OJurq6D9xwww3vL/e8IAPQuvqqWGfNAmaBclpgfHy8aXBw8GfHxsbe6Pv+s8LhcH5MDFI8rrk+hA2Pwz6u5ASXUmLAX16TVDoyQUFv1+V3XNlwst2gvksg4rV2/SWTyWwymfzSs571rFf29PQMlNP+BqByWtPaMguYBdaNBeB2GxoaunFiYuJNqVTqymg0GpFLbEugyBiQSw25FBFTnl0DP42kS/NQgbiUjnbBuSae6gQFfTN0X5jlJ2NT6BMVEGrEhcNhf2pqqn/r1q2/cu211/5nOW+wAaic1rS2zAJmgXVhgcnJyZZLly5hvs/rPc87goUgCQPERQAipCbLGI4cpKWakfDBxVMRLRVAOoWaIJBZadwmQaPn/miXXJAKYl9xvAtAOAfXP5qdnZ2LRCL3LLrh0uW6yQagclnS2jELmAXWhQWmpqZaBwYGXoakg3g8fjiXy0UJHU42daVRu5SMLnFD1RRUF05nwREWUgnJ14wFBaVqy+OlIqIL0eXik+5F6X5j3/R8I1RGSKVSqfn5+X/+yZ/8ydd6njdVrhttACqXJa0ds4BZoOItMD093Xb+/PmXj4+P3xqLxQ57nhelUpGd5zYMxnrAlhltVEj8K912rnTsIAPpNGqtaoLSr7US0kDTiQgSgLwuCSEeLyG0WJsuk0gk7jty5Mgruru7+8p1ow1A5bKktWMWMAtUtAX6+vpah4aGbkkmk7fG4/FD2Ww2n4MsgaIVgYwJSRBJheNSO3KujVROdHfxvC7l43LF6YmmBI9USPo4wkTeFBdM9edSbXGNonQ6nUsmk6f27Nnz8729vQ+X60YbgMplSWvHLGAWqFgLQPn09/ffMjMzc6vneQcjkUhe+bhcUIQD/rqqF7jm9EjIyNiPTF6QaoT76yQEDSQCRiodV/wnyIWnz6nVDvqhVZJUY5yHlEql/FQqdWHbtm2/fPDgwS+W60YbgMplSWvHLGAWqEgLIObzxBNP3DI3N/faurq6g3C7YWCPxWL5/srJmjqhgDDSadnFYjz8XEJOn0u7wLQbDvszJiU/05luMv2aN0CqIQnUoBvkAiH2JQAXAdTf2tr6msOHD3+uXDfaAFQuS1o7ZgGzQMVZAMqnr6/vZdPT079WXV19OBwOV3E5amR4sRo0O65dZxJABEaQy02nZ2NQlxM95SAv25LQkDAJigu59nHNCSLwNOjkTSrktsNxdP2hIkIqlbrY2Nj4q0eOHClbKrYBqOK+MtYhs4BZoBwWAHxOnTp1cygU+rVIJHIQ5NExEMZ4NGgIk0JKR7rXtOIhEIIAJIEn3WAy/lIIQPozDSCthKQK0upIA1DGqfB6cWG8XDqdfnzr1q2/2Nvb+81y3J98n8rVkLVjFjALmAUqxQIDAwPt09PTPz80NPRrDQ0NezOZTASKh2439LO+vj4/uDJmoysV6FiPjvPwcwkvtkFAyDZdLjadlq0BVKzmG+El3XJS8egsPpfiYf95bnkP0dbiMuHZdDp9dNeuXT/X0dHxWLnuswGoXJa0dswCZoGKsABiPsh2Gxoa+o3W1ta96XQ6DFcb173BBFMMzJjfAiBhO4qPljr3R4IJCoeKQaZdS/cXgUAAybk5Um3QeBImrMYtFY4EmXSTuRIOeC4JJQ1C3T8dE1tcjyiTSqW+fOjQoVc0NDQMl+tGG4DKZUlrxyxgFlhzC0xPT7efPXv2FalU6o319fV7JRykG4rKA//dz8/P5//Lx4Js8Xg8H7cBjPDLwZoTVTk40/3mKlYqAeVSJqy1Brjo0j+y3A7OxVI5WgkVit24Yk3yxkhQueYR6YQLFGWNRCLJmZmZT1x77bVv9jxvtlw32gBULktaO2YBs8CaWgDldYaHh396bm7ud0Kh0BVBlaylywxgwSCM//LhosMvBmC45xobG/PXAwgAUPiBUuIADmABItI1p1/r2AwVi15Wm640qZI0ZKRyocLSaoqa7F4QAAAgAElEQVTbg26Ejv+43IIaVr7v+5lMZnZ2dvb25z//+X/qeV62XDfaAFQuS1o7ZgGzwJpZYGJionl0dPTHp6am3hKJRK4mKAqlVRMGgBBdaQAQXHOc/9La2pr/DEs00G0HlQTXHZasxl8dx5EQIiBcgX0JD4KjlMQDCRkXgHgTpNKR27QLT4NN7gs7xGKx3NTU1Jna2tpfOnz4cNkSEPL/CKzZE2MnNguYBcwCl2kB3/e9ycnJppGRkR+D8snlcs+KRCKedJnp9Oig90xGwICMKtBwzQEy3d3dobq6urzyAYyoagAiqYDkpci4ir5EBvtl0N+lbjSUCpXdKaR4XDEe6abTLjvZF5yzqqoqPTk5+Q8HDx78jcbGxrHLvGXfcbgBqJzWtLbMAmaBVbUA1vMZHx9/ycTExO9UVVU9OxaLeQzcUwUVAhA+YxyGKgXwAoww+AJCExMTeddbW1tbXvHgNX6hlmS1bO3+kunV2q0lYzo8Tqol7l+s6oFWUfo8MvlAnseltKSSYywK7rdEIjEci8XedMUVV/x9uW+uAajcFrX2zAJmgVWxgO/7DadOnfrhRCLx1lwu95yamhrMMn1m9j7n4Oi4DDpH1xxgRbWUdwmJxeSoeBAfGhsbywMHEGpoaMhfHxMVZPsutxeN4Yq3SOhI2PAYwlSqFGlcVirQ4HGpMamoXGDjdVCZLa4JlJubm/v3PXv2vK69vb2/3DfWAFRui1p7ZgGzwIpbwPf9ukuXLn3/hQsX3hqNRl9QXV0dIXCoZFzJAYQMP2MSAgd6tIFfWUIH8R/sNz4+HhoeHs5/jtgQVBASEZj1JkHjMoBMMNBqSbrltAtMt0vI4bzst2zPBUFXKrg+jwQQi5AuLCyMxePx3zx06NDfeZ73dCZGGX8MQGU0pjVlFjALrLwFfN+PX7x48fr+/v631NbWvhCFRQkNDr56OQXthpMTRvGaqdccyLk/tmMwxl/ABgkKIyMj+b+IAXV0dHxHFpwGC4En4VMs5iJjQxosQUpIx3R0PyRcXLCT84XwmpNPp6enP7tv377XdnR0DK3EnTUArYRVrU2zgFlgRSzg+37sySefvH58fPwt0Wj0uqqqqqicd8MBXwLGpYT057IGnCyrI11yeM3acVIN9fT05OHE2nLYj6upUqFIBcL4ijSQKybjShTQ6iboPbdTDQadC9vRb+zH68a8H1znyMjI+a1bt962Z8+efyhn6rXsiwFoRb4m1qhZwCxQbgv4vh+9ePHiC0ZHR+8IhULfF4lEqjFQugBTivuNkzw1cHRBUrr2AA60y5RtQGZgYCA/eGPOUFNT0zPuOMSHdHxGqxfpQisVQFrZlAIgqcJ4PI/jNeFaCE78nZ2dXfB9/y/379//nsbGxtFy30u2ZwBaKctau2YBs0DZLOD7ftXw8PBzLl68+FbP8340Ho/X0DVWCECyYChViFZMhQDERARZFUG67JCmPT09HRodHc1PXt25c2ceSLOzs/nUbfSR2XCuJASpVLSbjsbT+7jcfC5XXRCsJLTojqMLDmoI4Jyenn6gu7v7TT09PV/3PM8v241UDRmAVsqy1q5ZwCxQFgsAPpcuXbpmYGDgTaFQ6Kdqa2vrXIVDJWAIJT0RlfvoKtda9biOk247qgooMAzYSNVGggJAtX379nym3MzMTN6VpeGA9yzHI8GmYzPSeK4YjwaUVjcaNBJkPBZqjv1kdYbx8fGJurq6D2zfvv3PWltbp8pyEwMaMQCtpHWtbbOAWeCyLOD7fmR0dPRZg4ODb06n0z9ZX1/fmMvlPCgLJAHQhVSKG47QkPtq9SPVkUzV5nmoqJjkgH6wkgIgNDQ0lFc827Zty7vkkKxA4DAewzlGOJbtBU0ypXoqBJdCSsl1nAQTzo+YD34AoEQikUkmk/+xc+fO27du3fqI53m5y7qBRQ42AK2kda1ts4BZYNkW8H0/PDk5efXAwMCvJxKJl8bj8VZvUcKwIoGcCOpSQDr7TSsjF4AkhDhYs22CAudlrTnGT5CIAKicO3cuX0mhs7Mzr4QIEa5uyrZYRcEV/9FGK6SAJIBkW4XAxOtC3wFQuAyxbWpq6sKWLVvu3Lt372c8z5tb9s0r8UADUImGst3MAmaB1bMASuxMTEwcGRgYeEMmk/npaDTaXlVVFV6sTZafgwN1sRQAlap8JIAACZniLSoE5I0B6KBaAvoDmOE19kds6MyZM6F9+/bl68ixKgOLmlIVSYWiEwpKAYi8I654kssNJyGFmA/6BgClUqm5SCTyNzt27PhAS0tL30rGfthvA9DqfafsTGYBs0CJFhgdHT04NDT0hlQq9bLa2toOFC/AoRgsqSRkkF+qH+ynXXIypqPjPRI4WiFJCAA+PBaDOBMMWJAUQGRlBXyG2Mrg4GCopaUl/8t4kYSCrIRAMMhr0cpHA4X7BsEnqOAplRz6CxWEv7Ozs/f39PS8s7Oz84ue56VKvFWXtZsB6LLMZwebBcwC5bbA5ORk7/Dw8K9NT0/fEo/Hu8LhcNgFiaCEgmf+u/a87wAR4aFhxLZ14gHaYYzGpVQw6MtF7AhGHoP3UEJPPvlkvnICipoyNRvn5P5MRJCFTam02JYGD69RTiB1ZdERiNgPoCGcF8vs5PuD84+OjqLiwT29vb0fr6+vH1kN9ZPvS7kfHmvPLGAWMAss1wITExM7h4eHb00mk68Ih8M7qqqqIkHwCUo84CCrldByAETISSUkX7NvGPwJF84vYlYZPnv88cfzrjhMWqUbDvvxtcyAk+fUCocgZB8ILQlIl6oiwAg0rn8E+IyPj6cjkch/dHZ2vrezs/PhlSi5E/Q8GICW+02x48wCZoGyWmB0dLR7bGzsNTMzM6+MRqM9tbW1EQycQYkC0lUl5/to8Ei3WqF0a5cCkhcowcABnW457CfVDd+jTWxHbKi/vz8/V6irqysfv+KEVql8WDmBEAsCn1ZAQYkMEnLoP5WVdL2NjY090t3d/b7du3f/b8/zZsp6U4s0ZgBaTWvbucwCZgGnBWZnZ7cNDg6+enZ29tXRaHRXNBrNw4dJBhIOQZlt3O4CkISYKwak1RTb0FlwsvNULTpDjllvdHtxeQcE+hETAngAIfwQEDgG10pAEBauGI+GkoaPVElS+QA6AB+3QX1NTU2N1NbWfmTPnj1/FY/Hh1bL9cZrMADZgGAWMAusqQVmZmY6RkZGXjk9PX1rJBLZXVNTE8HADDcRU51LBRDBwf3le5cLLghmPE4bRgb7OdBL4OBzvpeDP6s2TE1NhS5evJifw7Rjx45881I5aZi4YlAuADGpQAMSWW4yXZwuv0UYJZPJ5L/u2rXr7vb29qMrVe+t0MNlAFrTr56d3CywuS0wNTXVOjk5+fOTk5OvD4fD+7CsAi3Cwp9B8JEuOK1+XMdIALncbboN152RgNCDvc5Yw+dQNVAdVDrImEN2XF9fX75+3JYtW57JjpPxHACFikgCxwVAVlV4RlUsJl8wLoV2AB7OV2JyRDKZPLllyxa63mbX4kk0AK2F1e2cZgGzAILfTZOTky9PJBJvymQyB2OxWIRFPDFgI+VaViAIcrFRreisOKmCNHwKxXvkeVxqwwUBnQZNdcR5S3KuEOMvZ8+eDbW3t+d/0R9W0+bngJVUNi7AASoSQPK6qMZgU1Q7QF/wGpl58/PzYzU1NR/du3fvn9fV1Q2u1eNoAFory9t5zQKb2AK+79cPDg7+zNDQ0Fuqq6sPR6PRfKo1fl1r+7gy3qSbTEIjKMaD7Uyb1q43eSuksnKlP7vm5rjm4bB/gASrJMjXAAGqJuzatSufIQdAALrYB6qJi90FwQ3tc+4RQSWvHZ9jO+yJygxMuZ6amkr5vv/vO3fufH9bW9uDa+F6e0atbeLvgF26WcAssAYWAHyGhoZ+bGBg4LaamprvkWDQrjMO4q7tUvloQOn9Xe43fek65VoCzgWYIOhQ/ci/WknxPZTR6dOn8xUTkCFHtxmz4OQ5ZHo1+0q1xL4yi46gxTEy8WBubs5PJpMPtbS03LV3797Pep73dCG4NfoxBbRGhrfTmgU2owUWl9L+oZGRESyrcG0kgnyD8DMVBrRrjEH45QJIHqeTEJZq/yDgMBtOtkeV5JrHI8EEZYJ+nTx5MnTo0KG8QmPsizBxud54LgCGiQU4l5yLxPPA/YZ20+m0PzU11dfc3HxvR0fHx1taWiaXaoNy728AKrdFrT2zgFnAaQHf92uHh4dfPDo6+rZMJoPVTKu4oFyQ28zlepMusiAVRPDIWnHcJmNDxW6VdsHpJARXCrQEjGvukDwnkxRQRRsZclBCOAauOMDJBTDGdtAOAUQ7AUaMmzE2tLiPPzs7O+v7/j9v3779g52dnSeLXftqfG4AWg0r2znMApvcAr7v10xOTj734sWLv5PJZG6oq6uLMT6BwdOVtQaTBW13ZcBJWGm14zoH4SWBoW+TVB/crxCEeDzBxZRsrY74HvEZzA9CDOiJJ57Ib0Z6tkzn1m1KKOoMOFZfkHDCOSYmJtKJROK+7u7uD/b09PyX53lPrxOxxj8GoDW+AXZ6s8BGt4Dv+9VjY2NXDw0N/WYul0Nl61pmuXGgDVI6QZlvUllouEilA4VB0OhzBNndlXgQBB+9PQg0sk0JPCgWJigAHo899lioubk5X7wUWXB0qbnOwza5D+NH7ANrzSWTydzs7OzZhoaGj2zbtu0TK73I3FKeZwPQUqxl+5oFzAJLsgBWM52YmDg0PDz8poWFhZfHYrEGuJdcKdMuUDAGxM+CYEK4SPhQBeljZFtBwOB2WU3aFQOiwtFKyXW8BI/8nGsbASRwu124cCG0devWPIQYB5IAkqnZuEbGgKQ7Dv1ZTNH2x8fHUWj0Uz09PR9uaWk5v6QbuMI7G4BW2MDWvFlgs1oAC8pNT0/vGRgYeGMymfzF2traZtgCAy5iP5z3Uor6CQKQK9uNikjGerSSct0Tl0opFgOSYNBtBkFJtkmASdCNjY2FpqenQx0dHXl1xB8db8J7XCMhxQrXTIpA9lsikZj3ff+/t23b9sGurq5vrmah0VKeewNQKVayfcwCZoElWQALyi0sLGy/cOHCa33ff202m22H8pHuJsQ9GDAPSqPWJw3az5Xt5oKOK9W6kAqSqc8SNoVSsCUwCiUhECjou7QDUrNHR0fzCmb79u3fYQJX0gP7SAWEfaCKEolEam5u7sGurq7f7+np+TfP8xJLuomrsLMBaBWMbKcwC2w2C8zNzXUODAz88sLCwhsikUgXFI9evVRnvukUbK16+N4Vy9GuN52QILPJZNwpSMG4Up8LZbwValMrK61oWHIHwGHMChlxgBDWEUJMSGa0AeJw1XEbro215rAdyjISiWTGxsZObd269SOtra2frqS4j/wuGIA228hg12sWWGELTE9Ptz013+RXpqamfh1r+mBQdVUgWAqAXPDBNj1PSIKIx0hXHCFCQEklI8GgwRSU+SZjQDIzLwhWOq2aNd+YQECbYO4OsuPGx8fz9eKw+is+A6RYTQGgYawHbk243Baraefm5ub6o9HoX/T29v5ZQ0PDyArf8mU3bwBatunsQLOAWUBbwPf9+GOPPfbKVCp1m+/7O/HfugSNhIJMEtCxHO5HZRGkflxKJyj2E3S3XLEavc0FFPZN7usCDGEmFZ0EH4+Rbji60bCaKtRjZ2dnPnbGRAW6MmXiAYCUzWb9RCIxmcvl/qmnp+f329raTq/2EgtL+VYYgJZiLdvXLGAWCLQA4j79/f0/8FSR0T8Ih8NHkEZcbD0f1zwfnWLNE+pMN2zXadaF3HiujrtcbVr9BKkhB3y/6xQ6huRyBeo+EE7Yl2sIISsOMTMeD9jgNdrHNaOu3OKk1uT09PTnu7q63t/T01NxSQfaQAYgG1DMAmaBslhgcHBwy9DQ0Ierq6tvjkajUSQdMFPLpYJw0lIB5Eo+KHR8sWSDYlAJcs1pWLiSDHTMx6V2pCvQtZQ31RLUD1QQ9gGE6MpkDIjnR+JCNpvNpNPph+rq6t6/f//+z1Vi0oEBqCxfNWvELGAWkBZAyvWZM2duGhkZuXfbtm1bvad/vkMBSZcbj3VNFJXtMsbjcrUx3ZqDtdyH24ISACSAXO42fs6+BKkUqc6km06DSaoaDTdZyRrtyffYF/EgzA3q7u7Ol+hh1WxABz+LJXty09PTT9TU1Nx91VVX/b3neWuyvs9SvxWmgJZqMdvfLGAW+C4LIPHg1KlTH/V9/2Xbtm2r4toziFsQBjpBwKVguC8BUCjtmsfLY1yp1zrxgG1zoC8lBiSBpeEkYafjQS4lJduiG03HmAhXrgrb39+fV5PIiKMKYkLC/Py8H4lExsLh8EdbWlr+uKura3S9PKIGoPVyp6yfZoEKtsDZs2dfeOHChY+1trbubWtrC3MhNmaJSZUS5HaTWWQSQC6AuVKx5fEuBSLhhMF8KQCSIJGqiokIvE62yXNJsMjbx+1UeFxWgVUNmDnIxASoIJTp2bZtW36C6uTkZD45AZlvmUxmPpFIfHznzp1/sHXr1scr+DH5rq4ZgNbT3bK+mgUq0AIot3P//ff/Vi6Xu72lpaUxHo97Lsi4Mt2ki811aYXa0QpKKhG2RUC4Bn9sk0kCGiz6vVZBPL8LTjKzTfZFKyL5HhCS1axpG4AGn505cybU0NAQampqeqbf09PTqVwu92/bt29/57Zt206t5eJyy3k0DUDLsZodYxYwCzxjASytfezYsT9pbW29sb6+PoY4BVxvUh24MtgKZbuxcQmoIIC53G6Ehes2aXdXKS64IHCgTzo+xHNSFbkA5YoDaQDheNgSsR6kXWNOEEr0tLW1MfMtnc1m/72jo+Pu7u7ub1damZ1SviIGoFKsZPuYBcwCgRYYHx/veeCBBz61Z8+e51VXV1dh4MR/7UwR1u4y7QqjcuFflytNJyHIfXXyQVBHNXikoglSPy4V5FJXhWI9hRQQ+8A6blIBMYkDKdcAENxwZ8+eDXV1deGw7Ozs7Jc7Ojre3dvbe5/nean1+IgagNbjXbM+mwUqyAKDg4Pfd+HChb/asWNHL1Y4xWBMZaDL7+g4D2McLqC4wOTKdHNtk4O+Bo1LzWgVFBS7CVJU+nyu88t+yHZwLgKI6/nQTvgMNuTSCidOnMjHgKqqqr7S2Nj4vr179355PaRbBz2uBqAK+iJbV8wC680CSL8eGBh4XSqVek9tbW1rJBLJp1+73G9a4XBALqRmNLBKAVAQJGTigTy3Cz5BsNBtB8WJXEAKctVxO+HD97TjYmHRUDweDx09ehTLNHy9ra3tfYcOHfqS53lP52Kv0x8D0Dq9cdZts0AlWGBycrJlYmLi3oaGhptSqVQtYj/4ZXFMF0Bc/Q5SMYXccRpcfC/hIkEg19Ep5nIrVQHJdlyqp9h5JOjYP91P2JLZcSdOnDi/Z8+ed3Z1df3zli1bZirhGbicPhiALsd6dqxZYJNboL+//4ZUKvXh+vr6g7lcDvLnmZpliAPxR4NImy0INBIqpaihQsojKNnApXaCVFEhBSTPHZR44IoVSdgtFhN9JkWcIEf8J51OT09OTv7l4cOH/6C1tbW/kmu8lfq1MACVainbzyxgFvgOC/i+33jx4sX3hkKhX4pGow01NTUe3EiIWeAvAMQBV2e8BW0vBhz5OV6zkoJL/Wj14arLVswtJi+4UEKC3k8rKBeQcIxOAyeA6I7DX9hufHx8PhaLfQLLK6zHdOugr44ByAYVs4BZYFkWGBkZ+b5MJoPCo1eFw+FIUEXrQlCh+tD7MP1ag0pm0GkABQ3yWhUVitu4VFKh412AckGN2+TKpzwWFQ0IaGS80RaL2/3R0dFkdXX1p3ft2vWhlpaWR9bbXJ9CD5cBaFlfPTvILLC5LTA9Pd0+Nzf3rnA4/IvhcLhJ1nnTkAia76PVDN/r42lpVzsEVTFIBKmXIFeZ6+6W4pbTLjYNI92GrMbAeUCEcjqd9mdmZlKRSOQ/W1tb7965c+e3PM9Lb6QnzwC0ke6mXYtZYBUs4Pt+ZGRk5GfS6fS7Y7HYQc9D4YNw/r/4QrApBBL5mWxHtue6NA0gqajk61IApI8NUjdB+5UCHx7LfQEdXINMNACUUGInnU4nE4nEF7du3frBnTt3ft3zvOQq3N5VPYUBaFXNbSczC6xvC2DNn5mZmf0zMzPviUajP1FVVRV3TQR1JR24MsYkQAolImirFYohFXKxueDhSgzQiqoUmLn20XEnrbg4D2pxMbk8jACf+fn5RCgU+kpLS8vv79q1a13P9Sn0xBuA1vd4YL03C6yqBXzfbx4cHHxDKBR6Qzwe78SAKgEkwVBIvXA/XQvOlenmAlepF+2Kuej2XMCSE0FdYCnWhgaNPodMuUb7VEBQRAsLC0nP875RV1f34b179/6353kLpV7vetvPALTe7pj11yywRhaA6212dvZFY2Nj76qtrX1hbW1ttVxGWnYrKO1aD9wud5sE13LhU0jVFFJB+hpccZ8gd552r/FYVxvMcgN4OOEUKgjwyeVyD7S0tPxhb2/vZz3Pm1uj270qpzUArYqZ7SRmgfVvgfn5+e7p6enfDoVCr4zFYm0u1xuusticH22JoJiPHrhl2y5rFnO9FTum2OcuqGmF5YoDyYmlOAfeyzRrHINtqVQqlc1mj9XW1v5Je3v7Z1pbW6fW/1NT+AoMQBv9Dtv1mQXKYAHf92MjIyM/nUgk3t7c3HwEiQdcLM0FBkJFQsHlktMuPNlVDsxBrrwgpeQCl25XmySon4Wg5jqPdr0ROBJUBBDn+ED5pNNpwOeRWCz2552dnZ9uamoaL8Ntq/gmDEAVf4usg2aBtbUA6r1NTExcOTc3d1ttbe1PxWKxOpcrrZhCWY46ksVKcbxWGC4IFXKRFbOkBmcQzKR7TfaLr/k5F+bjgnOYOAtwAzpcLXZ6ejqTTCYfa2xs/Iuurq5PNjQ0DBfr50b53AC0Ue6kXYdZYIUsgDk/iUTiV3K53BtisdgOJg6w4nWpLrdSUrS1UnHFgArFhYrFfgq52XQauYQP22W8Rn+mocfPARxktXFpCmyn+w3bEolENpPJXIjFYn/b0dHxV21tbX0rdBsrslkDUEXeFuuUWaAyLOD7fvX4+PgPpFKpt8VisRdGIpEo3WZ6Dk6xOTtLAZALJMXgUqryCXLdSZC6XGkuOLogpdURAAS1g/YTicQzlcIXFhay8/PzA/X19X+3ZcuWv2pvbz/reV6uMu786vTCALQ6drazmAXWnQUW5/wcmJ+f/03P834uHo83Mi7DdX4Io1IurlSlFBR3CQKQVkT6+GLgk+qmWPo1rzNIAUn44DWrWLM+HlxvOEcmk8lNT08Px+PxT2/duvXP2trazmykEjulPA95l2ypO9p+ZgGzwOaygO/7rSMjI6/IZrNvrqmp2YPloZk2jAE1KA4kB2lpsVIAFKR8tKoIOge2F3LRaRgVugbdF5ebTQNJA4jvAR643BaXqvDn5+fHc7ncP+3atetPmpubT2xG+BiANtd4YldrFijZAnC9zc3NvXhmZubtVVVVL66pqanG4M3SMQAQM7tKmXBaTIVocGgX2FIApF1lfO/qJ2M6+cHQ+87/xwspLvZHx4S4XdZ4wza44Rbb82dnZ2cjkci/dnd339ve3v6w53mZkm/MBtvRFNAGu6F2OWaBy7UAXG/JZLJ3cnLyTeFw+Jeqq6sbmXDAmm+uAdt1XuneKgQCCSCX8qDrr5C6KaSKgmyioSNdcHQvSncb++lywUlIEkAANrdnMhn/qTT2ZDab/a/29vYP9PT03L/Riosu9dkzAC3VYra/WWCDWwDr/ExOTr5sdnb2bfX19fuqqqo8rlPDReYwsDKNWINFu6okrILUkusYCSKtKIIAWAqg5O0rBiAX1ILcbC4A4XjWeUulUplsNvv51tbWD2zU4qJL/WoYgJZqMdvfLLCBLQDX2+zs7PNHR0dvb21tvT4UCuVdb66BuljWm4REITC4PtMuNz3oU4lQmUkFJW+PS4HJz13VtHVbun8u0ARtw5wfnGN6etpPp9P/s23btt/r6en5ykasbL2cr4UBaDlWs2PMAhvQAphwOjs7e3BsbOx32trabkqn0/XMdguC0HLMIAd0GUNxgaPUWFAQgAqpHXwmAea6Fu1+43mEWy2/Kivec34P9uHaPmh/ZmYGm77d1tZ2544dOzZsZevlPAsGoOVYzY4xC2xAC/i+v6Wvr+81kUjkjY2NjduY8QZIyNiPVDbFzFCKS0xCRiYFFIqzFFMp7GOxGFRQ4gGvKwhAsr4b4zzsO11ueL+4tMLDbW1t796zZ8/nPM/DMgv2s2gBA5A9CmYBswD+g4/39/f/RC6Xe1dTU9PBVCoVZoyHq526VFCQ6ZbicpMAkgO/hIzLJeeCULE0awlPlwvR5W5znUfHpBgjk8oIAF9YWHikqanpd+vq6j7b1dU1b4/ad1rAAGRPhFlgk1vA9/3o4ODgtYlE4r1NTU0v9DyvCm4lDKCEj1xyu5C59ACuJ3a6ABMEIJ2YoN1xui2+l2AJ6k8p8CkGQ0AHNsL8KLyem5vLu+KQqIHYz8zMzOMNDQ3vb2tr+4ctW7bk/XD2YwCyZ8AsYBZYtADW+JmcnLxyYmLi3dFo9CXxeDyfdECXGwZU+b6YwigFQHIfuWJoEHCoQFwAki67UtQYVVwxMPKc2iXI7dIFBwjRTouqB0Dqi0ajH+zu7v5kc3PzhD1wbguYArInwyywSS2A+T6jo6P7x8bGfq+hoeGnqqur8/DBf/SIXdTW1uaD6XrQphtLD/7F4j2FlI7+TMdegtRPkArSt1TGguT1BJ1HA0jDkQACqGdnZ/MAqqmpydsNJXYaGhrubW1t/VhHR8ew53n+Jn3Eil62AaioiWwHs8DGtMDCwkLvqVOn3tPc3PzyWCxWXVdXl4cNBlG6lWQWnL2yovMAACAASURBVLQCB3E9MMt9qApc+5QCHNc+BEMxhSIhKY+R8MFruU6PC5D6fFoBIeGAmXQLCwsoNjpZU1Pzp93d3X/W0tJycbMVF13qN8UAtFSL2f5mgXVuASifqampXWfOnPlQS0vLT8Xj8apYLPaM0qH7DYMzAcQBXf7laxmQ159rIHEAdyma5WyTrjSpcgr1o1CMyAVLxsOgBhHfWVy9NG8vxoGy2ay/sLAwFQ6HP9XV1fXhjo6Ocwaf4l8UA1BxG9keZoENYwHM9env7987NTX1nlwu97Lm5uYI4IOMNw6+GHAJCsKIg7YO3gfN45HKgcYrlkRAd1ih/UpRKTpOxfO7Eg9cgJR9lzEqxsIQ52GKOvqDEjszMzMz4XD47zo7Oz+ybdu205u1uOhSvygGoKVazPY3C6xTC/i+X3vx4sUjo6Oj78hmsz/W0dERRtyCKoeDrVxqgZUCggDkmsgp4yrF3GgSThJAQW67oPaCQKL771JGQW5EuhCR0Ybr55IKgA/n/jyVtu6nUqn5bDb7b+3t7b+/Y8eOhzZzcdGlfjUMQEu1mO1vFlhnFkCm2/z8fEdfX99LZmdnbw2Hw9/b0NAQaWlpeSZ7i//1c6ClsikGoKB0ZpeakcpCDvrSLaeP08eUAiB5TCkAcvWL58HxXMMH1woYcX9sTyaTmFj6hS1bttyzffv2r3uel1pnj8eadtcAtKbmt5ObBVbGAojzhEIh+NLifX19+ycnJ29JpVIvD4fDXQ0NDeHGxsa82w2qh7BhgF674KgaXK4tCRIZj9FxIZcq0u47rYCCIFUIZFJR4bWs9Rak4gpBjeV12FeoHy5FMTc3l/R9/xtNTU2/v3v37s97nrewMndz47ZqANq499aubB1bAKolFApVhUKh2NzcXG04HI4mk8mI53nYjuUSAI7899f3fR9xnEVQhNPpNCaSVodCoebJycmrJyYmXprL5a6tqampRWXreDwewi8GU1Y74OCsi3MWU0AuE2NA15UCJIDkMUGJB65YTyHXXtCtdkEzKAnB1T4BjfYBIyggbMtms+lkMvlQa2vrvbt37/43z/Nsoukyvm8GoGUYzQ4xC5TbAr7vAzbxhYWFplwu1zwzM9OezWbbJiYmurLZ7M50Ot2czWZrc7lczSKc8v/gQ+mEw+FcKBTCL/7jr/I8L+p5HqC1JZfLdcZisYZYLBbGf+4ADuI++IsBVWe56QFbqoZiCkKqDwLItYyCC0BBqiYIOqW44qjoeD7df5mGHQRCHrMInTyAkslk1vO8szU1NX/c1dX1yaampvFyPw+bpT0D0Ga503adFWcBZKQBOtPT09sSicSeRCKxP5lMXpHJZHZnMpnuXC7XVlVV1eD7fg3caczCojtIus9kYByqBWChKw2pw0whfqouWX47BlK9qqlUP66F5/SAXggkBIdckE3CpJAKke3KLDRCSicN6LhRIWjqayilfaZaL6qgXCKRGKitrf1Ed3f3XzQ1NSHd2iaaLvPbZQBapuHsMLPAci2wqGCap6ameufm5q5aWFj4vmQy+T3ZbHZ7NBptrKqqApjyi8BhcAUMWN4fAyiAwv/eAR7+d84EAoKErjBMKoXqwXH8TFe3XnTffVfVgyDVw2tnFpwLCizQKQt18jxalbhcbnR7SXXE17IUjgabhEyQopNqTQKd22lTZr4tTjj15+fnJyORyD/39vZ+tLm5+bhlvC33W/D0cQagy7OfHW0WKNkCAM/MzExLKBQ6uLCw8IJkMvmiUCh0dSaT6cxkMlEJAcKDLjLGH7CdyoYKiIOxVkiEF8ADCMHtJoGi4z1aObgGb510oBMJNCC0K06DxwUXHS8Kis243GaEj8vdpuGH91JFaohS+RDWk5OTc9Fo9As9PT33trW1fdUy3kp+9AN3NABdvg2tBbNAQQsQPJ7nXbEInuszmczVnuchzoOYzTOZaHpAZpIABkMGwKk6ACVXlpccmJGcAGBJ9YPPC8VHXJ9plxnfBykXCR6tgKSxZLu8dulSk4DTwHGBaalKTrrgXACC8lmshJCYm5v7Zmdn5727du36T8/zbGmFMnzvDUBlMKI1YRZwWWAxFbphfHz88MLCwg/4vn9dKBS6CrGdXC6XVzwcAPWgzOUPCAu6hOQgzGMlMGR72I6ConI9Hw7yrnhOkAKS+2oFpM/H6+B+YsLmM5lxLtUT9ARRCeo4j+u9VFfFlJDsJ92Z0q0noZnJZNJzc3MntmzZ8pF9+/Z9xvO8aXviy2MBA1B57GitmAW+wwK+71ePj4+j5M0PZLPZG0Kh0HOi0Wg7stQwKOMXPzqGQjca3T6I8XDAlsBxBfQ5WLMN/OcO11uheI++ba74iQtWPM6VrCDbZD9lPEjCQyYpaBjL2AyvTcJLbtNAkSWEtCtR948AYl/4j8HiHKBcMpnsq62t/cvdu3f/ZX19/ZA96uWzgAGofLa0lswCSBoIz87Oto+Njb1ofn7+p56aJX9dJBLpqqqqimFQ1AkD0sVEcEjguFxQWmXwPQdwnAeuO2bCBakd7f7SCkiqJQ0atsmECOzLvkolohWQVBY6SUF+RgWlIaTdcHK5CIJNQ5x9cz2eWlFKYKLAaCKRmIpEIv+0e/fuD7e2tp6yAqPl/ZIbgMprT2ttE1sAc3nGx8f39/X1oerAj9bX1x9AGjVAgAGcqdIYIAkIKiE5aPM/cCYcaHeT/g9eqgK2zfbpwtPtB6karYB4PK+BIOJfPZFVurHQFisJSFeahhCvj8pQg0jHenRb7HMQgDRoXQoIx0pYLmYdoszOl9rb2+/etWsXyuw8XYfHfspmAQNQ2UxpDW1mC6DQ5/nz568dHx9/VTab/dF4PN6GZQ5QsUAW94SN6HZjWRcJEPnfOgdOPahLmGhXHFWPBpxUN65zuADF/eS8IvlaKh6pVLQrTcdxeD1y0Cd0CSGCS7ogqVZ0goOEJrPa2E993S740P5Up4vwyWQymUfa29vfu3fv3s9amZ2V+XYbgFbGrtbqJrLA1NRU68DAwE+Oj4//oud5z2lsbGxE9pkM2LtUC2HEQVIO1HLwl//Zy//mqU6oouAOA3hk/EO6sjRk8J7zXPia8RC+l0Bj24UGcX6mYSFVnFYwLnVENYIsNKmiCAtdow1tSDchEy9oRwkpCW3EyKampkJYjA9Zhovn9WdnZ0eampr+6MiRI3/qed7YJnqcV/VSDUCram472UazwKVLl7ZeunTpDWNjYzdVV1f3NjU1xTCo8T95QEEPytIGGhZycOTgqVWOjAuxLbSDc3GOkCueI5WPbFsO0hzgCR4mMdAFp110riw+l8ssCEA6CUHHhei2pD1ljEa7Jtk3/pW2kPaQ/cP5AFYoVW5Pp9MoMvrPe/bs+d329vYzVulg5b61BqCVs621vMEtMDw8vO38+fNvm52d/Xnf99uam5vD+E+arqWgOItURtxHVi/g53I/qh0JM25j0gEVijyO7Qa5orCvaz0gwgwVFKjUtJqQaong4l95DUHwkS4417whwohVIKhQpAuP6ol9k5UeNICk0mQ/ATj+w4AltaPRaHZ2dvabO3fufGtPT883rdLByn6JDUAra19rfYNaYHZ2duvx48dvn5ube2U8Hm9GdWkOeBywmfVWzASuIHmQ+04DiLEOqX6k20227XrNjDEmDOAa4D7kEt0YnF3KSQ/mul8aQC5oBLniZBICXW2AD2DBv9wH55XZfxLohQqtSvsyFreY9dbX0NBwx5VXXvlpq3RQ7Mm9/M8NQJdvQ2thk1kAMZ8zZ868bWZm5lbP85rr6+vztdY4yDIzDIOldMG5zCQH8iDo6LiPbEfGaHRSQDH4EJTyOAAHMMVfCacgNSf7oqEj1VBQZptUPgSSC0BcBhs25a9cFlteC/tNAEnXnAQlXwNyiDVFo9HUwsLCn1x11VXva2xsHN1kj/WaXK4BaE3MbiddrxYYGhqq6+/vf8Po6OhvP1WOf0skEvEwWDNWwuviwCpVkeuauShcUKabPkarG2a7SReejoXINoJccdjOpRpQPYH9lmnXpd4zHQMKmoQqXXMaRIwNyWw4xoEAi0QikQeRPJes+MDXGkIaQEzgWFzd9L6dO3f+8q5du05b3KfUu315+xmALs9+dvQmsgBK6xw7duzm0dHR90QikT2e54VlrTVmlDEVmGvuaBNJZcKUbLqRtDtOx4HYFgdYut5kPIYKgPsWU0L4HO1AxeF6WLRUK6Cl3GqthmQmmws82h0ngcQYEEFGACFxgNXA0TcJGyZNBAGI6gxtog3f9yeqq6t/+9nPfvbf2GTTpdzpy9vXAHR59rOjN5EFHn/88SN9fX0fyWazL6iurq7GwIilrenC4qx8Wa2aysRlJu1+k8pF/mcv/2tn4gEHWKm8dCxEJy4ExYDQFlQPEigAIsKD8SXZd6nAOIi7Yli6z8UAJGNEUjGhHbrfuA+UDxIGACAoIdlfqdjonkQbMkWb/cZfnmt+fv4T11xzzZsbGxst5XoVv9MGoFU0tp1q/VpgYGCg/ezZs+9NJBK/EIvF6gkAZonJQU1eJRWO/Fy6wUpJNsCxhBMhg/NL9eNSOzwnVQBjJnxP9xNiWPiVVQ1k5YPLuWta7Wi48Hq4n07DZh+pVKiGoIIW3Wah2dnZfBcBY0JXgpmVwAEs3C/YcmZmJg/cTCaDOT8nt2/f/qv79u2731xvl3O3l36sAWjpNrMjNpkFUN/t1KlTNw8ODr43m832VldXhzFYy3I3QSaRsRkNCRn81yDSiQdaZfD8xdKsXckDPAaDOpQPf2XaMgFUjlvtgovc5krTpmIioDSAoIIIofn5+Xw8iNdKOHNuFJUO09QXXW75S5ubm5vu6Oi46/Dhw39o1Q7KcbeX1oYBaGn2sr03oQWefPLJ3gsXLtyTTCZ/LBwO13KA43/cLpNIt5D+XCogDrBBZpWQkkoIg6l0l7kyvbA/FZiM50g3WnNzc145yKKictJpuW53oRiPhpFWQQSIXP0V8GE2HJQNVBDe0y4yOxA2wLGIbxFseD09PZ3LZDL/5+qrr35ze3v7Y6Z+ynW3S2/HAFS6rWzPTWgBLCZ3/PjxVw8NDb0jHA5vD4fDHgZzvcJokGl0zIQQ4V8JoKB9daYXBlcqIJm84IIQ5yIxnoO2MAhzvk9TU1P+tazIUChwfzmPgEwscKVfa6WE96wFh/2lKiJ8WKpncnIyBCUEkBKmdCnC7ebIlvMnJyf7Ozo63n711Vf/g+d5ycu5Njt2eRYwAC3PbnbUJrHApUuXdj/++OMfmJmZ+fHq6upaDIQcvEuZGyPN5EqBLlUBEU4SPjK+pOGj40zMmuMgjkEZMRC5YB0VEwGEcxZLI1/KY6BVkOs9txFQQQDipFQACPtOT0/n4zqsCoHrl4kaeL041ycPo/n5+YV4PP43Bw8evKulpaXP1M9S7mT59jUAlc+W1tIGswDUz8MPP/wLY2Nj78hms7urq6s9DHZMWS4GD612CrnqCsWA6ILioAr1pcEQ5IKTIMJrZuoBPsjgI5h09hjOuRIAktDRsNGZcEEKiNupgnDc3NxcHkKMBRHUcLXhc6oh/F1YWMimUqlv7tq167b9+/ffZ8ssrN0X1wC0dra3M1e4Baanp9uOHj367vn5+V/wPK+JgxgnnjJDy3UZLrVTKOkgCEBsB4MoXqMPzPBixhdB50qHliqJ+wGgABB+8RPkgpMALdetKiUWJPeRWXDSBcfUbP5lHAgQgq0Y12Lch0BarHow3Nzc/MG9e/d+rLm5eaJc12btLN0CBqCl28yO2CQWuHjx4rPOnTv3wUQicb3v+1FmUTH+gsFMzvMJmg+jt8t4hDSlKwaks+gkgDDQ6iw4fWv08XQfAj6y0GhQBlyhOT7LfQyYZFBIAbkSEySA8BpqB23BtQYQIRFhbGws/xquRcaCWA4J1zg/P5+KRqOf279//zu7u7tPeJ739Nro9rMmFjAArYnZ7aSVbgG4306cOPGKvr6+d0Sj0X10ccm5N6UMznIfrYC06nHZRGaxMbNLus0ktFz94TlZ8gf7w/WG5AOpcFyuON1eKddb7L4SLDrhQEKJ1+RSS9yPMOIyCoAQkhCwtg9iQfhpaGh45hoBW8z5SaVSj+3YseOuK6644p88z3t6R/tZMwsYgNbM9HbiSrbA8PBw/RNPPHH72NjYa6PRaCvTmGX8Rbu3Cl2PHLwleIpBiACh+00uOKeTECRQ2BceD3jxXIAPBme8p0KSMSDCSLdXbgChfVnzTcMJn+vMOZ0Nxyw4OSkVGXFolwkWcMPhJ51OTzc0NHx8z549H+no6HjSSu6s/TfQALT298B6UIEWGBkZ6Tp+/PjdCwsLN0Wj0RoCiLXfODgXA4iM07gus9jxOC+THZhiLN1lOg6kzyEVFCEGBYSK13ThUd1pFaTjWOUAEPonQSPn/GgABe1HCOFzTkjlWkFQQXDDoVQP69rhWhOJRMbzvK/u2bPn3Xv37v2aJR5UxpfOAFQZ98F6UWEWOH/+/BVnzpy5J51O/0g0Go1wkJYAKqXLQckFPLYYgKgC8JfJD1LNSKXjUkAyBoTXcEWh7A6zw+ScH6mCdFadK6miGFyD7KPBIl1tQRDScSMqJwkgHAsADQ8P57PimK24WBR2oKmp6d4rr7zy47bUQilP7ursYwBaHTvbWdaZBc6ePfvCJ5544gO5XO4FVVVV+e8JBmECyJUwUKrCcSUlFDIPM+Dksg8cqIupFFl2B7ABfJCAQIhJNUUFRLWHPhVLcpD9LlUhueJAhdQPAeVyx8m1gfA5AHTp0qV8QgLAA/WTyWQSDQ0N/9bb23t3T0/Pw5Z4UDlfRgNQ5dwL60kFWeD06dMvOXfu3PvC4fD3cLBeDoDoctKXthQI0VXG1GJX7MmlUAhNuvEwIMP9htgI95cVEFwKqJQsv6VASIJGuuMIF26Tc4JkwoKEEfah60264EZHR/NzgvATi8Vy4XD4VE9Pzz3d3d2faWtre/oD+6kICxiAKuI2WCcqyQJY9+eRRx658fz58++uqqq6AgCiCoELCwP5UtxPMquL1+lSC9odx3PgL+vPca0e16AfpEAAEU6gRQICS9NQ6Uh3m4QQFVAQ3Fz3rJAKknZwKZ4gILkmqNIlx1RsLtWN5RnGx8dDExMTeThVV1ePbdmy5a/379//px0dHU9YxYNK+qaFQgagyrof1psKsABSsI8ePXrL4ODgOyKRyH4ZyCeAqC5KieHIgbVUAGkXnwRQkJrSoOAgzxRsxEQAIB3/kaCRikgCitdb7PYUU3ZBCkjDqZAikvEgCSDGg5CKDRU0Pz+frKur++KBAwc+cPDgQUs8KHbz1uBzA9AaGN1OWdkW8H2/6qGHHnrlpUuXbg+FQnsYJ+EkThk/kQByxYWonjjw8sq5L+Gmj6WriZ/jL7O6NMSCVAe3U0kBnki/5sRMCSyX+w3nKVSYVGboUUUVurMaPthXqhsJaul243buKxe3k8tyI+6DSahQQQMDA0hEOLdnz557Dx069P9axYPK/M4ZgCrzvliv1tACBNDQ0NDt4XB4D+MgrEKwFADJAVZnlkkV5YKXVAWFAORSJy4oSQARSjIFW7vkpDJyAUafYynuN97epQJIp21TAeF6uEQD5gFdunQJq9T9wzXXXPOhnp6eUzbnZw2/UAVObQCqzPtivVpDCyy64F7R399/Z1VVVd4Fx8FYpmGXMhEVA6RULFQU8vK0Gw8DudyGQRfHcQkIrYBKARDaZAo2FBBjWlR3QQpIuuRkn6V6CgKPjGFRxei/LpecVEbSFSfhI9UQVI9Myx4dHfWnp6dPtre33/2c5zwHFQ8Sa/g42akNQPYMmAVKtwCSEE6cOHHThQsXfreqquqQTFXWAJIDqj4DBmYOjIQEB3QOvBJiQfGkUgAkIeQCArYh+41Lb5cKIKnaZLsyi85lWVdCRTEI8XMJJZ0N55q4CgBxWQa8npycnKqqqvpEd3f3PV1dXedLv/O252pbwBTQalvczrcuLIA07Mcff/x9kUgkn4bNH8ZhtEvKpWIIBQ6adHFxoCVYXAOzVkjSBedy1wUBSMaaCCCpgIolHRQCkMstJ92G+ka7PoMNJHg0hFgNW8aEZBICl5dA3IdrBCWTyceampru3r179ydtobnK/roZgCr7/ljv1sgCjz322PMff/zxD/q+/8JoNOpx8ASA4AqTAz676AIDVRAVByd7MsmA7ciEAQkzBvqlC265ACoUA9KxINmvoNhVIdebtol+L2EkEzSk+pE2CgIQlA9swwmpAFEoFHpw69atd3Z0dPzHGj0+dtoSLWAAKtFQttvmssC5c+cOAkBPLVz2kmg0WiUBBAgVCrhLSwE4jFHgGK69g30AJf4HL11zVAESSvicMaClAIh9YQwIWXBc10irG5mEII/TAHIpH9fTUcwNRxtIAPHatetNbtdp2OgPbTw/P4+Jp1/ZsWPH2xsbG7+xuZ7a9Xe1BqD1d8+sx6tggUuXLm09ceLEXYlE4uei0WgtB0CoiKUACMABZLi0NJdU4OCL5QQIJVm3jQpExoo0gDjBVCYESGVGUBAEMgkB27T7TboIdbxHl+TRbRdShLSdSxUFgUYroSAAYT+63tCnmZkZrPfzv7q6um5vamo6uwqPip3iMixgALoM49mhG9cCvu/Hv/rVr751amrq9Z7nbUHcBIMd/qK+mGvA1QOtVA5wFeF4ViHAoAnwoGgm4zv4y5iHTE5grIiTYDloB5XJwXk0QNAuwNnc3JxXQHjPpR2k2nFBSSseDTz5FAQlUsjt8rWOAUnw6HZ53RJasCt+uC5QOp2ejcViH29ra/vdpqam8Y37hG6MKzMAbYz7aFexAhZ4+OGHf2ZwcPC9vu9fgYKkBBCC+fiRAHD9dy9dWly1ExCQygUxC7RLdSPhwhgIYIVjAD4mEFDBEISFXIIEGysh4FxBCsjllnOdo1ACgr4VQfChCnTFg+Q2gp32kADiRFTWgksmkyN1dXUf3bVr1z2e5y2swGNhTZbRAgagMhrTmtpYFujr69t36tSpexAHqqqqymceQDWwmKdLCcj4DAdpKB0ACL84npUI0B4nT2I71RETFhjbwH/3eI0UauzDGAhVkitJgNAgaKii0AYXapNgKQYerahcLjgXhIPUEe3kUkASOBpOMv5D9xvUHJfoTqVSTzQ3N9+1ffv2v/Y8L7OxnsiNdzUGoI13T+2KymSBsbGxxhMnTrxjZmbmVzzPa2H8BkpEzg2Sgz1PLQd07MsSMdguVRAGTqggwIRgY2IC9sWAiyUG8IMEAi4kR6DIfV2Q4H4cyOVcILrqXPBxxZVc7ReDjv5cu+jkRNOguI+ElVRBaBt2xS+2J5NJP51OP9TW1nZHV1fX58r0GFgzK2gBA9AKGteaXt8WwITUb3/72zcODw+/O5vNHoxEImEoFaynozPJ5JXKAR0DI0v3QMlgwKW7DQMn3mP1ThxDZUJVgG04HgDCNqgXAIhgomvNlTzAPuA4mdyAc3NBukIAcoHUdY36DgfFgKhqNJCCYkByfwkmHQdSAEp5nve5LVu2vL2tre2R9f30bY7eG4A2x322q1ymBS5cuNB15syZu+bn528Mh8N1XNSNSQk6O4xqSLqoOPeH1ZpxLCtUY3BdnLuSB5Nsj4M5AASlA0BJ9cVBOghAcrBnfxhLkokUQe43DSEXlAoBx6WOlqOAeJ2uGBABBDCl0+mx2trav+jp6bnL8zxb92eZz/xqHmYAWk1r27nWnQVQmPT+++//+dHR0Ttyudwez/PCcIXBjUYFIaGjAcTBk+nYgA0nlTI+A2WEH9aJI7DkLH/AC+AChJgGruNNLoWCtnCsrEGHOBJUHDPecJzOfnO17XLBlQKgQiAqFAPCcfpzHQNiins2m81ls9lHW1pa3r1ly5bP2Kqn6+OrZgBaH/fJermGFjh+/PiOgYGB9yeTyZ8JhUJ1ABBAIAdfmRUmFQXdZHTDQc1gGyBA6DCTi+qH84KYkk3lxDgRjmUmnXajaQgxAYLxK6Zjww0n41hBAHIBVW5bDoDkMcVccDoupF1weL+YgDDv+/5nt27dekdTU9Nja/i42KmXYAED0BKMZbtuTgv4vh/9xje+8dP9/f3vQXXs5ubmMGM2HECle0oP5nATwb2GAR/xHgyYMu2aA7pLKeA8zPDCuaCCACD8ZYxIHi9VimyPbjqqLgAUKogxIp1SLtXR5SQfyCdGgkdnwVEpuoDDvsmq19x/0QXnZ7PZvvr6+j/o7Oz8c0u/Xj/fUwPQ+rlX1tM1tMDg4OCWb33rW3c95ea5ue7pH4+qRsJHx1MweGKQZPo13G10w1EFyeM1NOiGYsICzgkXnAtALvgQUjImhdc4N+JAMuYk+66vKeh9qbfEBR9eGz+T8JFA4jUw3VrHglKpVDIcDv9PW1vbbc3NzQ+W2ifbb+0tYABa+3tgPVgHFvB9P/z1r3/9JwcHB99XW1t7sLm5OV8iW6Yr6wGcqoOxHKgeKA5UP8AgyjgMB1uthPheDrhok0kMrkoIpSggtEslBZhJuFD5EAY6yUJe71JvmwQNj6WbUYKX5yagaB8Z/+GqqLlcDqnXQzU1NX+yY8eOez3Pw0J09rNOLGAAWic3yrq59hY4f/58y/Hjx38vl8u9qqWlJR4Oh/PfH1f8R/cWg6pUQZiACgiwsjYHWdmWjO/IQRlQYBkdDUAJEw02KgnZF6Z1u9SPvjbX+6XclWIA0kqIANJuObynGspkMolwOPylxsbGd7a1tX3b8zx/KX2yfdfWAgagtbW/nX2dWeDBBx98yVMg+sMtW7bkM+L0gK8VAv5rZ+017Eu3G2NBnPuj4zl4z4oIHPglpJhUoF1ocl+5P7dLZcOUbPSPiQ/yc62mJBxle6XewqUCyAUeqsFFl2Q2m80+Ho/HP9jV1fUpi/2UeicqZz8DUOXcC+vJOrAAL1pDWgAAIABJREFUYkHf/va3/7ilpeWl2Wy2Wi5W53JPYZusiA3Fg18oIEAIr+lS4wAt4zU6045QATzQLsv6aBVGU1JFuYCBY9gfzkHSgJJ9knDjtcr+Fbt9LgDpLDipeng+ut742WIygu/7/mR1dfXftrW13ROPx/uLnd8+rzwLGIAq755YjyrYAr7vR772ta/9su/7789ms+0sUhqkhJioQLcR9uM8HkIIbjDGYrCfjMNItxlrvxEqMp27FAC51BEhxpVe5XWUooCK3aqg5AOXu43wY6q1ax/O+/F9H1UPPt/a2vruxsbGb3me9/TSqvazrixgAFpXt8s6WwkWeOyxx64YHBz8RCQSuTqXy+XdcFqpEAisA8d9mJLNoqLDw8P5ZATGYgggutb0fB+qAPzlvKBCMSipgFwAwjbGomQlBvZXJzpIKLkSHoLuTyEQSdDIeT5oC8CRKmxx3k82FAodeyoG9+4dO3Z8zpbdroRvxfL6YABant3sqE1sgZGRkYYHHnjgz+vq6m5CgWyaopg7ioMr3XKsToDJqayGzYXrmDEnJ4tqyBEOnBdEV5Wcw6OhE/Qe56c7jtBjDIrZfC5FVOya9ef6vVQ7LhChX1CKnK+USqX8TCbzeH19/Qc6Ozv/P8t6W99fRAPQ+r5/1vs1sABSsr/61a/+5lMi5D1YuE4rID3I0o3GWfuEAAZ6DPqADuYH4TWUEAZc/OePigv4rFDqMz5jdl3Q5FRpIhdEqKYIIfyVMR6dfMD2yqGAeH3yfDIuxCUsYNNFEJ2Px+Mfisfjn7IF59bg4S/zKQ1AZTaoNbc5LHDy5MnnjY2Nfdr3/R4dXNfuJg0gqYSQBYcBHyoIEGKlag7CUgHJVGnGS9g2V2rlgnVSvbhUD7dJ9xbTu9EGfmWChVR5EojFFJB8GgolIRDiMuEA5+HKsYvVIC7U1NT8fn19/acaGxtHN8eTtrGv0gC0se+vXd0KWQDZcKdPn/5MKBR6EQdPQkGeUpbqYSKCnNFP1YEBH1lxABHX/UHFBDlPCICQ7jXGi9AeYAFXHH5l4oMusaNhpAGC/dEXJiXoiaiMKRGGuhRRkLkLQVoXGNVxq0Xl82hdXd0f1tbW/mNjY+PYCt1Wa3aVLWAAWmWD2+k2hgWQDfc///M/H/V9/3UaQDqWIdWDqN6cj2vwP/ympqb8wD85OZl3NcEVx/pxhAYHfQkVWQ6IEKKqcsFBu8042EsQMTOOcNTKS0KsmBvOlXygs9uoCKVrj9symcx8Lpf7WnV19R93dXV90ZZZ2Bjfn2fu9ca6HLsas8DqWeC+++57fSKRuBfFSql+5F/0RMYzGANiUU3CiCnYAA4UDFxxTExgdpwscCqBhNdS8aANZNWhHbrnpEVKAQaTJDhRlXOOtJrSSmWp6kfbTLrhFkvtDEej0X+sr6//eFNT0wnP8xKrd3ftTKthAVNAq2FlO8eGtMCxY8d+aHx8/B9932/CYBqU0cXP6GqiC47vGQPCsguNjY15JQQAQQkBJEwykDEZ6YrT84aYzMCipdr4hSAkY0I4jlW7+VeuK1RK/MflegtSRSJJIxUOhx8Nh8Mfq62t/V/Nzc39nudlNuRDtMkvygC0yR8Au/zlW+DMmTOHBgYGPpfL5fKJCBpCUgHJ+S0y5gE1hFgPs7xmZmbyioYuObynMmKWm5xjJN1yeM3inlBOSGjAbyEFJGHkggXakwvh4bVO8y5kQe1uo8qR26nUsKhcLpfrj0ajn62vr/9EQ0PDQ57nzS//DtmRlW4BA1Cl3yHrX8Va4NKlS1tPnDjxWc/zrsFAzUoFgArdVaJq8zMTKnUyApQOl2mYnp4Ozc4+XdAZCmbbtm15NYQfZsjJ6tpMTGAtN8KN6dktLS15lxzaIgSppBh/Ijx1ujW2cyItr4/LgqM9uv74F0oNiRR4j3NhH5xDglmmWy+276dSKaxmOhgOh/8zFov9fXV19f3Nzc1TVli0Yh/9snXMAFQ2U1pDm80CfX19tY8//vgnnpqV/7Mc3AkcDLRMhZaKhwqA2+B2I3wY+8FyDXiNARqKAwDB4E5gAETYzioBTJ+W83dYrBTqCdDgKq5USfjLNrQqkfeRmXZUc5wQyhp2XN5bFjNl7TvASC73wHaz2SwWkIPcyczPz1+qqqr6RiwW+8fm5uav1NfXj1pZnc3zTTIAbZ57bVe6Ahb42te+9t50On07JqcyhkH3EpWKjA1pAGEfuODwCyUEyGDghhJiHAgAYWabzEhDW4ATkwFkfIb7EWKILbW3t+djTAAW41AyucHlQpTgkUkDErQAIt2E+Iv9ADypoNLpNCoYwMWWyuVy077vn81ms/fV1dV9vqGh4cGOjo4xi/OswANa4U0agCr8Bln3KtsC3/zmN2+Zn5//81Ao1EAA0RVHheLKkJMJCVRBLDmDv4j94Bef0a2FuBAgAzBhOwZ7xk/ocmPqNpdYkBly2AaXXEdHR96dh2PQjpzTQ1gSTLwmxpZ4PhyHX3yOc+A1ywihf+jronrKxWKxdDQanU2n032+7x+rr6//eldX19daW1vPbdu2ba6y77D1biUtYABaSeta2xveAg8//PBzx8fHMSG1GxdLNxkHcg7YUl1IlxwHcUIIx1MFYSCHMqKLjhNOZa027EM1AhAAMhI+zF6j6w2ftba25tUQIERFRJch+sH2qNYYt0G/+DlVF2CJH/Yfbr1MJuPX1dWl0un0QiwWG6uurn60qanp/s7Ozi9t3br1ke7u7knP81BQ1H42uQUMQJv8AbDLvzwLnDt3bteTTz75mWw2+z10bckK2Drormf9UzVwAAdssA0DO7YhHoRjABq85oCPbfic2XM4jipEAoTxIWTFwV3HBATEZrCts7Mz/xcgYqyJbTOBAOcgGPmX14H2oNDwszhfCOnSlxobG4+3t7efbGlp+UZra+u36urqhnt7e20ez+U9bhvuaAPQhruldkGraYGxsbHGY8eOfSyTydzI7C8MxIAB37M/rhgLM+IkdJgVxyKleC/jQ3DNMXV7sUbaM8DCeVnMFOfl5+gL4kh02+E9C6ECPG1tbflfuM6QWMAsPsIH7eJHKiVeIwDE8j0tLS3nent77+3q6vo/XV1dA1u2bJlZzfth51pfFjAAra/7Zb2tMAugCsKXvvSld6VSqduqq6sjTFfG4CyzzCSE9ERMQgOqgiDCoM44C9QNfgkTwIef469UJ2xLKismJ8j4jozxMEYF9xwgBdccoMTlGZhRR3ci2yHg6PZD/w4fPvzpG2+88dbW1tapCrtV1p0KtIABqAJvinVp/VgANeG+8pWv/GI6nf6jSCRSL5WPTBCQsSA5kNOVxfgKAUQXHJUPIUTAcDv3k1l0LPFDV5p0+8m5PkyxlhlzEi7YLlO8ZWyJadechwSXHpRTT0/P3992222vskXi1s8zvJY9NQCtpfXt3OveAki/fuCBB75vcnLyk1VVVZ2chMo5QHKQlxM+ceFy7hABJFWP3Ea3HD8ngLgPY0Cy2ClTreVkWJxXVzzgNqnMZLq3rAWH7VRE2M75QKwb197e/pXXv/71N3Z2do6s+5trF7DiFjAArbiJ7QQb2QK+73vnz58/ePbs2b+rqqq6Wq5fwxRoqTDkawKJ0JBwIWCYWMA4EPeR26maWORUFjuVadRMCyf45F+8ZoyHqkZDiO8JIGbdwW2Hn8VEhyduueWWn332s599dCPfd7u28ljAAFQeO1orm9gCQ0NDHSdPnvzTcDicr4jANGm4rPie2XAc5KXqKBVAhI9018H1huMJLLbFuJAu+yNVF5Mi6KJDnwgfJiHI94wbETyMLXGSLNRQLBabue66637ppS99KVLT7ccsUNACBiB7QMwCl2kBLMv95S9/+c5cLvdWrI7gApBcykBmmBEQUtkwriOVjdwm5+NoJSTddlIJ0Q0nVRdfy7iProzAOJB0uxFAdM0xAw771tfX5/bu3XvXr/7qr77H87ynJwnZj1kgwAIGIHs0zAKXaQHf96vvu+++Vy0sLHzY87x6qh2Zlk3ocECXSQk6/iNhIwHD1xJAVDraNSePkyWCJHQkeBj/kUqNZmHCgUw8IJCQfIBjuHIr5hM1Nzf/86233vrLlgl3mQ/WJjjcALQJbrJd4spaAJlwJ06c+MGRkZG/DofDnRzEWZKHbizp4qILDn/pQpMxIAkbOUdIAke622RSglZIBBCBI11vOiVcWsoVA+K1MCOOyzMASIDR4lpEX3vVq171st7e3qGVtby1vt4tYABa73fQ+r/mFkAm3OnTp68cHBz8RDgcPkIAUeXooD6rEbCcDYFB5SMnkxI4QS44QsgVA+K8IsZ4gv6yvy5XHIwrU7fpdiOAcA2c3IpJrOhPNBo9dfPNN//01VdffXrNb451oKItYACq6NtjnVsvFujv799x8uTJP4/H4y9hKrbOgpMBfQ7qVCdy/o8LJtLFxtfMauMEVWyXqkhmvTElmxDiZ3pOklZATDRgf3VSAlOx0R4msC6u3jp2+PDhm2+66abPr5f7Z/1cGwsYgNbG7nbWDWaBycnJlocffvj3IpHI63K5XJixHioIDtx6QCeAtPuNMCE4dAYcP2cFbT3/hwkIEjhSAdENp6sb6FiQdMPxmjSEGP/BRNTFfVK7d+9+x6tf/eoPbrDbbJdTZgsYgMpsUGtuc1pgaGio7sknn3xdKpV6D6bEuAZuGcSXbi9WLNDVD3RKtSsJAdvkXB+63YLmAumlIRiLktt5B6UrUSZPaAAhDkSX3CLQsu3t7Z+6+eabX9fV1WVLam/Or0RJV20AKslMtpNZoLAFkAl39OjRH5+amvpTz/O2ynk0cgKndsMxPVqnYRMgLCwq673xtSy5I6se8HM9CVWW5OHVcAKqBpCetyRdcHhNJcdsOFnk1Pf9XE1NzVd+4id+4uYjR45csmfHLBBkAQOQPRtmgTJYAJlwZ8+efU5/f//HIpHIITlgu9xwBBHBoVOxqWxccR0NIKmUtBoKmogqy/EQPlRD7K98L+cHSQBB+eAHKojp2J7n+aFQ6Mx11133s9ddd90jZTCvNbFBLWAA2qA31i5rdS2Akjz9/f37zp49+9FwOPzDHKT1BFQdC5JJCHouDz5jjEdDR08yJaikytEKSE5GlSnZEjQuqwXFgbCdAOJ1LaZl+9lsdvKKK6549cte9rJ/Wd07YWdbTxYwAK2nu2V9rWgLDA8Pb3vkkUc+HA6Hb0FHMThrV5xOySYwdAUDlwKSiQYyyUArIKoeruWjVRHh45qIqg3MlHE9J0jHgaQKwr65XC6xdevWj77mNa95u+d5WKTOfswC32UBA5A9FGaBMllgfHy86dixY296aimCt4dCoRpmh7nqqUnVwSQEWeMtCDA6zVoqKBkH0mpHVkPQ84EKXb52vel0bIIHfzERFeddTETI1NfXf+7lL3/5q60ydpkesA3YjAFoA95Uu6S1sYDv+zUPPvjgT42Pj3+0trZ2C3rBYD0HcmzTLi3ARoKEi89RwWjoSNBQKQUlHBBE/CtddDoOxIQEWk9mwbH/LuWj1wZazJjLeZ73yDXXXHPL93//959YmztiZ610CxiAKv0OWf/WjQWQiHD69Olr+/v7/yIejx8CWOCGkynMGkB4LyeJygKknKujAaRTrF2xHg0c/V664ajGZDJCUAp20Fwg7VpEIoLneeM7d+78rZtuuulv181NtI6uqgUMQKtqbjvZRrYAExEee+yxj9TW1v4IlAyzw2Q9OCog2kLCgQCSVQ4KKSCCRLvfqKokxPREVMaKJID0/XGA5ZklG2SihctVFwqF5hsaGj72mte85i2e5yU28r23a1ueBQxAy7ObHWUWcFoAiQgnTpx4ZywWe206nQ4jDqQHZ+niktWpZUo2oaSz3bRLDS44gsQVD1pMCMi7+HSGnAtA0i2HflLBuSaiym369eI1puPx+Bd+8Ad/8Ff37dt30R4Zs4C2gAHIngmzQBktMDEx0Xzs2LHXhsPhd3qeF9cKIuhUhWI4ruQCOYFVzvVhO4QNzudSPoz3UGnptYEIIhn7kZBhbEu6FOW1Ll5nrrq6+mxvb+/rX/KSl1hduDI+ZxulKQPQRrmTdh0VYQHf92sffPDBG2dnZ/8gFou1Y6DXMSC5BAIHcELCFbuR6deulGqpnKTKQdsEjASSjPVI95tWSFKpaRWnYSNjQ4wfLbr/plpaWv7gla985fs9z0tXxE2yTlSMBQxAFXMrrCMbwQIoyXPmzJkfvHjxIjLhdmNQl5ljvEYJocW05TwsZHKAS/noFGq8l+nbBA7BJtvU7jXuI8vwyPYlgGTcSrvjuKyEhBTBlslkEjU1NZ/9kR/5kTfu2rVrcCPcY7uG8lnAAFQ+W1pLZgHEY8JPPPHENY899tgfxuPx5+usMaoDCSINILrNglKnmVjANG0ACAkPrIZAsLAdV6FRnp/A0y44bpcTUV1AktcjwcT2stlsNhaLHT948OAbX/ziF3/VHhGzgLSAAcieB7NAmS0wPDy871vf+tbdLS0tP4PMONfkTQ7Qyl2VTyigenDBQSYaSHcckxUknHg823O53iQIJahkDMjlMmSbGkDalIvqaLS5uflDL3/5y7Fkubnhyvy8refmDEDr+e5Z3yvSAiMjI10PPPDA7Q0NDbeiTicViUzFllDgIB4EDEJFusd0NhzddVrJuOAjgSInn0pAcZ8gwGhVJffTwEokEgv19fX//vznP/8tBw8ePFeRN806tSYWMACtidntpBvZAlic7ujRo7dWVVXd6ft+PQfnYgCSqojQ0UkErhiQVD0uAGkIFQIQ99X3R1ZvkK49qaDkeaRCmpuby8VisTM7d+783RtuuOEfPc/LbuT7b9dWugUMQKXbyvY0C5RkAd/34/fff//LUqnUh8LhcL4kj1RBshEG8PXArwHkqu3GfSQEXG40va0YgFwQ0pNneW7pQnSdh27Cqqqq6dra2k9ef/3177LacCU9RptiJwPQprjNdpGraQFkwp04ceKGsbGxP4xGo7vluWVNOAkmThiVMKF7DAO7TEiQAz33YSKDVieyDe02c8WEZAyK0HQBSe+n+8T3SIxANYh0Op2pqqp68ODBg3c+73nP+7znebnVvCd2rsq0gAGoMu+L9WodWwA14c6cOfOCvr6+e2tra5/NAVy6sagcmDnGfaiI6GoDsFwTSV0xGJf60YkMrjiPhIkLQPpcEkh6f3k+whDXMDs7CxCNNTQ0fPy666770NatW22l1HX8jJer6wagclnS2jELCAucO3fuWadPn/5wQ0PD98tB31UzTaoiAki612SMR4JKgo2vJQAANygn12fsqk5CCFI7GlIyYULeeA1B9mFhYQFlfTK5XO7YgQMH7n7+85//r08tW5G0h2ZzW8AAtLnvv139ClngiSeeOHDq1Km7GhsbX4q5QRzAgyoKYLuOB7GKglYZ7LKM5UjISLdckALisdJF5zKFBJQ8h4xJuQAk92VhVMAokUhMV1dX/8uLXvSi9+/evfv0Cpnfml0nFjAArZMbZd1cXxbo7+/vOXHixO01NTWvrqqqirJiASZ2chlrDMhyvSDXFcrYjutzrY50UoCOAWkXmQti+jw8B4+lS9CVdCDhyM8BIFwnJstmMhnEfs50dnZ+6IYbbvikVcleX891uXtrACq3Ra09s0AoFLp06dLW48eP/0ZVVdWbo9FoHIMxB2JC53IAFDTvxgUgqXaKQcPlgpPg0TDi/tLNKNuQ151IJPLVGtLp9GxdXd2/PPe5z31fb2/vKXtgNq8FDECb997bla+gBVAV++jRo6/O5XJYmqEJYACA9IqiQQpIuuN0N2UCQ9AluJINtDsOxxabiMp25LHytaymrV1xbB/7oM9QQDg2mUzmfN8/tXPnzruuv/76v7fqCCv4IFZ40wagCr9B1r31aYGhoaG68+fP3zIzM/O+2traDmazybI8gE8pLjgXgApBKCirzZUlp/fV4JLHaIDRrajVj3bD0WWXSqXyH0EFpVKpiaampv/nuc997oe6urpG1+ddtl5frgUMQJdrQTveLOCwgO/7NUePHn3p8PDwB+Lx+E7MhWFSAVOvJYD0RE82qUvh6IoEuliohoxrHpB0kbk+14kJ2gUn407MsnMlK8iMPq70im0AUDKZTEej0X+95ppr3rVv376T9hBtTgsYgDbnfberXmEL+L5fderUqR+8cOHCPXV1dUcAIAy+ch0d6Y6T84Fk16TS0fOIeIyEF+EgIcPXLmXkUjWuOJFOPOB7l1tPqyhOsmU2HACUSCT8bDb70FVXXfWOq6666t9X+HZY8xVqAQNQhd4Y69b6tgBSr8+fP3/t6dOn74nH4y/A0tz4gWIBePAjVxvVa+loF5uEjyuVm59LeOAcMotOAohQ0rEdqXawj8580+BxqSMJIHyO/spYEZePSCaT57u7u++67rrr/trmBK3v5325vTcALddydpxZoIgFLl68ePXJkyfvjsfjPwoAAQZIwdaqRi9Ypz8nSGT8iK8JNEJJp1UTEFIRyX2KAUivSaQBJEEmXXdslwAEdLgvF9BbWFiYiMViH7n++uvvbWlpmbQHavNZwAC0+e65XfEqWWBgYODg8ePHf6+mpubGWCyWr4kmFRBAIFOyXS62Yi44AE269ag+6J6TK6RqBSRdczKuo1Ot5cqsMivOpY406BgHYsICIYWEhGQymfA872+uuuqq9+3du7dvlW6LnaaCLGAAqqCbYV3ZWBbAwnRHjx59V3V19S2xWCwMWMjEA8aEZCzHpXb0NgmqIAXENl3p2FollQof7W4rlI4tXYE6BiQSEbKpVOp/Hzly5J2HDh06vrHuvl1NKRYwAJViJdvHLLAMC1y6dGn3sWPH7qyurn5ldXV1hAqIqgdNyjiQS+3IOnHaBcfjpQJiN3VSg4ROKQAilKT6cbnrgpIRtNpiO2xjMRXbn5+f/9yhQ4fuvPrqqx9chontkHVuAQPQOr+B1v3KtcDAwMDOkydP3haNRn8lFotFoYCoglxFSYMSDVyqSMJKAsgVP9IWWgqACBjXekT4TC+Yp916PBf2YxYcFRAgtLCw8N+HDx++4/Dhw/dX7p20nq2UBQxAK2VZa3fTW2BsbGz7Qw899JaqqqrXVT/980wMyJUNFxQDciUt6H1dQCO4ggCk07Jd8R2phGQqtgSSduG50rilAmI8aHE+0BcOHDhwxxVXXHHfpn9gNqEBDECb8KbbJa+OBUZGRjqPHTv2W5FI5I3V1dUxAIhZcABGoQQEnZZNmBRSTq5UbjlHSF51EHwkTGTMR6ZRU/kUm0OkY0RSTQE+i+nYXzxw4MCdhw4d+vrq3BU7SyVZwABUSXfD+rKhLDA8PLzt+PHjb45EIm+KxWI1VEA6hbqYminmgnO57mhIHUOSLjLuQ+jws6BJp1LZBM0HCgKYhBnTsPE3kUh8GQro4MGDX9tQN98upiQLGIBKMpPtZBZYugVQEfvkyZNvikQib66urq5FKrYsnSPrwAXFfzhpdSnuOdlTl5KSmXESSBow+r0GFiGE7YXmE+n9WJYHfxcWFr68f//+Ow8cOPDVpVvYjljvFjAArfc7aP2vWAsMDQ11PProo7/h+/5v1dXV1SILDj9cD8hVlidIDQWBiOpIqiQaRLvfGEsidCRQdNaadq/pdG7Xe+2y01ACcBgLWlyWITQ/P/8/u3fvvuPKK680AFXsk7xyHTMArZxtreVNboHBwcEtp0+ffmMul/vturq6uAYQExHkPKBi7jj9uQZPIehIABWDkCuRwBU3kupHT0yVrj1mwTkA9OXe3t47DUCb88tiANqc992uehUsMD093f7AAw/8uu/7bykEID0XqJC7zfWZhJCGjMygC7pkrX6C4FNK4oLMpJPxIAJIFiTF69nZ2S/v27fPYkCr8DxW4ikMQJV4V6xPG8ICANCDDz74+lwu9zYCCEDQLjg9j2epAHJNYJVuONdrlwLSLjkXiHicrjEX5LJj9hxgI11wfD8zM2MA2hBP+/IuwgC0PLvZUWaBohaYnp5ue/DBB99QDEB0wcmMNVe6tYwDuSokSPdbkBLSndbqh4DRMR5ZaFSCSQJJ74PPEOvB/gagoo/LptzBALQpb7td9GpYoBiA5DygQiooCEYSMq7YEF1zhRSQC0ASQlrxaFWE88rYj9xfAghKCDDiBFbOAzIFtBpPYuWewwBUuffGerbOLbAIILjgbnO54JaShBC0BhCAEJSYIM2nFZF0t2l3XCEA4TPpbgsCFPeB8kEfXUkI+AwAsiSEdf6gX0b3DUCXYTw71CxQyAIA0Le//e03hEIhZwxIV7IOqnJQSAG5AFSq+01DSF4L3WnFFJArTiQnqXLJ7qAsOFNAm/s7ZADa3Pffrn4FLUAAhcPht8Xj8ThdblwdFaDgtqCyPIVWP8Xxl6uA5OW73HGu2I9MQAhKPuB2utzkX1ZCgBtuenoaCgjzgKwSwgo+i5XatAGoUu+M9WvdW4AuuFAodFsxAAXFgIoBiEYqFgMKmoRKiAWpISqYQqnZMt2aLrolAOhLu3btuuPIkSNWC27dP/FLvwAD0NJtZkeYBUqywNTUVOvDDz+cjwHF4/E6FiJ1KaDLAVDQ3CB0UqZoU+HQrSY/l9vk6yCFw7aWooCogmQpnqmpqS/u3bvXipGW9ERtvJ0MQBvvntoVVYgFAKCjR4++LpvN3k4AATSsiCAnoK40gIJMEqSAJGAIJDnJ1LXNVUuOlbO1Cw5LcgNE09PTX9yzZ88dhw4d+kaF3DbrxipawAC0isa2U20uC0xOTrYcP378tZlM5s7a2to6gEcDSEOoWCke7ZKTKsZV+VpaPCgTTrvfXJUR6FrTc4CWooAII9aBw9+ZmZkv7N69GwrIALS5vh75qzUAbcKbbpe8OhaYmJhofvTRR1+XSqXuqKmpqeeS3EGVEAqt9aPrxXEeVfzAAAAgAElEQVRSKgEkwSWhRJgUmqQaBBztsisUB9KJCbounFzaW7ngPg8A2YJ0q/NMVtpZDECVdkesPxvGAlBAjzzyyGsJIMR+AA4CSM4DKpQFR6DomnESNEFJCDSmLlLqMrKufiCVUVBZnkIKSCYiyBVRoXzogpuamvo8suAOHz78zQ1z4+1CSraAAahkU9mOZoGlWUACKBaL1WM9IBeAGP8JUkDFAFQoCUFCytV7uuV0oVHsqxWQho3LLecqRirhw4oIIgb033v37r3jwIED9y/Nurb3RrCAAWgj3EW7hoq0gFZAdMFxUTr8lZNRCQuqIbyXC9iVAigNHF2uRxqKc4i00pHvCSKtgAplx8m0bE5KlS44vAaA8DszM/NfPT09mAf0rYq8idapFbWAAWhFzWuNb2YLFIoBYZAmfPgXtpJqiPtoBeSK98gYkbR5IQBpGEnVUyz+4wIQj5efsRq2roRgANrM34z/e+0GIHsOzAIrZAEACDGgdDp9J5IQZAyoFAARSEsFkCvbrVAGnGt+UKkAClJIVEGyJpxcjkECCGnYBw4cMAW0Qs9hJTdrAKrku2N9W9cWKCUJgW42utqggKiIMIiXUglbKied7abdbNqgEjTaFcdjC6VeF3PRSRccAcQsuMVSPP9lAFrXj/lldd4AdFnms4PNAsEWKAVAdJ25AETlEzQ3iGfm5xJWPDbIHSeTDnSZHgkcTlTVSQp6QTpXlhzhg8/0ekBUQLOzs/+FLDhTQJvzm2QA2pz33a56FSxQKoBkOrYsUEplIwGkISMhFfSZBNVSFZBUOIXcbTKFW88BwmdBMSAAaNeuXXdaFtwqPJAVeAoDUAXeFOvSxrAAY0CohMCJqIXSsAkamQVXqBhpkEJyJR4ExYDkRFXpgtMKpxT4uDLl5FwgqCBWQ5AxIAPQxnjel3MVBqDlWM2OMQuUYIFSASSz4OiSA3gwoHPSaiE3W6nFSF1dZpxHzgeSadQEj/5baho2s+CwvwQQJ6NOT0//Nxak279/v01ELeGZ2mi7GIA22h2166kYC8AF9+ijj96aSCTurKurqwdoMBkVg7FMwZbQ0TCR84AKQUiW5qEyogtPKiXtUiN4NICoZmQMSLrZqJwImCD1g/NR9egsOEAIlRB27959hwGoYh7bVe2IAWhVzW0n20wWAIBOnz5968LCwp3xeLwekACAdAr25QDIVYJHbnO52KSrTbvrdMabTj4IcsVpRcQEBPwlhJiIoBak+8KOHTvusFpwm+mb8X+v1QC0Oe+7XfUqWAAuuDNnzrx2YWHhjtra2gYqIAKolFpwWgEVKljKS9ITVaUiKuWydUKBPEa75wgkCSAJHygkqigCSFfDRhbcvn377iulb7bPxrKAAWhj3U+7mgqywCKA8goIAKICQhcR25FVD4qtB0SIBC3HEFQdQScfSFdbkKlKBZCeJxQEIUKLMSAqICQizM7OfmHnzp0GoAp6blezKwag1bS2nWtTWaAYgJjtVqgYqV7jR1bEpmuLqduu9YB0jEffAD0RVb4nOLQCciUp6PiQzn6D6pFqCPBJJpMGoE31jfjuizUAbfIHwC5/5SxAF9z8/Pwd8Xj8O1xwxRSQS+nIba71gHQiAK4M5X9k8gKVlAYNraCBxBgOXW2uCaeuuBEBRHcbgINtvAa8TyQSANDnkYZtLriVew4ruWUDUCXfHevburaAyIL7DgDhomQVbO2K0xNPCQ3XdrRDAHDZawkNAoiVt9mGC0AaPoROEHyowIKghH5w2QWAiNl/OI4KaGZm5ou7du2CC85WRF3XT/vyOm8AWp7d7CizQFELAECnTp1CEsLtUEBQPcyCkzXflgogV8UDGX+RWXUY6Dn5VUJIwkUCxnVRLsBwv0Jp2DgOKodp2IwZEUD/f3tvAifXVd35n7fU3tX7LqnVmxbL2JbxbjDBJp6QSUhCJjPM55OEzED+GTBJCEmGhGw4hAwBEoghBELIAM4CBMxgwmKMjVcJW7Kw1JJai1u2tfW+Vtder97787vVp3V1/aq7Wq2ll1ufT3266q33nff6fut3zrnnom0zMzMaQIs+SWt3Aw2gtXtv9ZVdYQswgLLZ7B+Fw+E44MMQQNMAJDV+I5fiQYctx3Xk+A8rGdl1BhjwcdlFJ3f6cqID76eO81FNVi4tm1WWH5zkGnCI80D9qAkLSETAOg2gK/yQXuHTawBd4RugT792LTBXC+4duVzufeUAJCshhgonJ1QCIDmrjaGglvKRYeM3YFVNIJDvyGLjgsoBiBMV2A3HbWM3IaCkkxDW7rNf6ZVpAFVqKb2dtsASLTAzM1N/5MiR/5XNZgWAEI9RFdByASQDhTt5VkqAAJfyQdPljLhy2W/llsuKR3XZMYTUNGw+Ficg4DtXQwCA4J5LpVI6DXuJz9Va2lwDaC3dTX0tK8oCUEAYiAoXXDAYnHfBAQoMh+W64BhA7EpTISMDSIZQOdAwXMqpIN5PVU2yEpJdcDgOJyCoAIICQhLC3DggnYSwop7ey9MYDaDLY2d9lnVoAQZQJpN5XygUquYY0MUEkAwcOV7E5uaipgwfdSCqX+abCiE/N9xiAGIX3EIAgjJKJBJIQviT3t7e3evwEVn3l6wBtO4fAW2AS2WBORccipG+LxgMCgABPqxK5IKkcmbbUmNAHCtSAeRXBUFeJkNEtYEMpgsBkDydA9xuDCSoIS7JMwegx5GGrQF0qZ7ClX1cDaCVfX9061axBTgGlE6nAaB4OBwW8AkEAuKqLiaA1Ow5HF+OBakKiFWODBp2410MBcQAwjE5Cw7n4nFBSEaYS0J4vKOjQwNoFT/ny2m6BtByrKf31RZYwAIAUH9//zuz2ewfBAIBASDARwbQxYgBobOXASQnI/BAVQaQ3FxWJWq5HlUZVaKA/KphM9xYAeE7l+TBMlZAGkDr999IA2j93nt95ZfYAolEouGFF174XxMTE/+7qamplpUFu+LkLDV5jI9fZpw67oeBwvEkVjx8SXwMHoiquufKxX5UQPm54mSFxGOPsIwHnMruN16P48jTcrMSmpycfHzTpk1/sn379l2X+Hbow69AC2gArcCbopu0NiyQTCZbH3zwwd86ffr0bzU3N8ebmpqovr6eIpGIcI9BneCzXLlALrejJhioFRM4wYAhobrc5Aw5PwWkWllWOvxZLvUjZ7exypKTGhgy+MvLGTqcCYdzYlk6nRbvbDb7eE9Pz592d3fvMgzDWxt3Xl9FpRbQAKrUUno7bYElWgAK6NixY+8YHR19r+d51WfOnKHTp08j9ViU5IFLDlCqqqqiuro6amhooOrqagElLlaKbfglqxFZMckuOLkCAkOH95PdfbydX7FRWcEsNv6H1RDDiUvzyKbCMmncD42Pj9PZs2fx1/M8b++dd975Z3fcccfDGkBLfMDWwOYaQGvgJupLWJkWAICOHj36ztnZ2T/gKbkBFHT+c2VoKJPJCEWA7xiYibc8boZdaFAiiB1xEgM+4zg4HleZxkBXHuzKCoSnAGdIcRYeA4gnvFNdb/w9lUqJjwwYWQUBbMlkct71Jk80xyCSa8WhTWhfLBYT72AwCMXz9LZt297f09PzhGEYpelT9WvdWEADaN3can2hl9sCiUSi8dixY++anZ19bywWiwIW6PDRUQMMDAcZKnIKNrcXnT4H7QEqQIkhNTU1JT7zd3Z58eRvDDgGgVwPjgeGslJS7cNZa1zMlNuJv5zBB5DwTK9QbnhzsgWWAzis5tAmAJbrw6FNExMTB9ra2u695pprvmUYhnO575E+35W1gAbQlbW/PvsatsDs7GzzoUOHfiuTyfxeIBCIADjosNGxo2PGX66OzTEXjg1B4TCseJk8hQPHirA/w4VjSWxSfOckBTlmow5G9QOP3zK/GBFgiBevY4XEAOTjyEkIXIgU+6ZSqZN1dXUfuu666+43DCOzhh8HfWk+FtAA0o+FtsAlsgAA1NfX927DMH7XMIwwOmcACFAAgKAG2GXGwFGD+gwdhov8V95WTsNmOAFc6OxZ4cgJDrK6ki+f40Vy3AjrOS6kuuDksUNye+TtOAbEGXFYB8U2l4Y9bprmxzdt2vT3XV1d05foVujDrlALaACt0Bujm7X6LcAAKhaLv2vbdhhqBS4quKA40UCFg5rppkJDhgtnwcnLWI3gr5wFJ6dhy4kFcmUEPxDJCQmqAuJzqWOAeHyRPBhVTtFmIAFC09PTSdu2P7t9+/a/bmpqGlr9d11fwVIsoAG0FGvpbbUFlmCBZDLZcujQoXfncrn3hMPhMKsceSAqx3zk2Ew5tcOwULf1y46TmykDio/BCoUhJbvKZIjxZ3lwKgOG/8r7+rnp2P3GEOJ41lxJnvzY2NgDV1999V90dnYeWYJ59aZrwAIaQGvgJupLWJkWwDiggwcPviefz787HA6HLgRAnKUmD0SVU7D5ysuNH+LsN1URlRuIqrrgygFIjvnI+6gAUmdMZfcb14TL5/Pe1NTUU93d3X/W29v7lM6EW5nP8qVqlQbQpbKsPu66t8DY2Fj78ePHf89xnN8Mh8PBCwWQWgVBVkjswlMrHfjVgVNVkap05O8yoGSoqEBSxwnJ7jhsyzEoPoY8MJWz4lKp1LG6uroP7Ny58wHDMHLr/sFZRwbQAFpHN1tf6uW1wPj4+IajR4/+vuM474pEIgEkHHBKM2eoqSV4VHcZu+jYdSb/VeNBMhwYUguV4JETCJbqglsISvI6NXlBBhA+IxEhnU6P2bb94auuuupz9fX1M5f3LumzXUkLaABdSevrc69pC0xMTGw8evToewuFwjsjkYi9XADJCQOyy01WO3LgX40VqQkH8nfV9baQAlJVkLyvmpCAbQEafnMciKfmRkJGKpXKOI7zuZ07d/51fX39qTX9UOiLO88CGkD6gdAWuEQWmJyc7Ojv7/9Dx3F+IxqNWly9AGnYlSogWSGp6gfNljPd5M5fdtvJSokVFUOkHIT8gFSpW05OTpDH/zB05PjRHIDcTCbz/Z6enns7Ozv36DjQJXogV+BhNYBW4E3RTVobFpiamuo8fPjwHzuO87ZoNGpCATF4LhRAfi44WZHgs5q6zXEadv/JBUYrAZAMI9ltp2bGydlx8jq5CraavAAXHKo1pFKpEz+uh3fvddddhziQHpC6Nv4FFr0KDaBFTaQ30Ba4MAtMT093Hzp06E8LhcKvxWIxgwHEKoQVkRqvkZMM/FKyZcgAKvJYHflYrJBYeTD0OLNOzpBjiKkwk0HCVlCz3uR9VBcczsmlhGQFxJ85JTuZTKYMw/jMVVdd9fHGxsazF2Zxvddqs4AG0Gq7Y7q9q8YCo6Ojvf39/e83TfOXg8GgwfMAMSTUGVEZLLwcHb2chKAmKMguOBkU8nZ8TBla8jLZmKqLTQaLCiL1+0LZcPI4IDkGxEVYsSyXy7mJROIHKEy6efPmZw3DKK6aG60besEW0AC6YNPpHbUFFrbA2NjY1sOHD/+5aZr/nStVc2FOgIXhwsBZDoBkdbIUAPlBx08NlQMQu+TKZcXhWHIVBLVWHBQQrn9ychLlec5WV1f/+YYNG77U3Nyc1M/X2reABtDav8f6Cq+QBcbHx7cfOnToA5Zl/Ve427juG8PnYgBIjffISkdORCingFi5yACrFEDyPn7xICxjFxyDxw9AcCNOT09jzJCTy+Ue7Orq+mBnZ+dBrYKu0IN7GU+rAXQZja1Ptb4sMDExsaOvr++Dtm2/GQDi+XwuJoAYLPJ4HzUDTnXDyd/LAcjP/baQWlrIRccuOHkwqhoDQjswt1AulxuKRqMf3r59+/21tbVT6+uJWX9XqwG0/u65vuLLZIHh4eFr+vv7PxQIBH6G58UBfHg+nYuhgNCpy+N9VNioY4fU9X7gkM3jN65HVkgyqBZSRKx8/CCESe9gH/zNZrPFfD7/TEtLy/t37NiB0jyl+R70a01aQANoTd5WfVErwQKjo6PX9/X1fSQUCv0kJyDIqdAMjuXEgNjNxQqoXJq2nwqSbaSO++F1ammdxVSQH4T80rNZAXEiAoMpkUgAQnnXdb++ZcuWD3Z0dBzVrriV8DRfmjZoAF0au+qjrnMLeJ5nDA8P33To0CEA6CcwS6isfOTJ5ZYDIAaLGgvy+863RK2I4KdoygFI3pbhpyYgyKpIHvcjL5ddcIAc5kZCu9LptCjPk8lkpquqqv6ht7f3E42NjUOGYWD6bv1aYxbQAFpjN1RfzsqwAAA0MjJy88GDBz8aCoXu4Pl/5NlN0eFyPEiuaLCUNGwZNKr6gSXU6Rb84HOxAOSnfrDMT0XJAMI2PNU42gsImabpTUxMjNTV1X1k27ZtX9DxoJXxXF/sVmgAXWyL6uNpC5SmqDZGR0dvO3DgwEej0ejtcMGhc+XBp3JR0oUUEJftURML+HslLjg/6Mj7y+Dwg5E68LScu84vFdsvTVvOiMP5MDUD3mpiApTQ7OzscGtr68d6eno+H4/HJ7QSWlv/XhpAa+t+6qtZIRbwPM8cGhp6zeHDh/8mGo3exCnYPA7oYgFoMRecvF42zUJuODnOow4wXShpQU3F9lNEHA9iCGEbecpurprAQML2mUxmLBgMfqalpeVz3d3dZ3StuBXykF+EZmgAXQQj6kNoC6gW8DzPGhwcvLO/vx8AurZSAHFiArvO5OQC1d0mu9zKpWEvBCAZQqqq4e8ygFT4LKaWygFIhhC76DAgVa6aLauhOfdcMhQKfaWpqenjvb29xwzDcPRTt/otoAG0+u+hvoIVaAHP8wKnTp36qePHjwNAWxcCEMeFcBmLAYiBUg5MKnBkSLGZ/Jb5wYLh4Oda8wGuWKRmyfmBTQaQnKQgQ4iXo1ApbAcgpVIpx3XdR5qamv6qpqZmb3t7e3oF3nrdpCVYQANoCcbSm2oLVGoBz/OCJ0+e/JmBgYG/jkQi3eUAhONxDIhrxDGE/GBTKYBkEKkVEeR1DAiO1TBEWPmoU2rLgCkHIRlE5QCkpmZzuR6GkLwf3HGcyJDL5bxCobC/urr64+3t7d9vamoa1S65Sp/KlbedBtDKuye6RWvAAp7nhQYGBn7+5MmTSELo4Om41RjQYgBazAXnlwXHgGFFtRCA/CDCcMA6BpDfgNTF0rkZRCq0ZEXFx1VL9MgVGpCMgO8A9VzKtvvjKS4wcd0/t7W1/VtnZ+eAdsmtzn8aDaDVed90q1e4BTzPi/T39/+XoaGhD0ej0XZ5NlRWOICRH4DkSePKAcgv5sMqxm8wqloRQXXD8XdVmcgAkhMH2Pzl0rp5vV/cSFZZKozkwqVYB0XEdoIS4qw/KKF0Oo1SPd9sb2//h87Ozv2GYWRX+GOhm6dYQANIPxLaApfAAp7nxQ4dOvTfR0dHPxSJRJqWC6BKYz4qGNQBqeVccwJeRimGM692iu78Z9cpis9ineg1XHEqw7AWtJ6qfvzSsuU4kF+WnApF+XsqlUq7rvuDmpqaz7S1te2qra2d0anal+CBvkSH1AC6RIbVh13fFhgbG4sPDg7+6vj4+AcjkUgdu+DkSejkKRnUqbf5O08e5wcgGSay201WH+pxGUjzx/PMEnjgbiOPip5TAo1TJMPziFyDyPWIAKO5dUVsabhiH8Mzy0JIjiv5ufpkF51aK05WRuU+Y3+ooixq9+TzP6qqqvpCY2Pjw21tbUjV1vMJrYJ/QQ2gVXCTdBNXnwUmJydrXnzxxV+fmZl5fyQSiV9KAMnwUTv9VwDHMETJm3MuPFMYlwHkuiUAwfUGAHnoxl2PvDkFJOBDRXKxziAyyRLH4zawi2wh15xfYoIaY1Jdd34QwjnZRZjJZArpdPrFSCTy9ZaWlq+2t7f3G4aRW31PzvpqsQbQ+rrf+movkwUSiURDX1/fPfl8/o8ikUiYlY+sgDghQQaCqlgqUUCq283P7SUrKPkcIthvGsSV1vC1BKACFb2SEvI84xXJCAJAmLHVhBuuBDUVhJVACNuUg49fSrcMIr5uqCDEigqFgpvNZscMw/heQ0PDv9bX1z/T0NCQuEy3XJ/mAiygAXQBRtO7aAssZoGRkZGWI0eO/K7nee8Jh8GfwHmleNDxVgogNdNtoXE8fq4uPzccLys50qBkShBi2DCACsWSInJE/Kd0dMM9Bw3TwKRzpSkhGEDlMvO4bTJYWLGVq7ggq6VynzFQle2JoqaJRGLWMIxnYrHYvyFVu6GhAcVM51q/2J3T6y+nBTSALqe19bnWjQUmJiY2Pv/88++zbfsd4XDYZNhciAIqB6BKjMkuMTWGxN8RyykByBIAQuQEbi3HLQjoFIp5KpBLRSQfiOwDsxQXcgwREzINVwBITXaQzycrI782qy45bMNKR3Ypym453gfgwjY8rYM0XiiXyWSOVlVVPdDc3Py1tra2F3SqdiVPzOXdRgPo8tpbn22dWGB4eLjrwIED94bD4V8Nh8MGFxW9GABSO3TV5SabWI7JvNINV4rjIKPNpICI9ZwHIM8RIAJ8Ci5iPyYZni1A5BWwuUPkOa8AkAwjdiGWS/tm2PgpN9UFJ2/L6xhQXNAUy3Gd+J7L5ZxUKjUYDoe/WV9f/8Xu7u4+PcHdyvoH1ABaWfdDt2aNWODs2bPb+vr6PhSNRt/McwFxyR0e53OhLjgZQH7qwQ9A/gpoboodqCCARaRdgylFKriFEmAI7jeAqEieEEs2uUIlzSUAuIV5AJWLM12IC1FNQvCDD9uBxwfh/FBAXDkB35PJpJfL5cYty3q0qanpC1VVVbubmppm18hjtuovQwNo1d9CfQEr0QKnT5++9sCBAx+rrq5+gzwbqpx6vRQACTeZFGfhztcvLiIDCh3yQjEgAKbU2ZfiOgCQiP8UkXxQJAPut2KpUGgpTmMhI5scx6WC45BbLJx3fPlcPOBWBpDfAFpZzajjhPiaVaXE+6BdfuDB9sKV6DjinUqlZvP5/L66urp/6e7u/k40Gh3RcaEr/5+jAXTl74FuwRqzAOYCOnv27C3PP//8J+rr628CdOB6k4HD9d9YDXFnXW480Pmp0+diJAu539isCyUtFAtwoRlkBYLkADqmJ7LinHyBDK9YyoJzHTJcT8xaGo1GyTVMSqZSVFVVRbOzqVKSAmA0F49RIcttV1UY2sfXL2fSlXPHlbtWOYuOAcbAxDqU8plrX95xnBOGYTzQ1tb2L+3t7Sjho8cLXcH/Pw2gK2h8feq1aQFMxfDyyy/fcejQIQDoGoCH3/IAU3bJyR30YgBS3WuVAEi1spwebXuWiO/AxVY0XLKDAZFjANhQkSiXyVI4EKRIMETRaLhU7VpsZ2GyOAoFI1QslkrmcBxGnmAO4GW4yNAtlxShpm7z94XgwwDi68S2PLAV+/PcQoBSNpt1C4XCWCgU+l5NTc2nurq6fqSTE67c/6EG0JWzvT7zGrWA53n2wMDAXUePHv1kfX39VsCHB6LKSqdcFWxZ7agdtdxB+8VJ/NSD7L46Xw0h9cAWAMoV0kSmR2YwILLeCnmAxqZIqIoymRwd/NF+yuez9Orrrqam5loq5NNUXR2nTDpfyoybe6FN7PoCBDCdQrk4FdrCgGIYyy461e220LWpCQsygPgzqyG0yXEcxIF2NTY2fqq7u/txwzCSa/RxXNGXpQG0om+PbtxqtADmAhoYGHjjwMDAJ6urqzf7AYjhIysiP/D4ua3U1OSFbOSXunwuJmOJSgc4R9HNCABhgGkGcaNAmMxAFSVSDn3v4Ufp9MkzZJkevWprF73hztupOmwSxgCRB/icA5CsWBhGXFlBBhOrFm6LDGY5duSnfORr8lNIvJ7HFsE+MoSg1jB2qFAoZHO53NHa2trPbdy48SvV1dXjq/F5W81t1gBazXdPt31FWgBTMfT39//c0NDQJyORSAsDiFOx5V/7qktO7pBlIJWL4yzmgltIfaCQaNHxyLINMt0cGWYplpNHbna0hpKORbt+dIye2XeIYvFqigRsosw0/fx/+gm6pncjpRKTFA1H5sfs+LkHuZK17BaTYzYAgQoUFcQ4rqr8FlJHfDzZNhyn4nXsMnRd15mdnR2LRCJf2rx588cbGhrOrMiHao02SgNojd5YfVlXzgKe50UPHjz43yYmJj4eCoVqF4oBqb/8VeioWWPlOuPFVJC6XqgojOsxrFK2WyFFAavkPvMCYcraMTp6dooe2n2AOq/aSdkCUXJ6kgpTQ3TD1g666aouqg1bVMhnz0vDVrPWWIX4JRkwlGSlJMdzZOiUAzAnPsguQBlOvF5WQKyIACGcu1AoeNPT0+lAIPDtTZs23dve3n7kyj096+vMGkDr637rq70MFhgdHa06derUW2dmZj4aiUSiC8WAFkpAENlp1rnpDvwC9IspoAWVAlxndoDcYo5CToaCFpGTy5MZraZpN0Tfe+4wPTswSje8/o2Uc01KzyYoN3yKrm6vo1u3d1CNVSTDKEhTM5zrTmQX20Imh21klxlDidsNIFYCV9UVx3aRS/zItpKz5KDC8Mpms7l8Pr+7ubn5r7q6up42DENP+X2J/180gC6xgfXh158Fpqamao8dO/aOZDL5gWg0GrhQALE6ki2oqoLFAMTrfV1YqKhjWWQWixT2HAqbJmXTSbJi1TRRsOirj+2hk8UYbXjVTeQaYSomZyk3+hJdv7GBrm+vpZa4TR5BRWDMUGlQq6x05M9qwgS3hwGjKiTVdagWLGWbsMJRY0+8HsvPjWEqLZUVlwwqKKJ0Ou1kMpmXamtrP7Nx48Yv1NTUTK6/J/jyXbEG0OWztT7TOrHA6Oho6/Hjx99bKBTew4NQ2Q2nJh/4ueBkN5xayqYSE/rBxm8/hHpc0xCFSK1CkWykL5suWeEYnZ2cpX999Ic0VrOZ6nquo6ARIEpnyBt7mW7sqKNrmsPUFMUkdpiT4cK6kcXgya4y2f2mxndU9YTv55IsSoNr+SVDTd6PkyT4L1xyuVxuOp/PfyE6kFEAACAASURBVKm3t/e+xsZGjBfSxUwrefiWuM2FPTlLPIneXFtgPVlgcnKyo6+v7y+I6K0AEA9EVSegK5f5tVwAVWprAAhjf1CI1HZFOVIx148ZCtOJoRG6//u7KNNxHcU3X01B1yIzlSFz8iTd1FlL1zYGqD7skWcGLymAWFXJ16QmLfhBiJWODCD5WHKsSY4P4VgiESOfR2woXSgUHm1sbPxYZ2fns4ZhZCq1rd6uMgtoAFVmJ72VtkDFFpiZmdmye/fuv4nFYm/CVNwADxSQrH7U7De1bI28XnYnqY2QVYQaI/LrvM/ryOGCI0w8Z1LICAgAiVlPg0E6OHCS7n/4aYrufD2FW3sFgNzZJIUTp+nmznra0WBTXcglskKioKnfueVz+aVLMyQWMmy55AXeV016kLPt5HiSn91k95sMJLmETzqdzjmO81xTU9PfdXZ2PkREesrviv8TFt9QA2hxG+kttAUqtgDK8ExPT+986qmnPlFXV/daBhCrH7Xkjh+U/BRQOZj4ubH8ssf8LoAVEEofAEC2YYoipF4gQM8cPEZfeWIvNd/+02TUbaJA0aLi9BRV50bolq4G2lZjUHXQJcMOz1XUXhhClboFKzU0XzcDSI0B+bnbGFpy9p3s0pP3keNGMzMz+Vwud7C+vv7Tra2t36yqqho3MAeFfi3bAhpAyzahPoC2wDkLoAzP0NDQ7Xv37v10Q0PD1VwBgevALRVAfmnY56mYueC/n9pYTAEhdoPab/j1H/SCQgE5nkNFO0iP7jlA39t/nNpe+5/JiTSQ7djkTI1TQ3GCbulpoN64QVWBIhlWaN4FV04Fqcsrif0s9EzJ+8sKSN1HhZ4a9ykHH1lFIUMOPxIw5Xcmk+mPx+OfaW1t/ZoetHpx/us1gC6OHfVRtAWEBVAF4fjx43cPDAx8pra2dhO73vwUUCUxoKUAqBIX3HmdMuLqllmaWtsppXvjh32aTPrWk8/Rc6cnqO3WuyljxSno2uSMD1OLNU23dDdQZ5UlAERmcN4FV8n5+TFZLoT4OLCPmjHH4GX3nXouGTyI98jKSI0nsRLCeVKpVGF2dvZAfX3933Z3dz+oy/cs/59eA2j5NtRH0BaYt4DneeH9+/f/4ujo6N9VVVXVlQPQQnXgZBec6mJaLNaykApQFRFmQ0XhUbjeyCmNx7Ftosl8gf794R/SS0mDmm/6Ccp4YYpQgHKjZ2ljYJZu6WmkjXGTYtb5APJTXOXaWymAsP9Cbka/9Gs5a66cPRg08jgjP4UEBZtKpUSMC+sTiUQGiQnNzc0faWtre8YoDYTSrwu0gAbQBRpO76Yt4GcBz/Pie/fu/Z+zs7MfDYfDwSsBoEpdYVA7mPE0EAiRV0BFBI/soEEjySz9y3eepmE3Rm03vpaybpDCXoAKo2dpU2iGbu5poLaqAEUDLhkUOC8JQT33cgEk25hBtFCMayF3n5zQwLDxW8ZZcdgGVcGRycgVtaGYxsfHpwzD+Ofu7u6/ra2tfUn/J1y4BTSALtx2ek9tgVdYIJFINBw8ePA9mUzmj2KxmJiKm2u/qW44VenIhUflz3wS+Zf9YpCpTCm5BBWE6RTCdpUYsBkImfTSeIL+5eE9lI40UfM1N1HeC5CXLpI3OUjbq3N0Q3cdNYYNCgW8VwBIVUGLtWMhJSSrG9G2QECYAjCQ5xFi+1SiqhZrj3pD+VxIy+ZMuYmJCS+dTh+sqan5y97eXrjiSqUU9GvJFtAAWrLJ9A7aAuUtkEql2vbu3fsB13V/PRKJiE5TLj5azvVWDj5+v/blX+1qSxZyP72y1S6ZFlEhX6SAHSspoJBBAyMz9IXvPEtGczdVd20jB9N1p4tkTQ/R1XU5enVXA9VHLQraCBpx7OhcV7KQQlHbUA4aMnxgG4AcMMALNpUnwFtIGanHXyqAAB2cn8+H483MzMAVN2tZ1hc2btz4sbq6upf1/8SFWUAD6MLspvfSFvC1wPT0dM+ePXvuC4VCP4MUbBlAKnzQGfpVRmDAyKBRO/WLpYAYQJYZIdsOkBX06OjZCfrHb++hmt7rKdyykYpkESUKFEwO0zUNDl3TEafaSIBsyyPDBIXOT8G+mABC5w/wAECcMMCfYVu5lI+fUpQHoi4VPvLx5JpycMtNTU15yWQS44M+uGnTpocMw8DESPq1RAtoAC3RYHpzbYFyFvA8zxwfH9+5d+/ez1VXV1/PFRBkF5xfGja74mQVxPDxSzOuJMheWWfrijl9StVqQgJAhl2kg6fG6B++/Rw1bb+JAg1NZBohKs6kKJabohtbirRjQxVVRWyyLYxAXZ4CwpkXUilc641tiO05Mw37LWQf+diV2eOVd5bbxtl2/D2RSNDo6OhEIBC4r6Oj49M6LfvC+gUNoAuzm95LW+AVFsBMqIODg68/cODA/0UKNjo9PwXkp4TKVULw6ziXAqCFO14kEcDFZJPrYupsk1wjT3sHztA/ff8wNW67gcyqGrKtEDnTSWr0knRbh0VXb4hTVCggVE4odSGVqJ7FIIDOXT0OlsGGmMVUfsG9CWVUSYbcch5VVj5QXZycgPZABY2OjjqpVOrBrq6uv6itre3Tg1OXbmkNoKXbTO+hLeBrAaRgHz169M0nT578TDwer+YSPOWSEFjxLASfhQCkdvzy98piQS55riOy4IpFmwzLoqKbpcf7BujB50eobssN5Ng2BQNhyo9NU7OVoTu6A7StJULhcBBDiBZVQKqhFoMQb8/bcfwF7jdABy/AiIu7clxI3q+ya6/sIWbA4V5ysVKGEWJB4+Pjh5qbm/+sra3t29oNV5lN5a00gJZuM72HtoCvBSYmJqpPnDhxz/T09F9Eo1EbMSDV/bZQNWx2xfnFgM77p0UF6rmX2qGrne9iCggAsqyAUEBWIEAFJ03/set5+uGQRa07bqW061AoEKb00Di1WFl6XXeAuhoDFAzaYtAq1FOlCsgPmOUeJW43On1ApqqqlKWHF2yYTCaFMsJnWQXJnyuF3WKPM7v68JeTEvAZVRLGxsbGLcv6cFNT0+fq6uqmFzuWXn++BTSA9BOhLXCRLDA7O9u0b9++v3Qc5/8DfPCLndVNuRRsNSbkFwdaSEUsF0CIAREhy8sitHk2m6QvfW8XHc3XU9t1r6FMsUBhO0iZMyPUbufozp4Iba6zyQxZRKYnCpleSgDh+hg8e/bsEee6+eab50GENjMY5IGk2EB16V3obZbjQHxcPuf4+HghkUh8qaen5//E4/Hj2g23NCtrAC3NXnprbQFfC6AI6czMTNeTTz756bq6uv/EKkaFULlacHLSAY9xUX/NLxb7wfpy+5S9baYn9sFkDKFQhE4PjtDnv/M45TpvIWrvoqJlUKjoUeHMWeoNeXTn5ji1xg0yYhZRwCDP8cg2LQFaBgVDFMd1nLwYyIlrQtyE3ZJQD6XtSvtyhhtntuFYgAv2x7IjR47Qww8/LI71pje9iTZv3izSoScnJujFF1+k6upqam9vp+bm5nkg4ZpNyxLnzOeh9CwRY8K5GGxwp1XykkEv2xjJCIODg8+2tbX9SXt7++OGYZRq++hXRRbQAKrITHojbYGFLYAMuNHR0Wv27t37herq6p3sakOHKY8DuhAALeZWk9erY2IWc0MZIpCDWbXR4Ufp5OAo/dN/PE7eVXeQ27qZCkaRAk6B6PRZ2h416c6OWmqpInLjFnkWkYFqPGTMJw8wSFkpWJYhrp8TBhgwaCcAk8nkBDDC4bA4Bhf/BBhKsZ7SvqdPn6YHHniAotEo/cIv/AKdOXOGvvOd79D42JgAH8eIXve619Fdd91FnV1dlE6lyCkWxfk9KVlCBVElz3Y5AKGNQ0NDp2pqav64o6PjAT1nUCXWPLeNBtDS7KW31hYop4CsU6dO3dbf3//FSCTSDfCg05LjQDKION4jA0n8YjfN+V/qfjApl5SgdpCVBuIBIGzrOkWyAyF68cwoffb/PULxm99I+cYNVDSKZGazRGfP0I54gO7cXEvNVSZ5UZOKmD0VY4Tc0swErHwYPiUXmCcAAvAAMoAFu8bS6bSIISG+g5gOqg3U1taKbfC9NJDXmv9+8OBBisVihL/f/OY3aXZ2lgr5vLAx3tgPSujGG28UkOru7ibDNOfiNqVxRIjhMATxfbkKCMcYGxub+XER2r9sbm7+XG1t7ZT+F6ncAhpAldtKb6ktUNYCqIJ9+PDhNw4NDf3fQCDQiM4THbtaiscv5sPLLhaA5EYupoAwJQPODwCRHaJjL52lz37jEWp9/ZspW9VELgabpmbJHB6i6+oidMfmOmqMkgBQgRwKmAHyiqXZqnlMDqcuC7C5jgAPXlAxY2Njwo3W0NBAGzZsEAoINmL3IcdWePyP5xUFmAAeLHvooYfoueeeo4mJCbHMMs35yggAEI6DdVdffTW9613vEi44uP5Evbu5JALACi85vrTYo11OAeGYU1NTzvT09N/19PR8NBaLDS52LL1eKyD9DGgLXFQLeJ4Xee655351dnb2E5ZlhdDpyhlvi01Ixx1cOQVUSfxHvaBF4YNAvVHKKgNEXCtI+4+9RPc/tIs67volSgTjZNgWuYlJCo8N0fXNcbq9o45qw0XyoraYO8g2bFKnZmOFU1JEnlAqx44do0cffVTEbaBy6urq6DWveQ1t3bp9vsYbQIMXuy2hnJDujeWAy/DwML3vfe+jrq4u4YrDcWtraubVEq4X+5w6dUrA5q1vfSvdedddc5UUggJ07K7DX/5eyYNQDkCAYjKZ9EZGRr7c3d39/pqamhcqOZ7epmQBrYD0k6AtcBEsgBTsvr6+PyOi3w0EAqIIKQ9CXUoMCB0dgMCvSuI/C8WAFr00c+58rkd5M0DPHhygbzzTRxtf+yaaMaPChVWcHqfY5DDd2F5HN22spqpQkYxICUCmZ5KF6Rykl1w1IJGYpl27dtHzzz9P+/btE2oECQRwlbW0tNCtt95OO3bsEMkDrJx4vA2USjpdcsUBLJ///Ofpu9/9Ll1//fUiVgQFlM1khAsPNpuamhKfER86evQo/cqv/Ar92v/4H3Pp0hPi3AAP3jU1NQKEAFklr3IAwrFw3OHh4Ueam5v/qLW1dZ9hYKIl/arEAhpAlVhJb6MtsIgFRkdHW/ft2/fZUCj0Jh4wyfEfGUCLzQN0oQC60BgQLksAg0zKkkWP/+gIPXX8DLXedDdN8SypUyNUPTNGN22qo51tNRQNFASAiojxYDK7OQDxGBlcI4CBjvno0X7xFx09lsE9hk57ZGREZLa9/PIp2rp1q4jZ7Ny5k6anpwmxIdgQ8ZXGxnrhwgPM3/a2t2HgJ1177bXzy3KligTCnYbrwLbITBsYGKBbb72V3vHOdwp3XzKZns/Aw/w+OD5+JLB7cLEHfCEFBIU2NjbWFw6H/6Czs/NRPUfQYtY8t14DqHJb6S21BXwtgBTsoaGhbfv27fu3aDR6PQ+aZFeSOhhVrYAgx4AWApDcCaqflwMgEX8hk9Jk0/f2HqYfnZmi5uvvoNliULjX3PFhqk2O0k2b6+lV7bUUMvNkRwLkEgBUiqXIVQIAIEAE7rbdu58WIMALcAGMjh8/Tk888QQ9/fTTFInExLJXv/rV9Mu//MsigYABhn0w4BWwmJycpHe/+93iXK961avOpX17nnDvwR1XX19PjY2NYgI5pGZju3fec49w2U1PJ8S+AA7aBvXE3yt5rMsBCPsCQJOTk4Oe5723t7f36zoTrhKLlrbRAKrcVnpLbYFyADL3799/28TExFeDwWAbJx5AAXHKL8eA+Je6DCF1Gb7Lbz6pXxyIA/8XemvQVnSgwVCEEq5NX3lsD00YVWS09ZITqCKjUKTc0Ena6M3SjZ0N1FETpHjYJM8mCkXCVCyUxtcgHRntY7cjoIJYzK5dT1FnZ+e8WxHLMZ7nqaeeEm44VGHAC1D4uZ/7OXrLW94i3GisHovFgoAFgPL7v//7Yvl1110nYjzCRZdKIQ1a7A8Ibty4USinvr4+oaje9va3CxdfKpURy2EvACoej4v24tjLeeEYuKZMJjPzYxvc29DQ8Pn6+vqZ5RxzPe2rAbSe7ra+1ktiAWTAPfvssz8/Ozt7fygUinAnrMaA1DI8DJ7lAKhcckIlCQgwxny8yQ7QcMqhr/zgWaKWLjIaumgq7ZCVL1J+6CR1GDN0+1UbqLOxigKWK6ogOG5RuN84lRmdO2IzXCsNcZj/+I8HhYsMCgcxl7Nnz9K3v/1tASy45TA+BzCBgrnhhhvoN37jN0T6NL5jvWmWkhIOHTpE9957r9j2mmuumXfRwQWHbfl4sDm+nzhxQsSK3vWbvymgBADBBciJChw3Ynfpch4MXHM2m80nEom/3rhx433xeHx0OcdbT/tqAK2nu62v9ZJYAEVIn3jiifc4jvN/0FnilzmrAYZLuSw4FUKq+vFzuy3kihNujQVqxakGcIsFMq0AeZZNZ2Zz9E/f3UW1W3YS1bRTIlmgoOORM3KKekJJenVnPW1silMsWhrTg44X58JfvHjwKDp1qBEkHfzgB4+Ijh8wQGwGauWxxx4TigVAyuVKc/3AXQel8va3v30eQIjdIIsOagVq6g//8A+FWsN2PLh1empq3mWH83LFhRdeeIHe8IY3CBccQIbzcOFSdr3xPVnuQ4E2AYBTU1Of7e7u/mA0Gj293GOul/01gNbLndbXecksgAy4ffv2fcK27V8DgHjqaFZAHNeRFZCfC84PPgsBSMRupCkMeH8VQgtdOAohYEoFIxCkM0mHPvbv36WarTvJi2EeoAiZmQJNDxym29qDdPPWFopjAKqTFYApVTLICBih88d3uKN4EG5/fz9961vfFOnT27ZtE6nXGAv0wx/+UPxta2sjxynNOIrr+Kmf+in62Z/92fkEAVZAUCs47j333COSEKCmACy0IZVMlmZytW2R2QZYIdEBCQ6A2X97y1tE0gNK/vCU2qz62H7LeTBwbhwfdhgfH39g8+bNf1xdXX1sOcdcT/tqAK2nu62v9ZJYYHh4uGv//v1fDofDN/MsqKwIVOhwwgHDgmNEDKRyCsjP1aa62S4EQKiG7RQ98qwgvTSVob/68repfvsNlLeiFApWUSRvUH7wBN3YZNDs2SN0pP9HAkDo5J18gTK5LP3SL/2SUButra3zgz2hcBC3eeqpJ0SSAGItyHZDHObw4cMiNRtgQSEfvJAwgHE7+AtQAD7YNhTCPEWlbupTn/qUUE9IVOC6c/lcTqRfw44Y2IoXkhwA/9/+7d+ma669dn4gKo6DY2NbHPtiFSvFMecA9MTGjRv/d3V1tU7FrvA/TQOoQkPpzbQF/CyAGnD79+9/3cjIyL9HIpEm/BJnFxwX3mQFpKoeXi674SoFkB98ZOVTaQwIk8ohA84hi/rOjNPfP7Sbem65i6azqPNmEs1kqS6foGvrHdr90Jfps//4Scrm0qXSPaZFv/CLbxZxm1tuuUV06HBzicoKriuqHjz88EN08uRJ4X6DbVAwFHBCBtzLL79M4XBUKCMkH0ABQcGUSvCUkhNQC46vBdt/7GMfE4oLageur7bW1lJR0slJkdQAMAIGb3zjG4WaCoXDok2c7CAKr861jz8v98nGtUKhTU5OHonH47/T3t7+mE7FrsyqGkCV2UlvpS3gawHMgvqDH/zgd1zX/XAoFDLRuVU6DxCDZyH1oyqfct+5ceXAVO72QQEhBpT3TNpzYpC+9MwRuvr1P0OTyTy5eY+KY7MUnB6mWzda5Ey9RB/9mw/Rj57fQ7YZoO1bt9Fv/867RfFPpD8DLHiJygqeJ8Bw5Mhh2r17twAQlsM9B4Cg1hviNKgF19PTQ3fffTd1dHQISEEZce04lOLh2m2w69e+9jUBLxwbsIELDstxvKamJhFXQrwJRUmhuCzbnisRVFJa8tQKclXrC328cQy8AaBEIjFsGMbvdXd3/z+dil2ZRTWAKrOT3kpbwNcCw8PDsT179twfj8d/kWuayQNQOSVbrYbASkd2yXFKtaqC/JRNJS45eb+yt8/1yLBsynge7T5+mr76/Ana8bqfpunpLAUpQPnRBIUSQ3Rru0k7Oqrpq9/4Kr300gmqi9WI7LLXvu41wvXFEMX1cuVrKJTR0WHhEkMWG6DBLkd2szU3t9KWLVvmlQ/UEMfRSgNLS/P98PQMsO39998v0riRmDA6MjKvmHp7e0V8COnXqIaAcUG33X67WO9KtQm4DA9XXljOo8315QCgdDqdyuVyf97S0vKPenK6yqyqAVSZnfRW2gK+FhgaGurct2/fd6PR6HZO6eUMMcQ92M3jV45Hdr3JKojBoSYg+I35UWGlVtAup4zEctcj07PJIY+mCll6+NBx6ssHKbZhKxnZAFkFg3JjCQqnRujO7hht3RClcG1UQCTqBchA+Z5inoreuXgKB/bRyaODR0o0EgcABKRg4zNcZAAJ7INEBKgnZLzhO2I/sB/H0nDNgBpDiKdtANRQlBTHhfoBDOEGRIbcM888I0r2XHXVVUJZwTWHe8NleDgud7EAhOMiEzCTybjJZPLTXV1dfxmLxYb0v8ziFtAAWtxGegttgbIW6O/v/8mTJ09+PRqNxuEqQkfJnR1+yeO1UC04tSpCOfjIoFEbI69bGoAMMZ2CYxo06eTpwX0H6OVwA5m1HRTIBsnKepQZn6ZYdpze0BOl7tYwBeKlacYjbpBszyTXcgWAZNAxLNDBQwUxhBCnQcIAD1qFfRDzgepBTIez6VgBwZ44BgCEZRxjAkDY1jzVA9YzCFB3DlM2YDwRFBGOy4VHOQlB8Nd1z0tZX8pjLrvysB+uEyCcnJz8+ubNm99bW1t7YinHW6/bagCt1zuvr/uiWODxxx//QKFQ+FOefgEHRYfHYCmXBSevV5MQVAjJ7rZyrje/pINFExFcbw5AJk24Lv37089SYsM2Sts1FMyFyUi7lB8fp7pigu7ujVFHc4CsSGlWUQDIMmwxXYNLxbIAQlwI6gDVB9BB4w0Aceo07CYnHsB2gAkXc2WXHid3MDjYRgAQtmfY4TNggLI/OBaOzS8Zzuw6W6ySBNtQjhfJn1lF8RxG4+PjT3Z2dv5WXV3dQT099+L/YhpAi9tIb6Et4GuBwcHB6L59+75VVVV1p1z1gDtPdFTqlAxq4kG5NOxKICSrjkqSD9g9Nr8f5pFzXSpYAZosuvTFR3ZR6LrX0EjGpEgxRkayQLmxEWoz0vSTW6toU71BZqw0d0/IDYhEhALcb0ovwp07Z4fxQE2AB28euMpKhl1uXBwU7jd85jfbjOvNsc3Q6fNgUi6EKtuB18uT4MlAWRTQc4N61WQF+TuOgXNzKvbY2NjRpqame1pbW5/S03Mv3nFoAC1uI72FtoCvBfr7+7ecOHHi0Xg8volTrtk1xKnYnGQg/5UhtJgLjt1rDCQVTDyWRd5OdYepHe15HapXJMcK0HDepS9872mqv/VuOjXtUtQLkTlboMLIIG0KZemuLXHaUOORPeeCsxxTZLChIrYMIM4K40Gf6PyhUgAeBOrxxhgcvBgeMnDkBASO/cCm+Iz95GQEBgsDgOva4TugJrcF52O1I9tsuZlwOCeAinPiOkdGRhKGYXy6urr6AdM0X9ywYQO+F/S/kL8FNID0k6EtcIEW2L17939NJpP/HCrlX4vAOXea8q93FThq5pvqgpPdbKqLSI0FlQPQQr/uz3W6pRiIM1cF4YuPPkMNt9xNp6cKFHYCZMxmyR0dpJ6qogBQc9ylQJVNmEXVK5hiMjoklwFAsrpi+HAsCOCACkJHjU5aViSsFmUYyQVcYVMeW8QqE8fFMXE8JBjgMxcalUseAXay/VR3mqoI/R4Dtm+5RwTHQPs48290dNSbnJw8bdv2c5Zl9QUCgePRaHQ4Ho8PBoPBwcbGxrRhGOd8lhf47K2V3TSA1sqd1NdxWS2A8T+PPPLIfbZt34NODp0jd37cgXJadjn1I4OnXBacH4BkFcQdpF9Hu1AHW4KQK+DhhmP00nSWvvLU81Rz/etoMOFRIGeQMZshGj5N2+oNesO2eqqPFsiKmmIfz7EoYIVFAoIMO3a/sfqQIcSgYEDxdch2gh0Zspx8AGCxDbmCAasizqjj6gb8EPA+sjJUYbJc9SOrUsAO14VUc9S7KxaLGdu2E47jTJimORMMBs8ARqFQ6HgsFjve0NAwEI/Hp9Y7jDSALmu3pU+2ViwwODjYuH//fsR/bkFHxunBuD65EoKf+lEVj6yIZPXD26mZbaoK8nPTcecod7pqIB0gKVKRvHAVvTiZpQf3HKaqq2+l0SSRiUoIM2lyBl+gVzVH6M6rmqgu4hBFXHLRazgBCgbChGKmfH7V/YY2cDo2w4fVj+wmZADhOCqMZEjx8TiuJkOGVRFsDxBAHXE2IvbjtnFGIm+/3CQEjvMhuQIqCEkXcwAS1zJXINUzTTNvGEbK87xxwzBOW5Z10LbtHzY2Nu5qaGgYWq+zqGoArZUeUV/HZbXAnj17fmJ8fPxr8Xi8kQEiKyDuJDn2UC4WpMKIL8JPEcm/uHk9pxKr4MK2HJiXO3v+LOImmFAuYNJs0aCXJrL0SN9LFNmyk86MZygerKbs6AiZ4yfp1Rvr6NbuJmquNalgZaloEFmEtGiDTHLFpHSqKmPw8PlYCfFYHLlNqhKU42IynFQXGsOV4SKDmFWWqs4YRrJS8ttPtpPfg8Uwl6HLs8ACQlx5G1ON8zMwdy2e4zhOJpPBoNUzRPSkaZrfaGlp+WFzc3Pysj7EK+BkGkAr4CboJqw+Czz44IP3BoPB98Xj8aCa6cbVltEJyrOiMoTkzpr3VVWMrHJkuKiAkmNAfFw12M7LZfeYOKZpUDqfIbOqlp49fJL2n5qkWPfVNDSTo6AXpvTwIEVSo3RjdzO9urOZqqNEeSMt9rPMCJmEcUTwxxXnS9zIwMFnjo3ILjm5HXKb+ZplRchpzqoNuD30vgAAC5ZJREFUGADYlo8tP0Wym0+GjrwtPnNyAyc4yPeGIa7CRr4WeRtOROBrZtesfM/43gDEjuO4hUJhxjTNfbW1tZ+xbftbW7ZsKc1tsU5eGkDr5Ebry7x4FnjhhReqjxw58q8NDQ0/7bquxYMl4W5BB4POBTEKfOcAuh9o0CIu1VPOrebnXiu3raqGuKOU1RhnjDGAXNOjRN6jXfuO0+HTY1S3ZQeNzRYokyqQmUqKQag3bd1EOza1UDREZEU8MkMWkWOTV3TJc4pkQEuJmNK5WmtsbT6f2vHLy/0Ay8sYMCrY/BSIuozhoEJCTpJgZcZqkX88IGmC75365KjX4hdLkpNQZMjKcJ1b7hUKhWShUPhWc3PzB7ds2dJ/8Z7UlX8kDaCVf490C1eYBR577LHeVCr1jWg0ehUS4BD/watUddkSJWXQgSIOIdeFUyGkut/KqR4/CLGbijs3VhWsGOROlztDWRmJThQJCIZL6QLRkReG6O+/+GUy6+upoX0TuU6QColJao8Svfa6q2hrxyayrSK5AUxgR+QUxERCZKPGp+sJd58MCdnVpioeuQNnaDK85OPI1yC7umTQqcpKhaB8zep+/B325UKpnEaPe4e3rDBltygDkqt2y+qNxzfJGXkce/L78ZBMJr0zZ87019bW/vnOnTu/tp4GsGoArbDOTTdn5VvgkUceuSkYDH7FcZxOjFXkEjLocAAhdKIAD88M6hfj8HPHyduxFRaDkpwAwBlisgXlDpQ7RLmzRxUDl4I0M+vQZ7/4r3T07CmyIhFyHJtys1O0s7ONbr3+VdSzuZtQmTrnpcjFlAZkUSQYoWwmNT8Qk8dC4S8rC46FzLmc5tOwGZylyeKMV5TEkRWQn7Li9X4uOtlmDDi/GByOCzhzW2RQMzR5cj11fz6/30BiGVSsrORkB1ZMOAbuGSqFv/jii6fC4fBHbrnlln9YTwNYNYBWfn+nW7jCLHDffffdUF9ff193d/dtsVjMRCowXlA+DCF0MlxSRlUwamfGHSADSP7Vzp/9joFlOI8cV+DvskKSEwJkd5yAE7mUy7uUTXs0NZukAwP9dGZ4hFJZhyifpfowUUdbM9VUN1HRdalo5UX6tuFaIgbELygBXD/qunHxT+7c0cnOTVcgSuSgNhxcXAwp+bpV26gKRHZhYT+OsZWDPGckygqFt2W7y0pITf6Q740KSnyXM/FU8KvqTlZrDDAu4XPq1KlB0zQ/ftttt/2dYRjZFfbIX7LmaABdMtPqA69VCzz22GP2mTNn7nzyySd/vbm5+cYdO3Z09Pb22ujs0MlwLTh0spyeLf8ql7O85F/GspvGTwGV6wz9AMS/zHFedIQ8g6jc6QI+biFPxaJHyZk8hSJhms0niGyLHLKpgFRmN0OW51LeCZKI9pgAR5GcnEOFfJEMq5QEwEpEBgjOxQoCn7kdC6kSeX+0Xc6CU+HD4FChIdtajc+o32X7MxS4rTJA5HWyIpOhJCsbtgk/E2pSBN9fwBlAHhkZGcrn8397++23f3I9zSWkAbRWe0l9XZfUApgJdc+ePXVHjx7devr06esnJia2hUKh7paWli2tra1tzc3N0ZqaGhuTq6mdqtxhLgdA8nHQ4aEzkzt3P5ee/Csc2Wu2QZROQsGVSsoEwwY5hicUUBTTInh58opFIitKhhWgopcnw/QoaJcKhrpeyX3GakwdbCqDUN6Obw5fv6z0ZNAyONV9+TpUG6gdvWxfvweCq2TL8OBrKZeBp4JK3l62uRzrksHPgOP1iUTCm5iYGJidnf3IHXfccb9hGJCZ6+KlAbQubrO+yEttAc/zjH379lUfOHCg9dChQ1vHxsZaiKiho6NjU0tLS09HR8eGlpaWqlgsZlmWFbBtu8qyrLBlWYZlWebcX8DKUF1xcoesqiB2uXFHLwfr8ZmX8692uYMWHalXpHQqK+AjFEfApFKNBIzxKa0XyswMCLVT6vA9MoxSVWxWe3x8Pj/HfMrZnTt8jhfJ28kqRXbB+akQXqYqG1lBLnTv5RiUenwGhbrcb7ty50BCAbdNgr9IGcQKx3EK2Wz2bKFQ+FowGPz7DRs2nLrUz+pKOr4G0Eq6G7ota8oCgFJfX190ZGSk5vTp0/FTp06FJiYmvGw222QYRg8UU0dHR0dVVVVPc3MzVFOssbExVFVVZc5lzxlzCgD/p4JMhmEwrAzAYC4F3OAadFzokwPqskE59VmGENdokytLc8crd+JyDIWTDXB+zvKTVQCrMbXqgd/NLdeZ83JZhZQDhKwueBs5xqKeV4YVx6kYoIsBk8Extx0AApic9zZNE2xBWqDrui7UDGI6qISAKqyoA4e/ec/zpkzTPOx53vdN03y6trZ2ak39A1RwMRpAFRhJb6ItcLEtABfesWPHYqdOnYonEomWRCKxYWpqqjGdTsdc1w0bhhHyPC8Yj8dDwWAwGgwG66LRaH00Gm2IxWLxcDgcCwQC4XA4bIfDYSsSiSAbD2pKvOcAZOTzeYBqjl0GkqbxPy/egBnW482DJ+UOXI5JqQDijDos58QGjvFwCjZngMm2UyGipl0vZGc/taO62FT1xON6+LjSeqFM5mAsPs9LlRJQhMJzXZfhIoDiIQBWAgj8linLsmZd1501DANVDJKmac4SUYKIpvE2TRN/UQ8u5bpuzvO8vGVZ+WKxmLZtO51IJBLt7e3pi/18rZbjaQCtljul27luLfDCCy+EbNuOTExMRFKpVFUymaxJJpO1mUwmivnv8vl8NJVKxYrFIgYkwb1nW5YVNE0zFI/HA8FgMPTjFN9oLBbDOxYOhyORSCRm23bcdd0YcgVs2zYDgQBIZbqui7dVmjHBsrAObsK5v1gIyM3HtjhRgLPa1GkSFoOK7KJihTG3zJtTKMwG/BVA4PUMEF6mri8UCkKNzNVaExCBCpkDSdG2bXwGUDBlgnjPFQgV+5imicoEAISAimEYk6ZpjhqGMUpE43OQSRaLxVwwGARY8oVCIV9fX8/HOjdd7Lp9gstfuAaQfii0BdaQBeD2AzgGBgascDhshkIhC1InkUjArWcVCoVAOp0OFYvFSLFYrC8Wi3WO41RlMpmqXC4X9jwvYtt2dSgUqg2FQnXxeLzGNM3aYDBYDSVm23YgEAiAS8IVCNegbdtQXIDWfDacFAuaV1xzbRPiQgXIHDjE7A5zwMi7rusUi0V04PzOQkHAfTUHC4fdWvgLqOAvADK3vIAioJ7nZQ0DNYQI6gRKJWUYBtQI6CS2QeYZFAqAg/OiDcFgUCge13WLxWKxEA6HC7lcLt/Y2CiDag09PZf/UjSALr/N9Rm1BVasBQCJ/v5+qCYkSESmp6fDUF+GYVQRUZVpmgAU1gmFFQgEgoCSYRhBjlMhBjJ3gVBUKFVkG4YRgKqa+w5XoFAy6NyhQDBpG2CAvwAB4iYYD2PbNkCUw+e5d9o0zazjONlgMAgwCFjgQ7FYdOPxOKskEYDBFyxH3bW2tja4zwTk5Pd6qjyw0h48DaCVdkd0e7QFVpkF5pSNUEMcXxoYGEBMSqgkqCOR2lealfS8PmeOEQARaqIBFCKw39vby6AozXmH1Dv9WnMW0ABac7dUX5C2gLaAtsDqsIAG0Oq4T7qV2gLaAtoCa84CGkBr7pbqC9IW0BbQFlgdFtAAWh33SbdSW0BbQFtgzVlAA2jN3VJ9QdoC2gLaAqvDAhpAq+M+6VZqC2gLaAusOQtoAK25W6ovSFtAW0BbYHVYQANoddwn3UptAW0BbYE1ZwENoDV3S/UFaQtoC2gLrA4LaACtjvukW6ktoC2gLbDmLKABtOZuqb4gbQFtAW2B1WEBDaDVcZ90K7UFtAW0BdacBTSA1twt1RekLaAtoC2wOiygAbQ67pNupbaAtoC2wJqzgAbQmrul+oK0BbQFtAVWhwU0gFbHfdKt1BbQFtAWWHMW0ABac7dUX5C2gLaAtsDqsMD/D6Pzt1R58IWoAAAAAElFTkSuQmCC;" vertex="1" parent="1">
          <mxGeometry x="642.92" y="262.88" width="104.17" height="150.24" as="geometry" />
        </mxCell>
        <mxCell id="h7ScecsNdmBpTV7By8Kl-18" style="edgeStyle=orthogonalEdgeStyle;rounded=0;orthogonalLoop=1;jettySize=auto;html=1;exitX=0;exitY=0.5;exitDx=0;exitDy=0;entryX=0.5;entryY=1;entryDx=0;entryDy=0;fillColor=#dae8fc;strokeColor=#6c8ebf;endArrow=none;endFill=0;strokeWidth=2;dashed=1;" edge="1" parent="1" source="h7ScecsNdmBpTV7By8Kl-15" target="h7ScecsNdmBpTV7By8Kl-10">
          <mxGeometry relative="1" as="geometry">
            <mxPoint x="800.0000000000002" y="357.5" as="sourcePoint" />
            <mxPoint x="585" y="372.5" as="targetPoint" />
            <Array as="points">
              <mxPoint x="660" y="430" />
              <mxPoint x="500" y="430" />
            </Array>
          </mxGeometry>
        </mxCell>
        <mxCell id="h7ScecsNdmBpTV7By8Kl-15" value="Controller" style="rounded=0;whiteSpace=wrap;html=1;labelBackgroundColor=none;fillColor=#f5f5f5;strokeColor=#666666;fontColor=#333333;" vertex="1" parent="1">
          <mxGeometry x="660" y="420" width="70" height="20" as="geometry" />
        </mxCell>
        <mxCell id="h7ScecsNdmBpTV7By8Kl-24" value="&lt;i&gt;&lt;font color=&quot;#6c8ebf&quot;&gt;Ethernet&lt;/font&gt;&lt;/i&gt;" style="text;html=1;align=center;verticalAlign=middle;resizable=0;points=[];autosize=1;strokeColor=none;fillColor=none;" vertex="1" parent="1">
          <mxGeometry x="490" y="425" width="70" height="30" as="geometry" />
        </mxCell>
        <mxCell id="h7ScecsNdmBpTV7By8Kl-27" value="&lt;i&gt;&lt;font style=&quot;&quot; color=&quot;#d6b656&quot;&gt;Wireless&lt;/font&gt;&lt;/i&gt;" style="text;html=1;align=center;verticalAlign=middle;resizable=0;points=[];autosize=1;strokeColor=none;fillColor=none;" vertex="1" parent="1">
          <mxGeometry x="345" y="262.88" width="70" height="30" as="geometry" />
        </mxCell>
      </root>
    </mxGraphModel>
  </diagram>
</mxfile>
